<?xml version="1.0" standalone="no"?>
<!DOCTYPE svg PUBLIC "-//W3C//DTD SVG 1.1//EN" "http://www.w3.org/Graphics/SVG/1.1/DTD/svg11.dtd" >
<svg>
<metadata>
Created by FontForge 20110222 at Wed Aug 20 05:54:04 2014
 By deploy user
Digitized data copyright A^(c) 2012-2013, The Mozilla Foundation and Telefonica S.A.
</metadata>
<defs>
<font id="FiraMono-Bold" horiz-adv-x="600" >
  <font-face 
    font-family="Fira Mono"
    font-weight="700"
    font-stretch="normal"
    units-per-em="1000"
    panose-1="2 11 6 9 5 0 0 2 0 4"
    ascent="800"
    descent="-200"
    x-height="531"
    cap-height="693"
    bbox="-275 -500 1192 1050"
    underline-thickness="50"
    underline-position="-50"
    unicode-range="U+000D-1F310"
  />
<missing-glyph 
d="M90 1050h420v-1550h-420v1550zM456 -448v1446h-311v-1446h311zM307 173q0 -11 -8 -17.5t-17 -6.5q-10 0 -17.5 6.5t-7.5 17.5v84q54 3 72.5 20t18.5 57q0 29 -11.5 49t-49.5 20q-29 0 -52 -11q-8 -3 -13 -3q-11 0 -17.5 6.5t-6.5 16.5t9 17.5t23 12t30 7t31 2.5
q32 0 53.5 -9.5t34 -25.5t18 -37t5.5 -43q0 -53 -22 -81.5t-73 -36.5v-45zM247 85q0 15 10 25t25 10t25 -10t10 -25q0 -16 -10 -26.5t-25 -10.5t-25 10.5t-10 26.5z" />
    <glyph glyph-name=".notdef" 
d="M90 1050h420v-1550h-420v1550zM456 -448v1446h-311v-1446h311zM307 173q0 -11 -8 -17.5t-17 -6.5q-10 0 -17.5 6.5t-7.5 17.5v84q54 3 72.5 20t18.5 57q0 29 -11.5 49t-49.5 20q-29 0 -52 -11q-8 -3 -13 -3q-11 0 -17.5 6.5t-6.5 16.5t9 17.5t23 12t30 7t31 2.5
q32 0 53.5 -9.5t34 -25.5t18 -37t5.5 -43q0 -53 -22 -81.5t-73 -36.5v-45zM247 85q0 15 10 25t25 10t25 -10t10 -25q0 -16 -10 -26.5t-25 -10.5t-25 10.5t-10 26.5z" />
    <glyph glyph-name=".null" 
 />
    <glyph glyph-name="nonmarkingreturn" unicode="&#xd;" 
 />
    <glyph glyph-name="space" unicode=" " 
 />
    <glyph glyph-name="exclam" unicode="!" 
d="M236 256l-21 437h170l-20 -437h-129zM209 74q0 38 26.5 64.5t64.5 26.5q19 0 35.5 -7t29 -19.5t19.5 -29t7 -35.5t-7 -35.5t-19.5 -29t-29 -19.5t-35.5 -7q-38 0 -64.5 26.5t-26.5 64.5z" />
    <glyph glyph-name="quotedbl" unicode="&#x22;" 
d="M147 462l-19 280h151l-19 -280h-113zM339 462l-19 280h152l-19 -280h-114z" />
    <glyph glyph-name="numbersign" unicode="#" 
d="M492 446l-25 -197h62v-105h-76l-19 -144h-132l19 144h-94l-19 -144h-132l18 144h-59v105h73l26 197h-62v106h76l18 141h133l-19 -141h94l19 141h132l-19 -141h60v-106h-74zM240 249h94l26 197h-94z" />
    <glyph glyph-name="dollar" unicode="$" 
d="M469 548q-28 23 -58.5 34.5t-61.5 13.5v-173q51 -17 90 -36.5t65.5 -45t40.5 -59t14 -78.5q0 -42 -14 -79t-40.5 -65.5t-65.5 -47.5t-90 -25v-149h-81v146q-75 5 -132.5 32.5t-94.5 62.5l77 89q34 -29 69.5 -46.5t80.5 -20.5v206q-109 36 -155.5 84.5t-46.5 119.5
q0 82 54.5 134t147.5 62v149h81v-148q62 -5 111 -26.5t86 -52.5zM410 185q0 29 -12 50t-49 40v-171q61 14 61 81zM209 530q0 -12 2 -22t8 -19t17.5 -17.5t31.5 -17.5v141q-30 -5 -44.5 -23.5t-14.5 -41.5z" />
    <glyph glyph-name="percent" unicode="%" 
d="M164 -39l-84 35l343 720l85 -35zM184 542q0 48 -6.5 69t-31.5 21t-32.5 -22.5t-7.5 -67.5t8.5 -68t31.5 -23q25 0 31.5 22.5t6.5 68.5zM288 542q0 -81 -37.5 -125t-104.5 -44t-105 44t-38 125q0 77 38 123t105 46t104.5 -44.5t37.5 -124.5zM493 160q0 48 -7 69t-32 21
t-32 -22.5t-7 -67.5t8 -68t31 -23q25 0 32 22.5t7 68.5zM596 160q0 -81 -37.5 -125t-104.5 -44q-68 0 -105.5 44t-37.5 125q0 77 37.5 122.5t105.5 45.5q67 0 104.5 -44t37.5 -124z" />
    <glyph glyph-name="ampersand" unicode="&#x26;" 
d="M281 -17q-59 0 -104.5 16.5t-76.5 45t-47 68t-16 85.5q0 83 40.5 128.5t111.5 62.5v4q-118 32 -118 150q0 36 15.5 66.5t43.5 53t66 35t83 12.5q62 0 108 -17.5t87 -61.5l-86 -74q-23 23 -42 33.5t-48 10.5q-35 0 -54 -21t-19 -57q0 -39 25 -64.5t67 -25.5h261v-102h-65
v-261q-16 -17 -37.5 -32.5t-50 -27.5t-64 -19.5t-80.5 -7.5zM308 331q-30 0 -51.5 -10t-35.5 -27t-21 -39t-7 -45q0 -50 24.5 -80.5t72.5 -30.5q25 0 44 7.5t31 19.5v205h-57z" />
    <glyph glyph-name="quotesingle" unicode="'" 
d="M243 462l-19 280h151l-19 -280h-113z" />
    <glyph glyph-name="parenleft" unicode="(" 
d="M302 350q0 -69 10 -127t30.5 -110t50 -101.5t68.5 -100.5l-103 -69q-44 51 -83.5 103t-69.5 112t-47.5 131.5t-17.5 161.5t17.5 161.5t47.5 131.5t69.5 112t83.5 103l103 -69q-39 -51 -68.5 -100.5t-50 -101.5t-30.5 -110t-10 -127z" />
    <glyph glyph-name="parenright" unicode=")" 
d="M298 350q0 69 -10 127t-30.5 110t-50 101.5t-68.5 100.5l103 69q44 -51 83.5 -103t69.5 -112t47.5 -131.5t17.5 -161.5t-17.5 -161.5t-47.5 -131.5t-69.5 -112t-83.5 -103l-103 69q39 51 68.5 100.5t50 101.5t30.5 110t10 127z" />
    <glyph glyph-name="asterisk" unicode="*" 
d="M375 514l101 -99l-110 -80l-67 124l-64 -125l-110 80l99 101l-137 23l40 126l126 -61l-22 140h137l-22 -141l126 62l41 -126z" />
    <glyph glyph-name="plus" unicode="+" 
d="M366 374h152v-123h-152v-156h-133v156h-151v123h151v156h133v-156z" />
    <glyph glyph-name="comma" unicode="," 
d="M191 99q0 46 31 77t78 31q48 0 79 -31t31 -78q0 -30 -11 -60t-33 -79l-72 -163h-106l51 213q-23 14 -35.5 37.5t-12.5 52.5z" />
    <glyph glyph-name="hyphen" unicode="-" 
d="M108 251v124h384v-124h-384z" />
    <glyph glyph-name="period" unicode="." 
d="M188 95q0 23 9 43.5t24 35.5t35.5 24t43.5 9t43.5 -9t35.5 -24t24 -35.5t9 -43.5t-9 -43.5t-24 -35.5t-35.5 -24t-43.5 -9t-43.5 9t-35.5 24t-24 35.5t-9 43.5z" />
    <glyph glyph-name="slash" unicode="/" 
d="M153 -112l-125 57l420 872l124 -57z" />
    <glyph glyph-name="zero" unicode="0" 
d="M300 -17q-63 0 -110 25t-78.5 72t-47 114.5t-15.5 153.5q0 171 63 267t188 96q124 0 187.5 -96t63.5 -267q0 -86 -16 -153.5t-47.5 -114.5t-78.5 -72t-109 -25zM234 345q0 27 18.5 46t46.5 19q29 0 47.5 -19t18.5 -46q0 -28 -18.5 -47t-47.5 -19q-28 0 -46.5 19t-18.5 47
zM300 98q24 0 42 13t30 42.5t17.5 77.5t5.5 117t-6 116t-18 76.5t-29.5 42t-41.5 12.5t-42 -13.5t-30 -43t-18 -76.5t-6 -114q0 -71 6 -118.5t18 -77t30 -42t42 -12.5z" />
    <glyph glyph-name="one" unicode="1" 
d="M100 121h167v415l-139 -84l-71 105l224 136h142v-572h129v-121h-452v121z" />
    <glyph glyph-name="two" unicode="2" 
d="M526 512q0 -39 -14 -78t-46.5 -85t-86 -101.5t-132.5 -125.5h295l-17 -122h-462v113q85 82 142.5 141t92.5 103t50 77t15 64q0 42 -25 66t-67 24q-36 0 -65.5 -16.5t-58.5 -53.5l-98 74q42 55 100 87t139 32q59 0 103.5 -16t74.5 -43t45 -63.5t15 -76.5z" />
    <glyph glyph-name="three" unicode="3" 
d="M42 617q48 46 107 70t131 24q56 0 100 -14t74.5 -38.5t46.5 -57t16 -68.5q0 -66 -37.5 -106t-94.5 -57v-4q31 -5 59 -16.5t49 -32t33.5 -51t12.5 -71.5q0 -44 -18.5 -82.5t-53.5 -67.5t-84.5 -45.5t-112.5 -16.5q-78 0 -139.5 27t-105.5 77l90 84q30 -35 66.5 -50.5
t77.5 -15.5q51 0 83.5 26t32.5 75q0 55 -30.5 79t-86.5 24h-63l18 110h45q46 0 75 22.5t29 67.5q0 38 -27.5 60.5t-72.5 22.5q-42 0 -75.5 -16t-62.5 -44z" />
    <glyph glyph-name="four" unicode="4" 
d="M485 145v-145h-156v145h-285v106l192 460l136 -50l-163 -396h120l18 166h138v-166h69v-120h-69z" />
    <glyph glyph-name="five" unicode="5" 
d="M545 228q0 -53 -19.5 -98t-55.5 -77.5t-86.5 -51t-111.5 -18.5q-76 0 -134.5 28t-96.5 76l92 84q25 -32 57.5 -49t68.5 -17q55 0 88 33t33 87q0 64 -28 91t-70 27q-19 0 -40 -5t-44 -18h-108v373h424l-18 -114h-253v-148q26 12 52.5 17t49.5 5q42 0 78.5 -15.5
t63.5 -44.5t42.5 -71t15.5 -94z" />
    <glyph glyph-name="six" unicode="6" 
d="M441 569q-20 14 -42.5 21t-44.5 7q-56 0 -94 -49.5t-44 -144.5q32 32 70 47t75 15q40 0 75.5 -15.5t62 -44.5t41.5 -72t15 -98q0 -52 -17 -98t-49.5 -80t-78 -54t-102.5 -20q-69 0 -118 26.5t-80.5 71.5t-46 105t-14.5 127q0 88 20.5 161t59.5 125.5t95 82t127 29.5
q46 0 84 -12.5t67 -32.5zM319 355q-27 0 -54 -13.5t-49 -38.5q2 -104 21.5 -155t72.5 -51q22 0 38 10t26.5 27.5t15.5 41t5 50.5q0 71 -20 100t-56 29z" />
    <glyph glyph-name="seven" unicode="7" 
d="M265 -16l-152 47l258 542h-304v120h466v-108z" />
    <glyph glyph-name="eight" unicode="8" 
d="M531 532q0 -42 -25.5 -82.5t-81.5 -72.5q70 -35 102 -82.5t32 -106.5q0 -40 -16.5 -77t-49 -65.5t-81.5 -45.5t-114 -17q-64 0 -111.5 16.5t-79.5 44t-48 64t-16 76.5q0 60 34 103.5t93 69.5q-54 34 -77 77t-23 91q0 42 17.5 76.5t48.5 58.5t73.5 37.5t92.5 13.5
q51 0 93.5 -12t72.5 -35t47 -56.5t17 -75.5zM398 189q0 25 -7.5 43.5t-23 32.5t-40.5 25.5t-60 23.5q-30 -20 -47.5 -49.5t-17.5 -70.5q0 -43 24.5 -70t74.5 -27q51 0 74 27.5t23 64.5zM221 523q0 -39 24 -63t76 -44q34 25 46 51.5t12 55.5q0 35 -19.5 57t-58.5 22
q-38 0 -59 -20.5t-21 -58.5z" />
    <glyph glyph-name="nine" unicode="9" 
d="M379 306q-24 -29 -58 -46t-82 -17q-41 0 -76.5 16t-62 45.5t-42 71.5t-15.5 95q0 52 19.5 96.5t53 76t80 49.5t100.5 18q63 0 111 -20.5t80.5 -57t48.5 -86t16 -107.5q0 -102 -25 -179.5t-77.5 -134.5t-132.5 -95.5t-189 -60.5l-33 112q125 32 195.5 85t91.5 137z
M289 355q30 0 54 16t44 45q0 45 -3.5 78.5t-14 56.5t-28.5 34.5t-46 11.5q-42 0 -66.5 -30.5t-24.5 -90.5q0 -34 6.5 -57t18 -37.5t27 -20.5t33.5 -6z" />
    <glyph glyph-name="colon" unicode=":" 
d="M194 89q0 21 8.5 40t22.5 33.5t33.5 22.5t41.5 8t41 -8t33.5 -22.5t22.5 -33.5t8 -40q0 -22 -8 -41t-22.5 -33.5t-33.5 -23t-41 -8.5t-41.5 8.5t-33.5 23t-22.5 33.5t-8.5 41zM194 434q0 21 8.5 40.5t22.5 34t33.5 23t41.5 8.5t41 -8.5t33.5 -23t22.5 -34t8 -40.5
t-8 -40.5t-22.5 -33.5t-33.5 -22.5t-41 -8.5t-41.5 8.5t-33.5 22.5t-22.5 33.5t-8.5 40.5z" />
    <glyph glyph-name="semicolon" unicode=";" 
d="M194 94q0 22 8 41t22.5 33t33.5 22t42 8q45 0 75 -30t30 -75q0 -28 -11 -57.5t-31 -76.5l-69 -157h-103l49 205q-22 14 -34 36.5t-12 50.5zM194 434q0 21 8.5 40.5t22.5 34t33.5 23t41.5 8.5t41 -8.5t33.5 -23t22.5 -34t8 -40.5t-8 -40.5t-22.5 -33.5t-33.5 -22.5
t-41 -8.5t-41.5 8.5t-33.5 22.5t-22.5 33.5t-8.5 40.5z" />
    <glyph glyph-name="less" unicode="&#x3c;" 
d="M69 257v113l392 243l70 -110l-324 -189l324 -185l-72 -114z" />
    <glyph glyph-name="equal" unicode="=" 
d="M72 354v125h456v-125h-456zM72 144v124h456v-124h-456z" />
    <glyph glyph-name="greater" unicode="&#x3e;" 
d="M531 371v-114l-390 -242l-72 109l324 190l-324 184l71 115z" />
    <glyph glyph-name="question" unicode="?" 
d="M55 603q43 51 102.5 79.5t138.5 28.5q57 0 100.5 -13.5t72.5 -37t43.5 -54t14.5 -63.5q0 -41 -14 -68t-34.5 -47t-44.5 -35.5t-44.5 -31.5t-34.5 -36t-14 -49v-20h-146v25q0 43 12 72.5t30.5 50t40 35t40 28t30.5 28t12 34.5q0 27 -22 41.5t-57 14.5q-34 0 -66 -15
t-59 -46zM179 74q0 19 7 35.5t19.5 29t29 19.5t35.5 7q38 0 64.5 -26.5t26.5 -64.5t-26.5 -64.5t-64.5 -26.5q-19 0 -35.5 7t-29 19.5t-19.5 29t-7 35.5z" />
    <glyph glyph-name="at" unicode="@" 
d="M317 44q-17 -38 -51.5 -65.5t-88.5 -27.5q-45 0 -75.5 17.5t-50 48t-28 72.5t-8.5 90q0 61 12.5 111t39 85t66.5 54t95 19q40 0 83.5 -10.5t85.5 -33.5v-300q0 -55 9.5 -77t29.5 -22q14 0 22.5 15t12.5 48.5t5 87t1 131.5q0 79 -8.5 139.5t-31 102t-60.5 63t-98 21.5
q-54 0 -107 -20.5t-111 -71.5l-63 74q69 60 138 88t151 28q89 0 149 -29.5t96 -84t51.5 -131t15.5 -170.5q0 -95 -6.5 -167.5t-24.5 -122t-48.5 -75t-78.5 -25.5q-29 0 -50 11t-35.5 29.5t-23 43.5t-11.5 54h-4zM225 348q-20 0 -32.5 -8.5t-20.5 -28t-11 -52t-3 -80.5
q0 -69 10 -98.5t38 -29.5q16 0 26.5 6.5t16.5 17t8.5 22.5t4.5 24v218q-9 5 -17.5 7t-19.5 2z" />
    <glyph glyph-name="A" unicode="A" 
d="M399 149h-201l-36 -149h-174l212 693h201l212 -693h-178zM224 269h148l-71 293h-5z" />
    <glyph glyph-name="B" unicode="B" 
d="M401 210q0 54 -31 75t-83 21h-66v-185h59q24 0 46 3.5t38.5 13t26.5 27t10 45.5zM375 499q0 41 -25.5 59t-79.5 18h-49v-159h54q53 0 76.5 19t23.5 63zM572 203q0 -60 -23.5 -99t-63 -62.5t-91 -32.5t-108.5 -9h-231v693h221q54 0 102 -8.5t84.5 -29t58 -54.5t21.5 -85
q0 -31 -10.5 -56t-28 -43.5t-38.5 -30t-42 -16.5v-4q25 -5 51.5 -16t48.5 -30t35.5 -47.5t13.5 -69.5z" />
    <glyph glyph-name="C" unicode="C" 
d="M500 538q-29 23 -60 36.5t-71 13.5q-36 0 -65.5 -13.5t-51.5 -43t-34 -75t-12 -108.5q0 -62 11.5 -107t32.5 -74t50 -42.5t65 -13.5q51 0 86 17.5t64 40.5l75 -96q-38 -37 -95.5 -63.5t-140.5 -26.5q-72 0 -131 23.5t-101 69.5t-65.5 114.5t-23.5 157.5q0 87 24.5 154.5
t68 114t103 70.5t128.5 24q75 0 127.5 -21t96.5 -56z" />
    <glyph glyph-name="D" unicode="D" 
d="M403 350q0 69 -11.5 112.5t-32 68t-48 33.5t-60.5 9h-34v-453h34q34 0 62 10.5t48 36.5t31 70.5t11 112.5zM575 350q0 -106 -28 -174t-75 -107t-107.5 -54t-125.5 -15h-188v693h176q67 0 129.5 -13.5t111 -51t78 -104.5t29.5 -174z" />
    <glyph glyph-name="E" unicode="E" 
d="M253 575v-165h240v-116h-240v-175h289v-119h-455v693h455l-17 -118h-272z" />
    <glyph glyph-name="F" unicode="F" 
d="M264 575v-182h242v-119h-242v-274h-167v693h457l-17 -118h-273z" />
    <glyph glyph-name="G" unicode="G" 
d="M325 -17q-149 0 -226 92.5t-77 272.5q0 88 25.5 156t69 114t102 69.5t125.5 23.5q76 0 128.5 -24t93.5 -62l-87 -90q-32 28 -60.5 41.5t-65.5 13.5q-35 0 -64.5 -13.5t-50.5 -43t-33 -75.5t-12 -111q0 -68 8 -114.5t24.5 -75t42 -41t59.5 -12.5q23 0 45 5.5t40 15.5v157
h-86l-16 116h259v-345q-53 -32 -113.5 -51t-130.5 -19z" />
    <glyph glyph-name="H" unicode="H" 
d="M383 0v296h-166v-296h-166v693h166v-268h166v268h166v-693h-166z" />
    <glyph glyph-name="I" unicode="I" 
d="M74 693h452v-121h-143v-450h143v-122h-452v122h143v450h-143v121z" />
    <glyph glyph-name="J" unicode="J" 
d="M86 693h391v-510q0 -74 -24 -129.5t-70 -97.5t-112 -73t-150 -54l-39 118q63 19 106.5 41t71 49t39.5 61t12 78v396h-225v121z" />
    <glyph glyph-name="K" unicode="K" 
d="M224 0h-166v693h166v-693zM229 370l187 323h174l-194 -311l213 -382h-192z" />
    <glyph glyph-name="L" unicode="L" 
d="M92 0v693h166v-562h300l-17 -131h-449z" />
    <glyph glyph-name="M" unicode="M" 
d="M154 537q2 -23 3.5 -45.5t3 -47t2.5 -51.5t1 -59v-42l-5 -292h-142l39 693h170l73 -435h4l71 435h170l39 -693h-145l-8 295q-1 17 -1 32v29q0 27 0.5 50t2 44t3.5 42t4 45h-4l-73 -419h-125l-79 419h-4z" />
    <glyph glyph-name="N" unicode="N" 
d="M348 0l-177 538h-4q3 -16 7.5 -44.5t8.5 -65t6.5 -80t2.5 -89.5v-259h-141v693h207l171 -539h4q-8 38 -16.5 110t-8.5 166v263h141v-693h-201z" />
    <glyph glyph-name="O" unicode="O" 
d="M578 347q0 -83 -18 -150t-53 -114.5t-87 -73.5t-120 -26t-120 25t-87 72.5t-53 115t-18 151.5q0 82 18 149.5t53 115t87 73.5t120 26t120 -25t87 -72.5t53 -115t18 -151.5zM408 347q0 128 -25 185.5t-83 57.5t-83 -57.5t-25 -185.5t25.5 -185.5t82.5 -57.5q60 0 84 58
t24 185z" />
    <glyph glyph-name="P" unicode="P" 
d="M406 467q0 108 -124 108h-55v-225h61q57 0 87.5 28t30.5 89zM577 467q0 -61 -20 -105.5t-56 -74t-87 -43.5t-112 -14h-75v-230h-166v693h219q142 0 219.5 -56t77.5 -170z" />
    <glyph glyph-name="Q" unicode="Q" 
d="M575 347q0 -51 -7.5 -97t-23.5 -85t-42 -70t-63 -51l1 -4q36 -7 66 -18.5t54 -30.5t42.5 -48t32.5 -70l-135 -46q-17 39 -34.5 68.5t-41.5 50t-56.5 30.5t-77.5 10q-65 0 -113.5 25t-80.5 71.5t-48 113.5t-16 151q0 82 16.5 149.5t50.5 115t85 73.5t119 26t119 -25
t85 -72.5t51 -115t17 -151.5zM402 347q0 63 -4.5 109t-16 75.5t-30.5 43.5t-48 14q-58 0 -78.5 -58t-20.5 -184q0 -127 21 -185t78 -58q59 0 79 58.5t20 184.5z" />
    <glyph glyph-name="R" unicode="R" 
d="M562 482q0 -37 -10.5 -67t-29.5 -53.5t-44 -40.5t-54 -29l181 -292h-186l-149 264h-47v-264h-166v693h219q143 0 214.5 -51t71.5 -160zM391 482q0 50 -29 72.5t-86 22.5h-53v-199h60q53 0 80.5 24.5t27.5 79.5z" />
    <glyph glyph-name="S" unicode="S" 
d="M569 203q0 -49 -19.5 -89.5t-55.5 -69.5t-88 -45t-118 -16q-95 0 -164.5 29t-112.5 71l84 93q38 -34 84.5 -52t102.5 -18q51 0 82.5 22t31.5 62q0 19 -6 33t-20.5 25.5t-38.5 22t-60 21.5q-60 19 -101.5 40.5t-68 47.5t-38.5 58t-12 71q0 48 20.5 85.5t56.5 63.5
t83.5 39.5t101.5 13.5q79 0 140.5 -23.5t106.5 -66.5l-78 -90q-35 29 -75 43.5t-81 14.5q-47 0 -75 -17t-28 -50q0 -17 6.5 -29t22 -22.5t42 -20.5t66.5 -23q49 -16 88 -35t66 -45.5t41 -61t14 -82.5z" />
    <glyph glyph-name="T" unicode="T" 
d="M382 566v-566h-166v566h-194v127h562l-17 -127h-185z" />
    <glyph glyph-name="U" unicode="U" 
d="M300 -17q-65 0 -114 18t-81 51t-48 78.5t-16 101.5v461h167v-398q0 -47 3.5 -82.5t13 -59t27.5 -35.5t48 -12t48 12t27.5 35.5t13 59t3.5 82.5v398h167v-461q0 -53 -16 -98.5t-48.5 -79t-81 -52.5t-113.5 -19z" />
    <glyph glyph-name="V" unicode="V" 
d="M300 138h5l127 555h170l-199 -693h-206l-198 693h176z" />
    <glyph glyph-name="W" unicode="W" 
d="M521 0h-172l-47 486h-4l-52 -486h-175l-74 693h155l19 -542h4l56 462h142l50 -461h4l32 541h144z" />
    <glyph glyph-name="X" unicode="X" 
d="M16 693h181l99 -216h4l105 216h176l-186 -318l203 -375h-181l-119 257h-4l-116 -257h-177l196 368z" />
    <glyph glyph-name="Y" unicode="Y" 
d="M383 260v-260h-166v259l-226 434h182l128 -292h4l129 292h175z" />
    <glyph glyph-name="Z" unicode="Z" 
d="M237 132h322l-17 -132h-501v124l323 441h-292v128h481v-125z" />
    <glyph glyph-name="bracketleft" unicode="[" 
d="M155 -123v946h290v-119h-139v-709h139v-118h-290z" />
    <glyph glyph-name="backslash" unicode="\" 
d="M28 760l125 57l419 -872l-125 -57z" />
    <glyph glyph-name="bracketright" unicode="]" 
d="M445 823v-946h-290v119h139v708h-139v119h290z" />
    <glyph glyph-name="asciicircum" unicode="^" 
d="M373 844l189 -317h-156l-107 198l-103 -198h-158l189 317h146z" />
    <glyph glyph-name="underscore" unicode="_" 
d="M28 -186v125h544v-125h-544z" />
    <glyph glyph-name="grave" unicode="`" 
d="M395 639l-238 102l70 119l216 -140z" />
    <glyph glyph-name="a" unicode="a" 
d="M518 154q0 -30 8 -43.5t27 -20.5l-33 -105q-48 5 -80 21t-51 49q-31 -37 -79 -54.5t-96 -17.5q-41 0 -74.5 12.5t-57 34.5t-36.5 52.5t-13 67.5q0 87 68 134t192 47h71v19q0 41 -27.5 61t-78.5 20q-24 0 -64 -7t-80 -21l-37 106q52 20 107.5 30t97.5 10q122 0 179 -47
t57 -141v-207zM269 97q26 0 53.5 15t41.5 43v85h-38q-66 0 -96.5 -20t-30.5 -59q0 -30 19.5 -47t50.5 -17z" />
    <glyph glyph-name="b" unicode="b" 
d="M229 477q25 33 60.5 52.5t74.5 19.5q52 0 89 -19.5t61 -56.5t35.5 -89t11.5 -117q0 -62 -14 -114t-41 -89.5t-66.5 -59t-91.5 -21.5q-40 0 -74 16.5t-57 48.5l-6 -48h-142v742l160 17v-282zM305 99q42 0 66.5 38t24.5 128q0 49 -6 81.5t-17 51t-26 26t-34 7.5
q-26 0 -46.5 -16t-37.5 -45v-223q15 -23 33 -35.5t43 -12.5z" />
    <glyph glyph-name="c" unicode="c" 
d="M351 109q27 0 56 9.5t57 30.5l72 -102q-38 -30 -88 -47t-109 -17q-65 0 -116 20t-86.5 57t-54.5 88.5t-19 113.5t19.5 114.5t55.5 91t87.5 60t115.5 21.5q61 0 109 -17.5t86 -49.5l-69 -96q-27 21 -57.5 30.5t-58.5 9.5q-27 0 -49 -9t-37.5 -28.5t-24.5 -50.5t-9 -76
q0 -44 9.5 -73.5t25.5 -47t38 -25t47 -7.5z" />
    <glyph glyph-name="d" unicode="d" 
d="M251 549q71 0 120 -49v259l160 -17v-742h-142l-8 58q-22 -31 -58 -53t-89 -22q-50 0 -86.5 20.5t-60.5 57.5t-36 89.5t-12 116.5q0 61 14.5 113t42 89.5t67 58.5t88.5 21zM294 432q-41 0 -65.5 -38.5t-24.5 -127.5q0 -49 6 -81t17 -51t26 -26.5t33 -7.5q26 0 47 16t38 45
v228q-17 20 -35 31.5t-42 11.5z" />
    <glyph glyph-name="e" unicode="e" 
d="M208 219q8 -65 42 -92.5t85 -27.5q34 0 66.5 11t66.5 37l67 -91q-39 -31 -93 -52t-119 -21q-69 0 -121.5 21t-87 58.5t-52 89t-17.5 113.5q0 59 17 110.5t50 90t81 61t110 22.5q57 0 103.5 -18.5t79.5 -53.5t51 -86t18 -115q0 -14 -0.5 -29.5t-2.5 -27.5h-344zM304 442
q-42 0 -67.5 -30.5t-30.5 -96.5h193q-1 57 -22.5 92t-72.5 35z" />
    <glyph glyph-name="f" unicode="f" 
d="M398 759q59 0 103.5 -9.5t79.5 -24.5l-44 -104q-28 11 -56.5 15.5t-57.5 4.5q-47 0 -67 -17t-20 -56v-70h163l-18 -111h-145v-387h-159v387h-111v111h111v76q0 39 14 73t42 59t69.5 39t95.5 14z" />
    <glyph glyph-name="g" unicode="g" 
d="M174 -35q-3 -8 -5 -16t-2 -16q0 -22 26.5 -35t90.5 -13q39 0 63 4t37.5 11t18.5 16t5 20q0 12 -5 20.5t-18.5 15t-37 11t-59.5 6.5q-61 4 -101 13t-63.5 23.5t-33 34.5t-9.5 46t15.5 49.5t42.5 41.5q-42 25 -67.5 63.5t-25.5 92.5q0 44 16 80t47 62t75 40t100 14
q87 0 149 20.5t109 48.5l39 -119q-29 -12 -68 -16t-85 -4v-4q45 -19 70 -51t25 -83q0 -38 -16 -70.5t-45.5 -56t-72 -37t-94.5 -13.5q-16 0 -32.5 1.5t-33.5 5.5q-12 -12 -12 -24q0 -9 4 -15t19 -10.5t44.5 -8t79.5 -6.5q101 -7 153 -49t52 -111q0 -42 -20 -73.5t-56.5 -53
t-89 -32t-118.5 -10.5q-72 0 -121.5 10.5t-81 29t-45.5 43t-14 52.5q0 23 5.5 42.5t22.5 39.5zM207 356q0 -42 23 -64.5t61 -22.5q37 0 58 22.5t21 66.5q0 83 -79 83q-38 0 -61 -22.5t-23 -62.5z" />
    <glyph glyph-name="h" unicode="h" 
d="M69 0v742l160 16v-281q33 35 72 53.5t84 18.5q71 0 108.5 -41.5t37.5 -117.5v-390h-160v371q0 33 -13.5 46.5t-36.5 13.5q-25 0 -47 -17t-45 -47v-367h-160z" />
    <glyph glyph-name="i" unicode="i" 
d="M530 0h-445v109h150v313h-145v109h305v-422h135v-109zM315 630q-41 0 -68 26t-27 64t27 64t68 26t68 -26t27 -64t-27 -64t-68 -26z" />
    <glyph glyph-name="j" unicode="j" 
d="M69 -104q42 15 77.5 32t61.5 39t40.5 51t14.5 68v336h-170v109h330v-402q0 -78 -20.5 -133t-59.5 -95.5t-95 -69.5t-126 -53zM333 630q-41 0 -68 26t-27 64t27 64t68 26t68 -26t27 -64t-27 -64t-68 -26z" />
    <glyph glyph-name="k" unicode="k" 
d="M235 291l173 240h167l-173 -235l187 -296h-182zM69 0v742l160 17v-759h-160z" />
    <glyph glyph-name="l" unicode="l" 
d="M343 167q0 -32 18 -45t50 -13q20 0 39 4.5t36 11.5l38 -107q-27 -14 -65 -24.5t-89 -10.5q-98 0 -142.5 55.5t-44.5 149.5v445h-156v109h316v-575z" />
    <glyph glyph-name="m" unicode="m" 
d="M26 0v531h117l11 -51q25 34 50.5 51.5t60.5 17.5q30 0 51 -15t30 -48q24 28 53 45.5t64 17.5q57 0 84 -37t27 -119v-393h-137v375q0 27 -5 38.5t-20 11.5q-13 0 -26 -7t-29 -27v-391h-112v375q0 27 -4.5 38.5t-19.5 11.5q-14 0 -27.5 -8.5t-28.5 -28.5v-388h-139z" />
    <glyph glyph-name="n" unicode="n" 
d="M69 0v531h140l11 -61q70 79 165 79q71 0 108.5 -41.5t37.5 -117.5v-390h-160v345q0 48 -10.5 67t-39.5 19q-25 0 -47 -17t-45 -47v-367h-160z" />
    <glyph glyph-name="o" unicode="o" 
d="M300 549q61 0 109.5 -20t81.5 -57t50.5 -89t17.5 -116q0 -134 -68 -209t-191 -75t-191 74t-68 209q0 63 17.5 115.5t51 89.5t81.5 57.5t109 20.5zM300 431q-48 0 -71 -39t-23 -126q0 -88 23 -127t71 -39t71 39t23 128q0 86 -23 125t-71 39z" />
    <glyph glyph-name="p" unicode="p" 
d="M355 -17q-78 0 -126 55v-243l-160 -17v753h142l7 -59q32 42 70.5 59.5t76.5 17.5q52 0 88.5 -19.5t60 -56.5t34.5 -89t11 -117q0 -62 -13.5 -114t-40 -89.5t-64.5 -59t-86 -21.5zM305 100q42 0 65.5 38t23.5 127q0 49 -5.5 81.5t-16 51t-25.5 26t-34 7.5q-26 0 -46.5 -16
t-37.5 -45v-223q17 -24 34 -35.5t42 -11.5z" />
    <glyph glyph-name="q" unicode="q" 
d="M296 432q-43 0 -66.5 -38t-23.5 -128q0 -49 5.5 -81t16 -50.5t25.5 -26t35 -7.5q26 0 46 15.5t37 44.5v228q-16 20 -33.5 31.5t-41.5 11.5zM371 44q-23 -27 -57 -44t-79 -17q-52 0 -88.5 20t-60 57.5t-34.5 89.5t-11 117q0 61 14 113t41.5 89.5t67 58.5t90.5 21
q39 0 72.5 -15.5t57.5 -44.5l7 42h140v-753l-160 17v249z" />
    <glyph glyph-name="r" unicode="r" 
d="M479 0h-405v109h110v313h-110v109h252l13 -99q18 54 57.5 84.5t88.5 30.5q20 0 34.5 -2t31.5 -7l-26 -155q-15 5 -29.5 6.5t-31.5 1.5q-50 0 -78.5 -35t-41.5 -89v-158h135v-109z" />
    <glyph glyph-name="s" unicode="s" 
d="M278 97q39 0 63 12t24 37q0 13 -5 22.5t-18.5 17.5t-38 16t-64.5 19q-36 10 -66.5 23.5t-52 33t-33.5 46t-12 61.5t15 65t44.5 52t73 34.5t100.5 12.5q68 0 122 -17.5t87 -42.5l-64 -94q-29 19 -66.5 29.5t-75.5 10.5q-75 0 -75 -40q0 -10 5 -17.5t18.5 -15t38 -16
t63.5 -19.5t70 -24t53.5 -32t34.5 -46t12 -66q0 -44 -20.5 -77t-55 -55t-80 -33t-96.5 -11q-78 0 -136.5 21t-100.5 57l80 88q31 -24 70 -38t86 -14z" />
    <glyph glyph-name="t" unicode="t" 
d="M554 31q-32 -20 -77.5 -34t-97.5 -14q-105 0 -155.5 53.5t-50.5 145.5v239h-111v110h111v115l160 19v-134h171l-16 -110h-155v-239q0 -40 18 -56.5t57 -16.5q28 0 51 6.5t42 17.5z" />
    <glyph glyph-name="u" unicode="u" 
d="M229 531v-363q0 -38 14 -52.5t39 -14.5q24 0 48 15.5t41 41.5v373h160v-531h-140l-7 62q-27 -39 -71 -59t-92 -20q-78 0 -115 44.5t-37 120.5v383h160z" />
    <glyph glyph-name="v" unicode="v" 
d="M28 531h173l100 -402h4l105 402h162l-177 -531h-188z" />
    <glyph glyph-name="w" unicode="w" 
d="M522 0h-176l-43 338h-4l-45 -338h-173l-78 531h146l31 -414h4l54 347h134l47 -345h4l33 412h141z" />
    <glyph glyph-name="x" unicode="x" 
d="M292 194l-98 -194h-173l182 279l-165 252h179l82 -165h4l79 165h170l-156 -246l183 -285h-181l-102 194h-4z" />
    <glyph glyph-name="y" unicode="y" 
d="M27 531h169l100 -421h4l109 421h164l-177 -531q-35 -107 -106 -161.5t-193 -61.5l-18 113q39 5 66.5 13t47 21t33 31.5t24.5 44.5h-55z" />
    <glyph glyph-name="z" unicode="z" 
d="M260 121h265l-15 -121h-439v113l263 298h-241v120h427v-112z" />
    <glyph glyph-name="braceleft" unicode="{" 
d="M242 348q34 -5 59.5 -16t42 -30.5t25 -49t8.5 -72.5v-146q0 -38 22.5 -50.5t67.5 -12.5v-111q-70 0 -116 10t-73.5 32t-39 57t-11.5 86v142q0 57 -23 77.5t-71 20.5v130q48 0 71 20.5t23 77.5v141q0 51 11.5 86.5t39 57.5t73.5 32t116 10v-111q-46 0 -68 -12.5t-22 -50.5
v-146q0 -42 -8.5 -72t-25 -49.5t-42 -30.5t-59.5 -16v-4z" />
    <glyph glyph-name="bar" unicode="|" 
d="M225 810h149v-915h-149v915z" />
    <glyph glyph-name="braceright" unicode="}" 
d="M358 352q-34 5 -59.5 16t-42 30.5t-25 49.5t-8.5 72v146q0 38 -22 50.5t-68 12.5v111q70 0 116 -10t73.5 -32t39 -57.5t11.5 -86.5v-141q0 -57 23 -77.5t71 -20.5v-130q-48 0 -71 -20.5t-23 -77.5v-142q0 -51 -11.5 -86t-39 -57t-73.5 -32t-116 -10v111q45 0 67.5 12.5
t22.5 50.5v146q0 43 8.5 72.5t25 49t42 30.5t59.5 16v4z" />
    <glyph glyph-name="asciitilde" unicode="~" 
d="M397 210q-36 0 -63 15.5t-49.5 34.5t-43 34.5t-42.5 15.5q-29 0 -49 -21t-40 -57l-89 40q15 31 33 60t39.5 51t48.5 35t61 13q37 0 64 -15.5t49.5 -34.5t42 -34.5t42.5 -15.5q29 0 49 20t40 58l89 -40q-16 -35 -34 -64.5t-40 -50.5t-48.5 -32.5t-59.5 -11.5z" />
    <glyph glyph-name="uni00A0" unicode="&#xa0;" 
 />
    <glyph glyph-name="exclamdown" unicode="&#xa1;" 
d="M364 239l22 -444h-171l21 444h128zM391 420q0 -18 -7 -34.5t-19.5 -29t-29 -19.5t-35.5 -7q-38 0 -64.5 26.5t-26.5 63.5q0 38 26.5 65t64.5 27q19 0 35.5 -7.5t29 -20t19.5 -29t7 -35.5z" />
    <glyph glyph-name="cent" unicode="&#xa2;" 
d="M351 109q26 0 48 9t51 30l72 -102q-58 -46 -129 -58v-149h-115v152q-97 19 -148.5 91t-51.5 180q0 109 52.5 184t148.5 95v151h114v-149q72 -12 129 -60l-69 -96q-27 22 -51 30.5t-50 8.5q-51 0 -79 -37.5t-28 -126.5q0 -44 7.5 -73.5t21.5 -47t33.5 -25t43.5 -7.5z" />
    <glyph glyph-name="sterling" unicode="&#xa3;" 
d="M124 402v100q0 45 15 83.5t44 66t71.5 43.5t98.5 16q134 0 206 -102l-98 -71q-20 29 -42.5 41t-52.5 12q-40 0 -62 -22t-22 -71v-96h182v-83h-182v-75q0 -38 -12 -69t-47 -50v-4h320l-19 -121h-483v115q28 9 45 20.5t25 27.5t10.5 37t2.5 49v70h-73v83h73z" />
    <glyph glyph-name="currency" unicode="&#xa4;" 
d="M183 531q48 29 118 29q32 0 61.5 -7t55.5 -22l80 80l71 -71l-78 -79q15 -25 23.5 -54.5t8.5 -64.5t-9 -65.5t-24 -54.5l79 -79l-71 -70l-80 78q-25 -14 -55 -21t-62 -7q-33 0 -63 7t-56 21l-80 -80l-71 71l80 81q-31 50 -31 119t30 119l-79 80l71 71zM301 231q48 0 72 29
t24 82q0 52 -24 81t-72 29q-49 0 -73.5 -29t-24.5 -81q0 -53 24.5 -82t73.5 -29z" />
    <glyph glyph-name="yen" unicode="&#xa5;" 
d="M416 352h99v-82h-134v-68h134v-83h-134v-119h-160v119h-132v83h132v68h-132v82h96l-178 341h170l125 -284h4l122 284h165z" />
    <glyph glyph-name="brokenbar" unicode="&#xa6;" 
d="M225 810h149v-364h-149v364zM225 259h149v-364h-149v364z" />
    <glyph glyph-name="section" unicode="&#xa7;" 
d="M523 321q0 -44 -23 -76t-56 -53q27 -21 41.5 -49t14.5 -65q0 -36 -15.5 -65.5t-45 -51t-70.5 -33.5t-92 -12q-60 0 -108.5 15t-85.5 41l54 98q32 -20 64.5 -31.5t67.5 -11.5q37 0 57.5 13t20.5 33q0 12 -3.5 21t-16 18t-36 18.5t-63.5 21.5q-36 11 -64 24.5t-47.5 31.5
t-29.5 42.5t-10 56.5q0 43 24 74.5t58 52.5q-58 46 -58 114q0 35 15.5 65t44 51.5t68.5 34t90 12.5q55 0 104.5 -15t88.5 -41l-56 -93q-61 38 -130 38q-35 0 -53 -13t-18 -33q0 -12 4 -21t16 -17.5t35 -17.5t61 -21q36 -11 64 -24.5t47.5 -32t30 -42.5t10.5 -57zM383 300
q0 15 -5.5 26t-21.5 21t-43.5 20.5t-70.5 25.5q-14 -16 -19.5 -32.5t-5.5 -30.5q0 -16 5.5 -27.5t21 -21.5t43 -20.5t70.5 -25.5q26 34 26 65z" />
    <glyph glyph-name="dieresis" unicode="&#xa8;" 
d="M183 644q-34 0 -58 23.5t-24 58.5q0 34 24 57t58 23q35 0 59 -23t24 -57q0 -35 -24 -58.5t-59 -23.5zM416 644q-35 0 -59 23.5t-24 58.5q0 34 24 57t59 23t58.5 -23t23.5 -57q0 -35 -23.5 -58.5t-58.5 -23.5z" />
    <glyph glyph-name="copyright" unicode="&#xa9;" 
d="M321 316q20 0 36 8t29 19l45 -66q-23 -22 -52.5 -36t-67.5 -14q-79 0 -124.5 51t-45.5 147q0 46 12.5 82.5t35 62t53.5 39t68 13.5t64.5 -11.5t51.5 -36.5l-49 -61q-14 11 -26.5 16.5t-29.5 5.5q-29 0 -47.5 -25t-18.5 -85t18 -84.5t48 -24.5zM301 161q54 0 93 20.5
t64.5 56.5t38 84t12.5 102q0 55 -12 103t-37.5 84t-65 57t-93.5 21t-93.5 -21t-65 -57t-38 -84t-12.5 -103q0 -54 12.5 -102t38 -84t65 -56.5t93.5 -20.5zM301 91q-72 0 -126.5 26t-91.5 71t-56 105.5t-19 130.5t20 131t57.5 106.5t92 71.5t123.5 26t123.5 -26t91.5 -71.5
t56.5 -106.5t19.5 -131t-19.5 -130.5t-56.5 -105.5t-91.5 -71t-123.5 -26z" />
    <glyph glyph-name="ordfeminine" unicode="&#xaa;" 
d="M483 443q0 -22 7 -32.5t23 -15.5l-31 -89q-44 5 -70.5 18t-41.5 40q-25 -29 -59.5 -44.5t-74.5 -15.5q-35 0 -63 10t-48 28.5t-31 44t-11 56.5q0 69 56 108t161 39h53v12q0 35 -18.5 46.5t-63.5 11.5q-19 0 -50.5 -5.5t-66.5 -17.5l-33 91q46 16 90.5 23.5t79.5 7.5
q104 0 148 -39.5t44 -113.5v-163zM514 0h-414v109h414v-109zM276 398q22 0 42.5 12.5t34.5 34.5v62h-31q-52 0 -73.5 -14.5t-21.5 -44.5q0 -50 49 -50z" />
    <glyph glyph-name="guillemotleft" unicode="&#xab;" 
d="M313 74l-92 -58l-170 220v101l170 220l92 -58l-115 -212zM549 74l-92 -58l-171 220v101l171 220l92 -58l-115 -212z" />
    <glyph glyph-name="logicalnot" unicode="&#xac;" 
d="M518 103h-132v154h-304v123h436v-277z" />
    <glyph glyph-name="uni00AD" unicode="&#xad;" 
d="M135 251v124h330v-124h-330z" />
    <glyph glyph-name="registered" unicode="&#xae;" 
d="M301 211q-59 0 -110 21t-88 57.5t-58 86.5t-21 108t21 108.5t58 87.5t88 58t110 21q58 0 108.5 -21t87 -58t57.5 -87.5t21 -108.5t-21 -108t-57.5 -86.5t-87 -57.5t-108.5 -21zM301 279q43 0 79 15.5t62 43t40.5 65t14.5 81.5t-14.5 82t-40.5 66t-62 44t-79 16t-79.5 -16
t-63 -44t-41.5 -66t-15 -82t15 -81.5t41.5 -65t63 -43t79.5 -15.5zM414 547q0 -29 -16 -48.5t-42 -29.5l77 -118h-83l-62 103h-23v-103h-72v284h87q134 0 134 -88zM340 549q0 32 -53 32h-22v-69h23q52 0 52 37z" />
    <glyph glyph-name="macron" unicode="&#xaf;" 
d="M453 671h-307v111h307v-111z" />
    <glyph glyph-name="degree" unicode="&#xb0;" 
d="M250 512q32 0 50.5 21.5t18.5 56.5t-18.5 56t-50.5 21t-50.5 -21t-18.5 -56t18.5 -56.5t50.5 -21.5zM250 419q-33 0 -65 11.5t-57.5 33.5t-41 54t-15.5 72t15.5 71.5t41 53t57.5 33t65 11.5t65 -11.5t57.5 -33t41 -53t15.5 -71.5t-15.5 -72t-41 -54t-57.5 -33.5
t-65 -11.5z" />
    <glyph glyph-name="plusminus" unicode="&#xb1;" 
d="M367 392h151v-121h-151v-101h-134v101h-151v121h151v157h134v-157zM82 0v121h436v-121h-436z" />
    <glyph glyph-name="twosuperior" unicode="&#xb2;" 
d="M443 625q0 -21 -6.5 -39t-23 -34.5t-44 -32.5t-68.5 -34h154l-13 -83h-285v74q54 30 87 50t50.5 35t23 26.5t5.5 23.5q0 15 -10.5 25t-29.5 10t-34.5 -7.5t-32.5 -27.5l-71 52q60 66 156 66q70 0 106 -31t36 -73z" />
    <glyph glyph-name="threesuperior" unicode="&#xb3;" 
d="M150 678q64 51 156 51q68 0 104 -25t36 -64q0 -29 -16.5 -45.5t-46.5 -22.5v-4q37 -5 57.5 -22.5t20.5 -50.5q0 -46 -44.5 -72.5t-120.5 -26.5q-42 0 -84.5 12.5t-72.5 42.5l65 55q23 -17 43.5 -23.5t44.5 -6.5q50 0 50 31q0 15 -10.5 23t-38.5 8h-53l13 59h40
q37 0 37 26t-38 26q-22 0 -41 -6t-44 -22z" />
    <glyph glyph-name="acute" unicode="&#xb4;" 
d="M157 720l216 139l70 -118l-238 -102z" />
    <glyph glyph-name="mu" unicode="&#xb5;" 
d="M525 531v-342q0 -51 3.5 -98t8.5 -91l-144 -14q-4 14 -7.5 34t-5.5 43q-22 -35 -50.5 -56.5t-63.5 -21.5q-26 0 -44.5 10t-34.5 30l-4 -2q16 -29 25 -59.5t9 -80.5v-88l-151 -16v752h159v-302q0 -32 1.5 -55.5t6.5 -39t16 -23.5t30 -8q26 0 47.5 15t38.5 41v372h160z" />
    <glyph glyph-name="paragraph" unicode="&#xb6;" 
d="M448 -221v806h-82v-795l-134 -11v485q-107 10 -160.5 65.5t-53.5 148.5q0 47 16 86.5t47.5 68t78.5 44.5t110 16h312v-903z" />
    <glyph glyph-name="periodcentered" unicode="&#xb7;" 
d="M188 342q0 23 9 43.5t24 35.5t35.5 24t43.5 9t43.5 -9t35.5 -24t24 -35.5t9 -43.5t-9 -43.5t-24 -35.5t-35.5 -24t-43.5 -9t-43.5 9t-35.5 24t-24 35.5t-9 43.5z" />
    <glyph glyph-name="cedilla" unicode="&#xb8;" 
d="M318 -145q0 20 -22.5 26.5t-68.5 6.5l14 128h88v-64q54 -6 79.5 -32t25.5 -67q0 -51 -40.5 -83.5t-109.5 -32.5q-36 0 -67.5 9.5t-51.5 21.5l38 73q15 -8 31 -12.5t33 -4.5q24 0 37.5 7t13.5 24z" />
    <glyph glyph-name="onesuperior" unicode="&#xb9;" 
d="M308 402v210l-78 -40l-53 72l148 79h97v-321h-114z" />
    <glyph glyph-name="ordmasculine" unicode="&#xba;" 
d="M300 759q52 0 93 -17t69.5 -47.5t44 -72t15.5 -90.5q0 -51 -15.5 -93t-44 -72t-69.5 -46.5t-93 -16.5t-93.5 16.5t-70 46.5t-43.5 72t-15 93q0 48 15.5 89.5t44 72t69.5 48t93 17.5zM300 660q-38 0 -60 -29.5t-22 -98.5q0 -70 22 -99t60 -29t60 29t22 99q0 69 -22 98.5
t-60 29.5zM507 0h-414v109h414v-109z" />
    <glyph glyph-name="guillemotright" unicode="&#xbb;" 
d="M401 287l-115 212l92 58l171 -220v-101l-171 -220l-92 58zM166 287l-115 212l92 58l170 -220v-101l-170 -220l-92 58z" />
    <glyph glyph-name="onequarter" unicode="&#xbc;" 
d="M47 175l-42 76l535 256l41 -76zM111 378v210l-78 -40l-53 72l148 79h97v-321h-114zM559 56v-56h-105v56h-181v66l120 208l96 -32l-98 -167h65l15 79h88v-79h43v-75h-43z" />
    <glyph glyph-name="onehalf" unicode="&#xbd;" 
d="M42 175l-42 76l535 256l41 -76zM111 378v210l-78 -40l-53 72l148 79h97v-321h-114zM609 223q0 -21 -6.5 -39t-23 -34.5t-44 -32.5t-68.5 -34h154l-13 -83h-285v74q54 30 87 50t50.5 35t23 26.5t5.5 23.5q0 15 -10.5 25t-29.5 10t-34.5 -7.5t-32.5 -27.5l-71 52
q60 66 156 66q70 0 106 -31t36 -73z" />
    <glyph glyph-name="threequarters" unicode="&#xbe;" 
d="M54 175l-42 76l535 256l41 -76zM578 56v-56h-105v56h-181v66l120 208l96 -32l-98 -167h65l15 79h88v-79h43v-75h-43zM-10 654q64 51 156 51q68 0 104 -25t36 -64q0 -29 -16.5 -45.5t-46.5 -22.5v-4q37 -5 57.5 -22.5t20.5 -50.5q0 -46 -44.5 -72.5t-120.5 -26.5
q-42 0 -84.5 12.5t-72.5 42.5l65 55q23 -17 43.5 -23.5t44.5 -6.5q50 0 50 31q0 15 -10.5 23t-38.5 8h-53l13 59h40q37 0 37 26t-38 26q-22 0 -41 -6t-44 -22z" />
    <glyph glyph-name="questiondown" unicode="&#xbf;" 
d="M408 420q0 -37 -26.5 -63.5t-64.5 -26.5q-19 0 -35.5 7t-29 19.5t-19.5 29t-7 34.5q0 19 7 35.5t19.5 29t29 20t35.5 7.5q38 0 64.5 -27t26.5 -65zM532 -114q-43 -51 -102.5 -79.5t-139.5 -28.5q-57 0 -100 13.5t-72 37t-43.5 54t-14.5 63.5q0 40 14 67.5t34.5 48
t44.5 36t44.5 32t34.5 37.5t14 52v20h145v-32q0 -43 -12 -72t-30.5 -49.5t-39.5 -35t-39.5 -28t-30.5 -28t-12 -34.5q0 -27 22 -41.5t57 -14.5q70 0 124 60z" />
    <glyph glyph-name="Agrave" unicode="&#xc0;" 
d="M399 149h-201l-36 -149h-174l212 693h201l212 -693h-178zM224 269h148l-71 293h-5zM391 751l-239 101l70 119l216 -139z" />
    <glyph glyph-name="Aacute" unicode="&#xc1;" 
d="M399 149h-201l-36 -149h-174l212 693h201l212 -693h-178zM224 269h148l-71 293h-5zM157 833l216 139l70 -119l-238 -101z" />
    <glyph glyph-name="Acircumflex" unicode="&#xc2;" 
d="M399 149h-201l-36 -149h-174l212 693h201l212 -693h-178zM224 269h148l-71 293h-5zM167 748l-58 66l142 130h98l141 -130l-57 -66l-133 84z" />
    <glyph glyph-name="Atilde" unicode="&#xc3;" 
d="M399 149h-201l-36 -149h-174l212 693h201l212 -693h-178zM224 269h148l-71 293h-5zM356 774q-24 0 -40 6.5t-28.5 14.5t-22.5 14.5t-22 6.5q-17 0 -28 -10.5t-23 -31.5l-80 38q9 24 21.5 45t29 37t36.5 25.5t44 9.5t40.5 -6.5t28.5 -14.5t22 -14.5t22 -6.5q18 0 29 10.5
t23 31.5l80 -38q-18 -48 -51 -82.5t-81 -34.5z" />
    <glyph glyph-name="Adieresis" unicode="&#xc4;" 
d="M399 149h-201l-36 -149h-174l212 693h201l212 -693h-178zM224 269h148l-71 293h-5zM184 756q-35 0 -59 23.5t-24 58.5q0 33 24 56.5t59 23.5t59 -23.5t24 -56.5q0 -35 -24 -58.5t-59 -23.5zM416 756q-35 0 -59 23.5t-24 58.5q0 33 24 56.5t59 23.5t59 -23.5t24 -56.5
q0 -35 -24 -58.5t-59 -23.5z" />
    <glyph glyph-name="Aring" unicode="&#xc5;" 
d="M399 149h-201l-36 -149h-174l212 693h201l212 -693h-178zM224 269h148l-71 293h-5zM299 821q20 0 32.5 12.5t12.5 37.5t-12.5 37t-32.5 12t-32.5 -12t-12.5 -37t12.5 -37.5t32.5 -12.5zM299 738q-32 0 -58 10.5t-44 29t-27.5 42.5t-9.5 51q0 26 9.5 50t27.5 42t44 28.5
t58 10.5q33 0 59 -10.5t44 -28.5t27.5 -42t9.5 -50q0 -27 -9.5 -51t-27.5 -42.5t-44 -29t-59 -10.5z" />
    <glyph glyph-name="AE" unicode="&#xc6;" 
d="M313 152h-139l-27 -152h-159l174 693h403l-17 -112h-181l33 -174h156v-112h-136l35 -183h148v-112h-266zM192 265h104l-48 303h-5z" />
    <glyph glyph-name="Ccedilla" unicode="&#xc7;" 
d="M371 -145q0 20 -22.5 26.5t-68.5 6.5l11 100q-59 9 -106.5 37t-81 73.5t-52 108t-18.5 141.5q0 87 24.5 154.5t68 114t103 70.5t128.5 24q75 0 127.5 -21t96.5 -56l-81 -96q-29 23 -60 36.5t-71 13.5q-36 0 -65.5 -13.5t-51.5 -43t-34 -75t-12 -108.5q0 -62 11.5 -107
t32.5 -74t50 -42.5t65 -13.5q51 0 86 17.5t64 40.5l75 -96q-35 -33 -85.5 -58.5t-121.5 -30.5v-32q53 -6 78.5 -32t25.5 -67q0 -51 -40.5 -83.5t-109.5 -32.5q-36 0 -67 9.5t-51 21.5l37 73q15 -8 31 -12.5t33 -4.5q24 0 37.5 7t13.5 24z" />
    <glyph glyph-name="Egrave" unicode="&#xc8;" 
d="M253 575v-165h240v-116h-240v-175h289v-119h-455v693h455l-17 -118h-272zM410 751l-239 101l70 119l216 -139z" />
    <glyph glyph-name="Eacute" unicode="&#xc9;" 
d="M253 575v-165h240v-116h-240v-175h289v-119h-455v693h455l-17 -118h-272zM180 832l216 139l70 -119l-238 -101z" />
    <glyph glyph-name="Ecircumflex" unicode="&#xca;" 
d="M253 575v-165h240v-116h-240v-175h289v-119h-455v693h455l-17 -118h-272zM184 748l-58 66l142 130h98l141 -130l-57 -66l-133 84z" />
    <glyph glyph-name="Edieresis" unicode="&#xcb;" 
d="M253 575v-165h240v-116h-240v-175h289v-119h-455v693h455l-17 -118h-272zM199 756q-35 0 -59 23.5t-24 58.5q0 33 24 56.5t59 23.5t59 -23.5t24 -56.5q0 -35 -24 -58.5t-59 -23.5zM431 756q-35 0 -59 23.5t-24 58.5q0 33 24 56.5t59 23.5t59 -23.5t24 -56.5
q0 -35 -24 -58.5t-59 -23.5z" />
    <glyph glyph-name="Igrave" unicode="&#xcc;" 
d="M74 693h452v-121h-143v-450h143v-122h-452v122h143v450h-143v121zM392 751l-239 101l70 119l216 -139z" />
    <glyph glyph-name="Iacute" unicode="&#xcd;" 
d="M74 693h452v-121h-143v-450h143v-122h-452v122h143v450h-143v121zM157 832l216 139l70 -119l-238 -101z" />
    <glyph glyph-name="Icircumflex" unicode="&#xce;" 
d="M74 693h452v-121h-143v-450h143v-122h-452v122h143v450h-143v121zM167 748l-58 66l142 130h98l141 -130l-57 -66l-133 84z" />
    <glyph glyph-name="Idieresis" unicode="&#xcf;" 
d="M74 693h452v-121h-143v-450h143v-122h-452v122h143v450h-143v121zM184 756q-35 0 -59 23.5t-24 58.5q0 33 24 56.5t59 23.5t59 -23.5t24 -56.5q0 -35 -24 -58.5t-59 -23.5zM416 756q-35 0 -59 23.5t-24 58.5q0 33 24 56.5t59 23.5t59 -23.5t24 -56.5q0 -35 -24 -58.5
t-59 -23.5z" />
    <glyph glyph-name="Eth" unicode="&#xd0;" 
d="M581 350q0 -106 -27.5 -174t-73.5 -107t-105 -54t-123 -15h-188v303h-55v100h55v290h176q65 0 126.5 -13.5t109 -51t76.5 -104.5t29 -174zM409 350q0 69 -11 112.5t-30 68t-46 33.5t-58 9h-34v-170h119v-100h-119v-183h34q33 0 60 10.5t45.5 36.5t29 70.5t10.5 112.5z
" />
    <glyph glyph-name="Ntilde" unicode="&#xd1;" 
d="M348 0l-177 538h-4q3 -16 7.5 -44.5t8.5 -65t6.5 -80t2.5 -89.5v-259h-141v693h207l171 -539h4q-8 38 -16.5 110t-8.5 166v263h141v-693h-201zM356 774q-24 0 -40 6.5t-28.5 14.5t-22.5 14.5t-22 6.5q-17 0 -28 -10.5t-23 -31.5l-80 38q9 24 21.5 45t29 37t36.5 25.5
t44 9.5t40.5 -6.5t28.5 -14.5t22 -14.5t22 -6.5q18 0 29 10.5t23 31.5l80 -38q-18 -48 -51 -82.5t-81 -34.5z" />
    <glyph glyph-name="Ograve" unicode="&#xd2;" 
d="M578 347q0 -83 -18 -150t-53 -114.5t-87 -73.5t-120 -26t-120 25t-87 72.5t-53 115t-18 151.5q0 82 18 149.5t53 115t87 73.5t120 26t120 -25t87 -72.5t53 -115t18 -151.5zM408 347q0 128 -25 185.5t-83 57.5t-83 -57.5t-25 -185.5t25.5 -185.5t82.5 -57.5q60 0 84 58
t24 185zM391 751l-239 101l70 119l216 -139z" />
    <glyph glyph-name="Oacute" unicode="&#xd3;" 
d="M578 347q0 -83 -18 -150t-53 -114.5t-87 -73.5t-120 -26t-120 25t-87 72.5t-53 115t-18 151.5q0 82 18 149.5t53 115t87 73.5t120 26t120 -25t87 -72.5t53 -115t18 -151.5zM408 347q0 128 -25 185.5t-83 57.5t-83 -57.5t-25 -185.5t25.5 -185.5t82.5 -57.5q60 0 84 58
t24 185zM163 832l216 139l70 -119l-238 -101z" />
    <glyph glyph-name="Ocircumflex" unicode="&#xd4;" 
d="M578 347q0 -83 -18 -150t-53 -114.5t-87 -73.5t-120 -26t-120 25t-87 72.5t-53 115t-18 151.5q0 82 18 149.5t53 115t87 73.5t120 26t120 -25t87 -72.5t53 -115t18 -151.5zM408 347q0 128 -25 185.5t-83 57.5t-83 -57.5t-25 -185.5t25.5 -185.5t82.5 -57.5q60 0 84 58
t24 185zM167 748l-58 66l142 130h98l141 -130l-57 -66l-133 84z" />
    <glyph glyph-name="Otilde" unicode="&#xd5;" 
d="M578 347q0 -83 -18 -150t-53 -114.5t-87 -73.5t-120 -26t-120 25t-87 72.5t-53 115t-18 151.5q0 82 18 149.5t53 115t87 73.5t120 26t120 -25t87 -72.5t53 -115t18 -151.5zM408 347q0 128 -25 185.5t-83 57.5t-83 -57.5t-25 -185.5t25.5 -185.5t82.5 -57.5q60 0 84 58
t24 185zM356 774q-24 0 -40 6.5t-28.5 14.5t-22.5 14.5t-22 6.5q-17 0 -28 -10.5t-23 -31.5l-80 38q9 24 21.5 45t29 37t36.5 25.5t44 9.5t40.5 -6.5t28.5 -14.5t22 -14.5t22 -6.5q18 0 29 10.5t23 31.5l80 -38q-18 -48 -51 -82.5t-81 -34.5z" />
    <glyph glyph-name="Odieresis" unicode="&#xd6;" 
d="M578 347q0 -83 -18 -150t-53 -114.5t-87 -73.5t-120 -26t-120 25t-87 72.5t-53 115t-18 151.5q0 82 18 149.5t53 115t87 73.5t120 26t120 -25t87 -72.5t53 -115t18 -151.5zM408 347q0 128 -25 185.5t-83 57.5t-83 -57.5t-25 -185.5t25.5 -185.5t82.5 -57.5q60 0 84 58
t24 185zM184 756q-35 0 -59 23.5t-24 58.5q0 33 24 56.5t59 23.5t59 -23.5t24 -56.5q0 -35 -24 -58.5t-59 -23.5zM416 756q-35 0 -59 23.5t-24 58.5q0 33 24 56.5t59 23.5t59 -23.5t24 -56.5q0 -35 -24 -58.5t-59 -23.5z" />
    <glyph glyph-name="multiply" unicode="&#xd7;" 
d="M300 217l-115 -117l-88 88l117 115l-117 115l88 88l115 -117l115 117l88 -88l-117 -115l117 -115l-88 -88z" />
    <glyph glyph-name="Oslash" unicode="&#xd8;" 
d="M578 347q0 -83 -18 -150t-53 -114.5t-87 -73.5t-120 -26q-14 0 -26 1t-24 3l-38 -123l-112 33l42 134q-60 44 -90 124t-30 192q0 82 18 149.5t53 115t87 73.5t120 26q14 0 26.5 -1.5t24.5 -3.5l37 122l112 -33l-42 -132q60 -45 90 -125t30 -191zM186 347q0 -60 5.5 -103
t18.5 -69l122 414q-13 4 -32 4q-58 0 -86 -57t-28 -189zM414 347q0 59 -5 100t-19 67l-120 -411q7 -2 14 -2h16q59 0 86.5 57.5t27.5 188.5z" />
    <glyph glyph-name="Ugrave" unicode="&#xd9;" 
d="M300 -17q-65 0 -114 18t-81 51t-48 78.5t-16 101.5v461h167v-398q0 -47 3.5 -82.5t13 -59t27.5 -35.5t48 -12t48 12t27.5 35.5t13 59t3.5 82.5v398h167v-461q0 -53 -16 -98.5t-48.5 -79t-81 -52.5t-113.5 -19zM389 751l-239 101l70 119l216 -139z" />
    <glyph glyph-name="Uacute" unicode="&#xda;" 
d="M300 -17q-65 0 -114 18t-81 51t-48 78.5t-16 101.5v461h167v-398q0 -47 3.5 -82.5t13 -59t27.5 -35.5t48 -12t48 12t27.5 35.5t13 59t3.5 82.5v398h167v-461q0 -53 -16 -98.5t-48.5 -79t-81 -52.5t-113.5 -19zM159 832l216 139l70 -119l-238 -101z" />
    <glyph glyph-name="Ucircumflex" unicode="&#xdb;" 
d="M300 -17q-65 0 -114 18t-81 51t-48 78.5t-16 101.5v461h167v-398q0 -47 3.5 -82.5t13 -59t27.5 -35.5t48 -12t48 12t27.5 35.5t13 59t3.5 82.5v398h167v-461q0 -53 -16 -98.5t-48.5 -79t-81 -52.5t-113.5 -19zM167 748l-58 66l142 130h98l141 -130l-57 -66l-133 84z" />
    <glyph glyph-name="Udieresis" unicode="&#xdc;" 
d="M300 -17q-65 0 -114 18t-81 51t-48 78.5t-16 101.5v461h167v-398q0 -47 3.5 -82.5t13 -59t27.5 -35.5t48 -12t48 12t27.5 35.5t13 59t3.5 82.5v398h167v-461q0 -53 -16 -98.5t-48.5 -79t-81 -52.5t-113.5 -19zM184 756q-35 0 -59 23.5t-24 58.5q0 33 24 56.5t59 23.5
t59 -23.5t24 -56.5q0 -35 -24 -58.5t-59 -23.5zM416 756q-35 0 -59 23.5t-24 58.5q0 33 24 56.5t59 23.5t59 -23.5t24 -56.5q0 -35 -24 -58.5t-59 -23.5z" />
    <glyph glyph-name="Yacute" unicode="&#xdd;" 
d="M383 260v-260h-166v259l-226 434h182l128 -292h4l129 292h175zM159 832l216 139l70 -119l-238 -101z" />
    <glyph glyph-name="Thorn" unicode="&#xde;" 
d="M577 354q0 -122 -73.5 -180t-202.5 -58h-76v-116h-167v693h167v-112h54q142 0 220 -56t78 -171zM404 353q0 58 -30.5 84t-90.5 26h-58v-227h65q54 0 84 26t30 91z" />
    <glyph glyph-name="germandbls" unicode="&#xdf;" 
d="M300 121q30 -15 56 -15q57 0 57 61q0 27 -11 46t-27.5 34.5t-35.5 29.5t-35.5 31.5t-27.5 40t-11 55.5q0 34 11.5 58t25.5 45t25.5 41.5t11.5 47.5q0 25 -14 38t-38 13q-37 0 -52.5 -27t-15.5 -82v-538h-160v531q0 108 58.5 168t173.5 60q49 0 86.5 -12t63.5 -33
t39.5 -49.5t13.5 -61.5q0 -34 -14 -56.5t-31 -40.5t-31 -34.5t-14 -39.5q0 -19 13 -34t32 -29.5t42 -31.5t42 -40t32 -54.5t13 -74.5q0 -44 -15.5 -78.5t-42.5 -58t-64 -36t-80 -12.5q-38 0 -69.5 8.5t-57.5 22.5z" />
    <glyph glyph-name="agrave" unicode="&#xe0;" 
d="M518 154q0 -30 8 -43.5t27 -20.5l-33 -105q-48 5 -80 21t-51 49q-31 -37 -79 -54.5t-96 -17.5q-41 0 -74.5 12.5t-57 34.5t-36.5 52.5t-13 67.5q0 87 68 134t192 47h71v19q0 41 -27.5 61t-78.5 20q-24 0 -64 -7t-80 -21l-37 106q52 20 107.5 30t97.5 10q122 0 179 -47
t57 -141v-207zM269 97q26 0 53.5 15t41.5 43v85h-38q-66 0 -96.5 -20t-30.5 -59q0 -30 19.5 -47t50.5 -17zM394 608l-238 106l70 119l216 -144z" />
    <glyph glyph-name="aacute" unicode="&#xe1;" 
d="M518 154q0 -30 8 -43.5t27 -20.5l-33 -105q-48 5 -80 21t-51 49q-31 -37 -79 -54.5t-96 -17.5q-41 0 -74.5 12.5t-57 34.5t-36.5 52.5t-13 67.5q0 87 68 134t192 47h71v19q0 41 -27.5 61t-78.5 20q-24 0 -64 -7t-80 -21l-37 106q52 20 107.5 30t97.5 10q122 0 179 -47
t57 -141v-207zM269 97q26 0 53.5 15t41.5 43v85h-38q-66 0 -96.5 -20t-30.5 -59q0 -30 19.5 -47t50.5 -17zM161 689l215 144l71 -119l-238 -106z" />
    <glyph glyph-name="acircumflex" unicode="&#xe2;" 
d="M518 154q0 -30 8 -43.5t27 -20.5l-33 -105q-48 5 -80 21t-51 49q-31 -37 -79 -54.5t-96 -17.5q-41 0 -74.5 12.5t-57 34.5t-36.5 52.5t-13 67.5q0 87 68 134t192 47h71v19q0 41 -27.5 61t-78.5 20q-24 0 -64 -7t-80 -21l-37 106q52 20 107.5 30t97.5 10q122 0 179 -47
t57 -141v-207zM269 97q26 0 53.5 15t41.5 43v85h-38q-66 0 -96.5 -20t-30.5 -59q0 -30 19.5 -47t50.5 -17zM169 611l-58 65l142 140h98l141 -140l-57 -65l-133 94z" />
    <glyph glyph-name="atilde" unicode="&#xe3;" 
d="M518 154q0 -30 8 -43.5t27 -20.5l-33 -105q-48 5 -80 21t-51 49q-31 -37 -79 -54.5t-96 -17.5q-41 0 -74.5 12.5t-57 34.5t-36.5 52.5t-13 67.5q0 87 68 134t192 47h71v19q0 41 -27.5 61t-78.5 20q-24 0 -64 -7t-80 -21l-37 106q52 20 107.5 30t97.5 10q122 0 179 -47
t57 -141v-207zM269 97q26 0 53.5 15t41.5 43v85h-38q-66 0 -96.5 -20t-30.5 -59q0 -30 19.5 -47t50.5 -17zM358 632q-24 0 -40 7t-28.5 15.5t-22.5 15.5t-22 7q-17 0 -28 -11t-23 -32l-80 38q9 24 21.5 45t29 37.5t36.5 26t44 9.5t40.5 -7t28.5 -15t22 -15t22 -7q18 0 29 11
t23 32l80 -38q-9 -24 -22 -45.5t-29.5 -38t-36.5 -26t-44 -9.5z" />
    <glyph glyph-name="adieresis" unicode="&#xe4;" 
d="M518 154q0 -30 8 -43.5t27 -20.5l-33 -105q-48 5 -80 21t-51 49q-31 -37 -79 -54.5t-96 -17.5q-41 0 -74.5 12.5t-57 34.5t-36.5 52.5t-13 67.5q0 87 68 134t192 47h71v19q0 41 -27.5 61t-78.5 20q-24 0 -64 -7t-80 -21l-37 106q52 20 107.5 30t97.5 10q122 0 179 -47
t57 -141v-207zM269 97q26 0 53.5 15t41.5 43v85h-38q-66 0 -96.5 -20t-30.5 -59q0 -30 19.5 -47t50.5 -17zM187 637q-35 0 -59 23t-24 58q0 34 24 57t59 23t59 -23t24 -57q0 -35 -24 -58t-59 -23zM419 637q-34 0 -58.5 23t-24.5 58q0 34 24.5 57t58.5 23q35 0 59 -23t24 -57
q0 -35 -24 -58t-59 -23z" />
    <glyph glyph-name="aring" unicode="&#xe5;" 
d="M518 154q0 -30 8 -43.5t27 -20.5l-33 -105q-48 5 -80 21t-51 49q-31 -37 -79 -54.5t-96 -17.5q-41 0 -74.5 12.5t-57 34.5t-36.5 52.5t-13 67.5q0 87 68 134t192 47h71v19q0 41 -27.5 61t-78.5 20q-24 0 -64 -7t-80 -21l-37 106q52 20 107.5 30t97.5 10q122 0 179 -47
t57 -141v-207zM269 97q26 0 53.5 15t41.5 43v85h-38q-66 0 -96.5 -20t-30.5 -59q0 -30 19.5 -47t50.5 -17zM303 684q20 0 32.5 12t12.5 38q0 25 -12.5 37t-32.5 12t-32 -12t-12 -37q0 -26 12 -38t32 -12zM303 601q-32 0 -58 11t-44 29t-27.5 42t-9.5 51t9.5 51t27.5 42
t44 28.5t58 10.5q33 0 59 -10.5t44 -28.5t27.5 -42t9.5 -51t-9.5 -51t-27.5 -42t-44 -29t-59 -11z" />
    <glyph glyph-name="ae" unicode="&#xe6;" 
d="M357 226q7 -71 30.5 -104.5t65.5 -33.5q24 0 44.5 8t42.5 24l60 -80q-29 -25 -67 -41t-89 -16q-56 0 -95 22t-65 62q-14 -21 -28.5 -37t-31 -26.5t-36.5 -15.5t-45 -5q-35 0 -62.5 12.5t-47 35t-29.5 53.5t-10 68q0 85 49.5 130t152.5 45h41v23q0 51 -23 76t-66 25
q-24 0 -43.5 -5.5t-49.5 -19.5l-36 87q39 17 72 26.5t73 9.5q55 0 87 -19t51 -51q18 32 49.5 51t76.5 19q94 0 133 -70t39 -203q0 -26 -3 -50h-240zM422 449q-31 0 -46.5 -29.5t-18.5 -107.5h123q-1 71 -12 104t-46 33zM172 87q21 0 37.5 15.5t31.5 45.5q-2 23 -3 46.5
t-1 46.5h-21q-49 0 -69 -21.5t-20 -60.5q0 -34 11.5 -53t33.5 -19z" />
    <glyph glyph-name="ccedilla" unicode="&#xe7;" 
d="M351 -145q0 20 -23 26.5t-69 6.5l11 102q-100 20 -153.5 92t-53.5 180q0 62 19.5 114.5t55.5 91t87.5 60t115.5 21.5q61 0 109 -17.5t86 -49.5l-69 -96q-27 21 -57.5 30.5t-58.5 9.5q-27 0 -49 -9t-37.5 -28.5t-24.5 -50.5t-9 -76q0 -44 9.5 -73.5t25.5 -47t38 -25
t47 -7.5q27 0 56 9.5t57 30.5l72 -102q-71 -57 -174 -63v-32q53 -6 78.5 -32t25.5 -67q0 -51 -40.5 -83.5t-109.5 -32.5q-36 0 -67 9.5t-51 21.5l38 73q14 -8 30 -12.5t33 -4.5q24 0 38 7t14 24z" />
    <glyph glyph-name="egrave" unicode="&#xe8;" 
d="M208 219q8 -65 42 -92.5t85 -27.5q34 0 66.5 11t66.5 37l67 -91q-39 -31 -93 -52t-119 -21q-69 0 -121.5 21t-87 58.5t-52 89t-17.5 113.5q0 59 17 110.5t50 90t81 61t110 22.5q57 0 103.5 -18.5t79.5 -53.5t51 -86t18 -115q0 -14 -0.5 -29.5t-2.5 -27.5h-344zM304 442
q-42 0 -67.5 -30.5t-30.5 -96.5h193q-1 57 -22.5 92t-72.5 35zM396 608l-238 106l70 119l216 -144z" />
    <glyph glyph-name="eacute" unicode="&#xe9;" 
d="M208 219q8 -65 42 -92.5t85 -27.5q34 0 66.5 11t66.5 37l67 -91q-39 -31 -93 -52t-119 -21q-69 0 -121.5 21t-87 58.5t-52 89t-17.5 113.5q0 59 17 110.5t50 90t81 61t110 22.5q57 0 103.5 -18.5t79.5 -53.5t51 -86t18 -115q0 -14 -0.5 -29.5t-2.5 -27.5h-344zM304 442
q-42 0 -67.5 -30.5t-30.5 -96.5h193q-1 57 -22.5 92t-72.5 35zM164 689l215 144l71 -119l-238 -106z" />
    <glyph glyph-name="ecircumflex" unicode="&#xea;" 
d="M208 219q8 -65 42 -92.5t85 -27.5q34 0 66.5 11t66.5 37l67 -91q-39 -31 -93 -52t-119 -21q-69 0 -121.5 21t-87 58.5t-52 89t-17.5 113.5q0 59 17 110.5t50 90t81 61t110 22.5q57 0 103.5 -18.5t79.5 -53.5t51 -86t18 -115q0 -14 -0.5 -29.5t-2.5 -27.5h-344zM304 442
q-42 0 -67.5 -30.5t-30.5 -96.5h193q-1 57 -22.5 92t-72.5 35zM173 611l-58 65l142 140h98l141 -140l-57 -65l-133 94z" />
    <glyph glyph-name="edieresis" unicode="&#xeb;" 
d="M208 219q8 -65 42 -92.5t85 -27.5q34 0 66.5 11t66.5 37l67 -91q-39 -31 -93 -52t-119 -21q-69 0 -121.5 21t-87 58.5t-52 89t-17.5 113.5q0 59 17 110.5t50 90t81 61t110 22.5q57 0 103.5 -18.5t79.5 -53.5t51 -86t18 -115q0 -14 -0.5 -29.5t-2.5 -27.5h-344zM304 442
q-42 0 -67.5 -30.5t-30.5 -96.5h193q-1 57 -22.5 92t-72.5 35zM189 637q-35 0 -59 23t-24 58q0 34 24 57t59 23t59 -23t24 -57q0 -35 -24 -58t-59 -23zM421 637q-34 0 -58.5 23t-24.5 58q0 34 24.5 57t58.5 23q35 0 59 -23t24 -57q0 -35 -24 -58t-59 -23z" />
    <glyph glyph-name="igrave" unicode="&#xec;" 
d="M395 109h135v-109h-445v109h150v313h-145v109h305v-422zM390 608l-238 106l70 119l216 -144z" />
    <glyph glyph-name="iacute" unicode="&#xed;" 
d="M395 109h135v-109h-445v109h150v313h-145v109h305v-422zM159 689l215 144l71 -119l-238 -106z" />
    <glyph glyph-name="icircumflex" unicode="&#xee;" 
d="M168 611l-58 65l142 140h98l141 -140l-57 -65l-133 94zM395 109h135v-109h-445v109h150v313h-145v109h305v-422z" />
    <glyph glyph-name="idieresis" unicode="&#xef;" 
d="M184 637q-35 0 -59 23t-24 58q0 34 24 57t59 23t59 -23t24 -57q0 -35 -24 -58t-59 -23zM416 637q-34 0 -58.5 23t-24.5 58q0 34 24.5 57t58.5 23q35 0 59 -23t24 -57q0 -35 -24 -58t-59 -23zM395 109h135v-109h-445v109h150v313h-145v109h305v-422z" />
    <glyph glyph-name="eth" unicode="&#xf0;" 
d="M125 571l57 60q-20 7 -42.5 12.5t-47.5 10.5l31 104q83 -12 146 -36l73 76l82 -71l-53 -54q98 -63 142 -162t44 -234q0 -62 -17 -115.5t-50.5 -93t-82.5 -62.5t-113 -23q-54 0 -100.5 17t-81 49t-54 78.5t-19.5 106.5q0 55 17.5 101t46.5 78.5t67.5 50.5t80.5 18
q41 0 74 -12t56 -30l3 1q-15 45 -41.5 79.5t-61.5 60.5l-55 -56zM395 256v37q0 18 -1 35q-39 42 -100 42q-42 0 -67 -32.5t-25 -101.5q0 -73 25.5 -105t69.5 -32q51 0 74.5 38.5t23.5 118.5z" />
    <glyph glyph-name="ntilde" unicode="&#xf1;" 
d="M69 0v531h140l11 -61q70 79 165 79q71 0 108.5 -41.5t37.5 -117.5v-390h-160v345q0 48 -10.5 67t-39.5 19q-25 0 -47 -17t-45 -47v-367h-160zM369 632q-24 0 -40 7t-28.5 15.5t-22.5 15.5t-22 7q-17 0 -28 -11t-23 -32l-80 38q9 24 21.5 45t29 37.5t36.5 26t44 9.5
t40.5 -7t28.5 -15t22 -15t22 -7q18 0 29 11t23 32l80 -38q-9 -24 -22 -45.5t-29.5 -38t-36.5 -26t-44 -9.5z" />
    <glyph glyph-name="ograve" unicode="&#xf2;" 
d="M300 549q61 0 109.5 -20t81.5 -57t50.5 -89t17.5 -116q0 -134 -68 -209t-191 -75t-191 74t-68 209q0 63 17.5 115.5t51 89.5t81.5 57.5t109 20.5zM300 431q-48 0 -71 -39t-23 -126q0 -88 23 -127t71 -39t71 39t23 128q0 86 -23 125t-71 39zM391 608l-238 106l70 119
l216 -144z" />
    <glyph glyph-name="oacute" unicode="&#xf3;" 
d="M300 549q61 0 109.5 -20t81.5 -57t50.5 -89t17.5 -116q0 -134 -68 -209t-191 -75t-191 74t-68 209q0 63 17.5 115.5t51 89.5t81.5 57.5t109 20.5zM300 431q-48 0 -71 -39t-23 -126q0 -88 23 -127t71 -39t71 39t23 128q0 86 -23 125t-71 39zM159 689l215 144l71 -119
l-238 -106z" />
    <glyph glyph-name="ocircumflex" unicode="&#xf4;" 
d="M300 549q61 0 109.5 -20t81.5 -57t50.5 -89t17.5 -116q0 -134 -68 -209t-191 -75t-191 74t-68 209q0 63 17.5 115.5t51 89.5t81.5 57.5t109 20.5zM300 431q-48 0 -71 -39t-23 -126q0 -88 23 -127t71 -39t71 39t23 128q0 86 -23 125t-71 39zM168 611l-58 65l142 140h98
l141 -140l-57 -65l-133 94z" />
    <glyph glyph-name="otilde" unicode="&#xf5;" 
d="M300 549q61 0 109.5 -20t81.5 -57t50.5 -89t17.5 -116q0 -134 -68 -209t-191 -75t-191 74t-68 209q0 63 17.5 115.5t51 89.5t81.5 57.5t109 20.5zM300 431q-48 0 -71 -39t-23 -126q0 -88 23 -127t71 -39t71 39t23 128q0 86 -23 125t-71 39zM357 632q-24 0 -40 7
t-28.5 15.5t-22.5 15.5t-22 7q-17 0 -28 -11t-23 -32l-80 38q9 24 21.5 45t29 37.5t36.5 26t44 9.5t40.5 -7t28.5 -15t22 -15t22 -7q18 0 29 11t23 32l80 -38q-9 -24 -22 -45.5t-29.5 -38t-36.5 -26t-44 -9.5z" />
    <glyph glyph-name="odieresis" unicode="&#xf6;" 
d="M300 549q61 0 109.5 -20t81.5 -57t50.5 -89t17.5 -116q0 -134 -68 -209t-191 -75t-191 74t-68 209q0 63 17.5 115.5t51 89.5t81.5 57.5t109 20.5zM300 431q-48 0 -71 -39t-23 -126q0 -88 23 -127t71 -39t71 39t23 128q0 86 -23 125t-71 39zM184 637q-35 0 -59 23t-24 58
q0 34 24 57t59 23t59 -23t24 -57q0 -35 -24 -58t-59 -23zM416 637q-34 0 -58.5 23t-24.5 58q0 34 24.5 57t58.5 23q35 0 59 -23t24 -57q0 -35 -24 -58t-59 -23z" />
    <glyph glyph-name="divide" unicode="&#xf7;" 
d="M82 257v123h436v-123h-436zM209 104q0 19 7 35.5t19.5 29t29 19.5t35.5 7t35.5 -7t29 -19.5t19.5 -29t7 -35.5t-7 -35.5t-19.5 -29t-29 -19.5t-35.5 -7t-35.5 7t-29 19.5t-19.5 29t-7 35.5zM209 533q0 19 7 35.5t19.5 29t29 19.5t35.5 7t35.5 -7t29 -19.5t19.5 -29
t7 -35.5q0 -18 -7 -34.5t-19.5 -29t-29 -19.5t-35.5 -7t-35.5 7t-29 19.5t-19.5 29t-7 34.5z" />
    <glyph glyph-name="oslash" unicode="&#xf8;" 
d="M300 549q8 0 16.5 -0.5t14.5 -1.5l38 116l116 -34l-39 -120q55 -35 84 -97.5t29 -144.5q0 -66 -17.5 -118.5t-51 -89.5t-81.5 -56.5t-109 -19.5q-8 0 -15.5 0.5t-15.5 1.5l-37 -122l-117 34l40 123q-56 33 -85 95.5t-29 150.5q0 62 17.5 114t51 89.5t81.5 58.5t109 21z
M296 431q-48 0 -70.5 -39t-22.5 -126q0 -89 20 -123l92 287q-5 1 -10 1h-9zM397 267q0 80 -19 115l-90 -281q5 -1 8 -1h8q49 0 71 39t22 128z" />
    <glyph glyph-name="ugrave" unicode="&#xf9;" 
d="M229 531v-363q0 -38 14 -52.5t39 -14.5q24 0 48 15.5t41 41.5v373h160v-531h-140l-7 62q-27 -39 -71 -59t-92 -20q-78 0 -115 44.5t-37 120.5v383h160zM389 608l-238 106l70 119l216 -144z" />
    <glyph glyph-name="uacute" unicode="&#xfa;" 
d="M229 531v-363q0 -38 14 -52.5t39 -14.5q24 0 48 15.5t41 41.5v373h160v-531h-140l-7 62q-27 -39 -71 -59t-92 -20q-78 0 -115 44.5t-37 120.5v383h160zM164 689l215 144l71 -119l-238 -106z" />
    <glyph glyph-name="ucircumflex" unicode="&#xfb;" 
d="M229 531v-363q0 -38 14 -52.5t39 -14.5q24 0 48 15.5t41 41.5v373h160v-531h-140l-7 62q-27 -39 -71 -59t-92 -20q-78 0 -115 44.5t-37 120.5v383h160zM167 611l-58 65l142 140h98l141 -140l-57 -65l-133 94z" />
    <glyph glyph-name="udieresis" unicode="&#xfc;" 
d="M229 531v-363q0 -38 14 -52.5t39 -14.5q24 0 48 15.5t41 41.5v373h160v-531h-140l-7 62q-27 -39 -71 -59t-92 -20q-78 0 -115 44.5t-37 120.5v383h160zM184 637q-35 0 -59 23t-24 58q0 34 24 57t59 23t59 -23t24 -57q0 -35 -24 -58t-59 -23zM416 637q-34 0 -58.5 23
t-24.5 58q0 34 24.5 57t58.5 23q35 0 59 -23t24 -57q0 -35 -24 -58t-59 -23z" />
    <glyph glyph-name="yacute" unicode="&#xfd;" 
d="M27 531h169l100 -421h4l109 421h164l-177 -531q-35 -107 -106 -161.5t-193 -61.5l-18 113q39 5 66.5 13t47 21t33 31.5t24.5 44.5h-55zM167 689l215 144l71 -119l-238 -106z" />
    <glyph glyph-name="thorn" unicode="&#xfe;" 
d="M229 478q32 39 67 55t69 16q52 0 88.5 -19.5t60 -56.5t34.5 -89t11 -117q0 -62 -13.5 -114t-40 -89.5t-64.5 -59t-86 -21.5q-78 0 -126 55v-243l-160 -17v964l160 17v-281zM305 100q42 0 65.5 38t23.5 127q0 49 -5.5 81.5t-16 51t-25.5 26t-34 7.5q-26 0 -46.5 -16
t-37.5 -45v-223q17 -24 34 -35.5t42 -11.5z" />
    <glyph glyph-name="ydieresis" unicode="&#xff;" 
d="M27 531h169l100 -421h4l109 421h164l-177 -531q-35 -107 -106 -161.5t-193 -61.5l-18 113q39 5 66.5 13t47 21t33 31.5t24.5 44.5h-55zM186 637q-35 0 -59 23t-24 58q0 34 24 57t59 23t59 -23t24 -57q0 -35 -24 -58t-59 -23zM418 637q-34 0 -58.5 23t-24.5 58
q0 34 24.5 57t58.5 23q35 0 59 -23t24 -57q0 -35 -24 -58t-59 -23z" />
    <glyph glyph-name="Amacron" unicode="&#x100;" 
d="M399 149h-201l-36 -149h-174l212 693h201l212 -693h-178zM224 269h148l-71 293h-5zM453 783h-306v111h306v-111z" />
    <glyph glyph-name="amacron" unicode="&#x101;" 
d="M518 154q0 -30 8 -43.5t27 -20.5l-33 -105q-48 5 -80 21t-51 49q-31 -37 -79 -54.5t-96 -17.5q-41 0 -74.5 12.5t-57 34.5t-36.5 52.5t-13 67.5q0 87 68 134t192 47h71v19q0 41 -27.5 61t-78.5 20q-24 0 -64 -7t-80 -21l-37 106q52 20 107.5 30t97.5 10q122 0 179 -47
t57 -141v-207zM269 97q26 0 53.5 15t41.5 43v85h-38q-66 0 -96.5 -20t-30.5 -59q0 -30 19.5 -47t50.5 -17zM455 657h-306v111h306v-111z" />
    <glyph glyph-name="Abreve" unicode="&#x102;" 
d="M399 149h-201l-36 -149h-174l212 693h201l212 -693h-178zM224 269h148l-71 293h-5zM300 751q-42 0 -72.5 13.5t-51.5 36.5t-33 53t-16 63l88 16q10 -35 30 -53t55 -18t55 18t30 53l88 -16q-3 -33 -15 -63t-33 -53t-52 -36.5t-73 -13.5z" />
    <glyph glyph-name="abreve" unicode="&#x103;" 
d="M518 154q0 -30 8 -43.5t27 -20.5l-33 -105q-48 5 -80 21t-51 49q-31 -37 -79 -54.5t-96 -17.5q-41 0 -74.5 12.5t-57 34.5t-36.5 52.5t-13 67.5q0 87 68 134t192 47h71v19q0 41 -27.5 61t-78.5 20q-24 0 -64 -7t-80 -21l-37 106q52 20 107.5 30t97.5 10q122 0 179 -47
t57 -141v-207zM269 97q26 0 53.5 15t41.5 43v85h-38q-66 0 -96.5 -20t-30.5 -59q0 -30 19.5 -47t50.5 -17zM302 611q-42 0 -73 15t-52 39.5t-33 56.5t-15 65l88 15q9 -36 29.5 -58.5t55.5 -22.5t55.5 22.5t29.5 58.5l88 -15q-3 -33 -15 -65t-33.5 -56.5t-52.5 -39.5t-72 -15
z" />
    <glyph glyph-name="Aogonek" unicode="&#x104;" 
d="M399 149h-201l-36 -149h-174l213 693h200l212 -693q-28 -16 -46 -32t-28 -31t-14 -29t-4 -27q0 -21 13 -35t39 -14q20 0 37.5 4.5t28.5 9.5l32 -77q-25 -13 -54 -20t-59 -7q-67 0 -106.5 32.5t-39.5 89.5q0 40 27 75t78 61h-82zM225 269h147l-71 293h-5z" />
    <glyph glyph-name="aogonek" unicode="&#x105;" 
d="M518 154q0 -30 8 -43.5t27 -20.5l-33 -105q-22 -12 -35.5 -26t-21.5 -27.5t-11 -26.5t-3 -24q0 -21 12.5 -35t39.5 -14q20 0 37.5 4.5t27.5 9.5l32 -77q-25 -13 -53.5 -20t-59.5 -7q-66 0 -105.5 32.5t-39.5 89.5q0 41 28 76.5t80 60.5q-38 16 -59 54q-31 -37 -79 -54.5
t-96 -17.5q-41 0 -74.5 12.5t-57 34.5t-36.5 52.5t-13 67.5q0 87 68 134t192 47h71v19q0 41 -27.5 61t-78.5 20q-24 0 -64 -7t-80 -21l-37 106q52 20 107.5 30t97.5 10q122 0 179 -47t57 -141v-207zM269 97q26 0 53.5 15t41.5 43v85h-38q-66 0 -96.5 -20t-30.5 -59
q0 -30 19.5 -47t50.5 -17z" />
    <glyph glyph-name="Cacute" unicode="&#x106;" 
d="M500 538q-29 23 -60 36.5t-71 13.5q-36 0 -65.5 -13.5t-51.5 -43t-34 -75t-12 -108.5q0 -62 11.5 -107t32.5 -74t50 -42.5t65 -13.5q51 0 86 17.5t64 40.5l75 -96q-38 -37 -95.5 -63.5t-140.5 -26.5q-72 0 -131 23.5t-101 69.5t-65.5 114.5t-23.5 157.5q0 87 24.5 154.5
t68 114t103 70.5t128.5 24q75 0 127.5 -21t96.5 -56zM206 832l216 139l70 -119l-238 -101z" />
    <glyph glyph-name="cacute" unicode="&#x107;" 
d="M351 109q27 0 56 9.5t57 30.5l72 -102q-38 -30 -88 -47t-109 -17q-65 0 -116 20t-86.5 57t-54.5 88.5t-19 113.5t19.5 114.5t55.5 91t87.5 60t115.5 21.5q61 0 109 -17.5t86 -49.5l-69 -96q-27 21 -57.5 30.5t-58.5 9.5q-27 0 -49 -9t-37.5 -28.5t-24.5 -50.5t-9 -76
q0 -44 9.5 -73.5t25.5 -47t38 -25t47 -7.5zM184 689l215 144l71 -119l-238 -106z" />
    <glyph glyph-name="Ccircumflex" unicode="&#x108;" 
d="M500 538q-29 23 -60 36.5t-71 13.5q-36 0 -65.5 -13.5t-51.5 -43t-34 -75t-12 -108.5q0 -62 11.5 -107t32.5 -74t50 -42.5t65 -13.5q51 0 86 17.5t64 40.5l75 -96q-38 -37 -95.5 -63.5t-140.5 -26.5q-72 0 -131 23.5t-101 69.5t-65.5 114.5t-23.5 157.5q0 87 24.5 154.5
t68 114t103 70.5t128.5 24q75 0 127.5 -21t96.5 -56zM221 748l-58 66l142 130h98l141 -130l-57 -66l-133 84z" />
    <glyph glyph-name="ccircumflex" unicode="&#x109;" 
d="M351 109q27 0 56 9.5t57 30.5l72 -102q-38 -30 -88 -47t-109 -17q-65 0 -116 20t-86.5 57t-54.5 88.5t-19 113.5t19.5 114.5t55.5 91t87.5 60t115.5 21.5q61 0 109 -17.5t86 -49.5l-69 -96q-27 21 -57.5 30.5t-58.5 9.5q-27 0 -49 -9t-37.5 -28.5t-24.5 -50.5t-9 -76
q0 -44 9.5 -73.5t25.5 -47t38 -25t47 -7.5zM200 611l-58 65l142 140h98l141 -140l-57 -65l-133 94z" />
    <glyph glyph-name="Cdotaccent" unicode="&#x10a;" 
d="M500 538q-29 23 -60 36.5t-71 13.5q-36 0 -65.5 -13.5t-51.5 -43t-34 -75t-12 -108.5q0 -62 11.5 -107t32.5 -74t50 -42.5t65 -13.5q51 0 86 17.5t64 40.5l75 -96q-38 -37 -95.5 -63.5t-140.5 -26.5q-72 0 -131 23.5t-101 69.5t-65.5 114.5t-23.5 157.5q0 87 24.5 154.5
t68 114t103 70.5t128.5 24q75 0 127.5 -21t96.5 -56zM353 756q-42 0 -68 26t-26 65q0 38 26 64t68 26t68 -26t26 -64q0 -39 -26 -65t-68 -26z" />
    <glyph glyph-name="cdotaccent" unicode="&#x10b;" 
d="M351 109q27 0 56 9.5t57 30.5l72 -102q-38 -30 -88 -47t-109 -17q-65 0 -116 20t-86.5 57t-54.5 88.5t-19 113.5t19.5 114.5t55.5 91t87.5 60t115.5 21.5q61 0 109 -17.5t86 -49.5l-69 -96q-27 21 -57.5 30.5t-58.5 9.5q-27 0 -49 -9t-37.5 -28.5t-24.5 -50.5t-9 -76
q0 -44 9.5 -73.5t25.5 -47t38 -25t47 -7.5zM335 630q-42 0 -68.5 26t-26.5 64t26.5 64t68.5 26t68 -26t26 -64t-26 -64t-68 -26z" />
    <glyph glyph-name="Ccaron" unicode="&#x10c;" 
d="M500 538q-29 23 -60 36.5t-71 13.5q-36 0 -65.5 -13.5t-51.5 -43t-34 -75t-12 -108.5q0 -62 11.5 -107t32.5 -74t50 -42.5t65 -13.5q51 0 86 17.5t64 40.5l75 -96q-38 -37 -95.5 -63.5t-140.5 -26.5q-72 0 -131 23.5t-101 69.5t-65.5 114.5t-23.5 157.5q0 87 24.5 154.5
t68 114t103 70.5t128.5 24q75 0 127.5 -21t96.5 -56zM354 862l133 85l57 -65l-141 -131h-98l-142 131l58 65z" />
    <glyph glyph-name="ccaron" unicode="&#x10d;" 
d="M351 109q27 0 56 9.5t57 30.5l72 -102q-38 -30 -88 -47t-109 -17q-65 0 -116 20t-86.5 57t-54.5 88.5t-19 113.5t19.5 114.5t55.5 91t87.5 60t115.5 21.5q61 0 109 -17.5t86 -49.5l-69 -96q-27 21 -57.5 30.5t-58.5 9.5q-27 0 -49 -9t-37.5 -28.5t-24.5 -50.5t-9 -76
q0 -44 9.5 -73.5t25.5 -47t38 -25t47 -7.5zM466 816l57 -65l-141 -140h-98l-142 140l58 65l133 -94z" />
    <glyph glyph-name="Dcaron" unicode="&#x10e;" 
d="M403 350q0 69 -11.5 112.5t-32 68t-48 33.5t-60.5 9h-34v-453h34q34 0 62 10.5t48 36.5t31 70.5t11 112.5zM575 350q0 -106 -28 -174t-75 -107t-107.5 -54t-125.5 -15h-188v693h176q67 0 129.5 -13.5t111 -51t78 -104.5t29.5 -174zM268 862l133 85l57 -65l-141 -131h-98
l-142 131l58 65z" />
    <glyph glyph-name="dcaron" unicode="&#x10f;" 
d="M177 549q71 0 120 -49v259l160 -17v-742h-142l-8 58q-22 -31 -58 -53t-89 -22q-50 0 -86.5 20.5t-60.5 57.5t-36 89.5t-12 116.5q0 61 14.5 113t42 89.5t67 58.5t88.5 21zM220 432q-41 0 -65.5 -38.5t-24.5 -127.5q0 -49 6 -81t17 -51t26 -26.5t33 -7.5q26 0 47 16t38 45
v228q-17 20 -35 31.5t-42 11.5zM501 576l27 115q-14 11 -23.5 27t-9.5 38q0 32 22.5 55t57.5 23q34 0 56.5 -22t22.5 -56q0 -18 -6.5 -39t-17.5 -44l-49 -97h-80z" />
    <glyph glyph-name="Dcroat" unicode="&#x110;" 
d="M581 350q0 -106 -27.5 -174t-73.5 -107t-105 -54t-123 -15h-188v303h-55v100h55v290h176q65 0 126.5 -13.5t109 -51t76.5 -104.5t29 -174zM409 350q0 69 -11 112.5t-30 68t-46 33.5t-58 9h-34v-170h119v-100h-119v-183h34q33 0 60 10.5t45.5 36.5t29 70.5t10.5 112.5z
" />
    <glyph glyph-name="dcroat" unicode="&#x111;" 
d="M229 686h121v73l160 -17v-56h80v-93h-80v-593h-142l-8 58q-22 -31 -58 -53t-89 -22q-49 0 -85.5 20.5t-61 57.5t-36.5 89.5t-12 116.5q0 61 14.5 113t42 89.5t67 58.5t88.5 21q71 0 120 -49v93h-121v93zM273 432q-41 0 -65.5 -38.5t-24.5 -127.5q0 -49 6 -81t17 -51
t26 -26.5t33 -7.5q26 0 47 16t38 45v228q-17 20 -35 31.5t-42 11.5z" />
    <glyph glyph-name="Emacron" unicode="&#x112;" 
d="M253 575v-165h240v-116h-240v-175h289v-119h-455v693h455l-17 -118h-272zM469 783h-306v111h306v-111z" />
    <glyph glyph-name="emacron" unicode="&#x113;" 
d="M208 219q8 -65 42 -92.5t85 -27.5q34 0 66.5 11t66.5 37l67 -91q-39 -31 -93 -52t-119 -21q-69 0 -121.5 21t-87 58.5t-52 89t-17.5 113.5q0 59 17 110.5t50 90t81 61t110 22.5q57 0 103.5 -18.5t79.5 -53.5t51 -86t18 -115q0 -14 -0.5 -29.5t-2.5 -27.5h-344zM304 442
q-42 0 -67.5 -30.5t-30.5 -96.5h193q-1 57 -22.5 92t-72.5 35zM458 657h-306v111h306v-111z" />
    <glyph glyph-name="Ebreve" unicode="&#x114;" 
d="M253 575v-165h240v-116h-240v-175h289v-119h-455v693h455l-17 -118h-272zM316 751q-42 0 -72.5 13.5t-51.5 36.5t-33 53t-16 63l88 16q10 -35 30 -53t55 -18t55 18t30 53l88 -16q-3 -33 -15 -63t-33 -53t-52 -36.5t-73 -13.5z" />
    <glyph glyph-name="ebreve" unicode="&#x115;" 
d="M208 219q8 -65 42 -92.5t85 -27.5q34 0 66.5 11t66.5 37l67 -91q-39 -31 -93 -52t-119 -21q-69 0 -121.5 21t-87 58.5t-52 89t-17.5 113.5q0 59 17 110.5t50 90t81 61t110 22.5q57 0 103.5 -18.5t79.5 -53.5t51 -86t18 -115q0 -14 -0.5 -29.5t-2.5 -27.5h-344zM304 442
q-42 0 -67.5 -30.5t-30.5 -96.5h193q-1 57 -22.5 92t-72.5 35zM302 611q-42 0 -73 15t-52 39.5t-33 56.5t-15 65l88 15q9 -36 29.5 -58.5t55.5 -22.5t55.5 22.5t29.5 58.5l88 -15q-3 -33 -15 -65t-33.5 -56.5t-52.5 -39.5t-72 -15z" />
    <glyph glyph-name="Edotaccent" unicode="&#x116;" 
d="M253 575v-165h240v-116h-240v-175h289v-119h-455v693h455l-17 -118h-272zM314 756q-42 0 -68 26t-26 65q0 38 26 64t68 26t68 -26t26 -64q0 -39 -26 -65t-68 -26z" />
    <glyph glyph-name="edotaccent" unicode="&#x117;" 
d="M208 219q8 -65 42 -92.5t85 -27.5q34 0 66.5 11t66.5 37l67 -91q-39 -31 -93 -52t-119 -21q-69 0 -121.5 21t-87 58.5t-52 89t-17.5 113.5q0 59 17 110.5t50 90t81 61t110 22.5q57 0 103.5 -18.5t79.5 -53.5t51 -86t18 -115q0 -14 -0.5 -29.5t-2.5 -27.5h-344zM304 442
q-42 0 -67.5 -30.5t-30.5 -96.5h193q-1 57 -22.5 92t-72.5 35zM307 630q-42 0 -68.5 26t-26.5 64t26.5 64t68.5 26t68 -26t26 -64t-26 -64t-68 -26z" />
    <glyph glyph-name="Eogonek" unicode="&#x118;" 
d="M239 575v-165h240v-116h-240v-175h288v-119q-57 -32 -74.5 -62.5t-17.5 -56.5q0 -21 13 -35t40 -14q19 0 36.5 4.5t28.5 9.5l32 -77q-25 -13 -54 -20t-59 -7q-67 0 -106.5 32.5t-39.5 89.5q0 40 27 75t78 61h-358v693h455l-18 -118h-271z" />
    <glyph glyph-name="eogonek" unicode="&#x119;" 
d="M208 219q8 -65 42 -92.5t85 -27.5q34 0 66.5 11t66.5 37l67 -91q-24 -19 -50 -36t-52 -32q-44 -29 -59 -55.5t-15 -51.5q0 -21 13 -35t40 -14q19 0 36.5 4.5t28.5 9.5l32 -77q-46 -25 -111 -25q-27 0 -53.5 6.5t-47.5 20.5t-34 36t-13 54q0 38 23 70t65 56q-8 -1 -16 -1
h-15q-60 0 -108.5 20t-82.5 57t-52.5 88t-18.5 114q0 59 17 110.5t50 90t81 61t110 22.5q57 0 103.5 -18.5t79.5 -53.5t51 -86t18 -115q0 -14 -0.5 -29.5t-2.5 -27.5h-344zM304 442q-42 0 -67.5 -30.5t-30.5 -96.5h193q-1 57 -22.5 92t-72.5 35z" />
    <glyph glyph-name="Ecaron" unicode="&#x11a;" 
d="M253 575v-165h240v-116h-240v-175h289v-119h-455v693h455l-17 -118h-272zM317 862l133 85l57 -65l-141 -131h-98l-142 131l58 65z" />
    <glyph glyph-name="ecaron" unicode="&#x11b;" 
d="M208 219q8 -65 42 -92.5t85 -27.5q34 0 66.5 11t66.5 37l67 -91q-39 -31 -93 -52t-119 -21q-69 0 -121.5 21t-87 58.5t-52 89t-17.5 113.5q0 59 17 110.5t50 90t81 61t110 22.5q57 0 103.5 -18.5t79.5 -53.5t51 -86t18 -115q0 -14 -0.5 -29.5t-2.5 -27.5h-344zM304 442
q-42 0 -67.5 -30.5t-30.5 -96.5h193q-1 57 -22.5 92t-72.5 35zM439 816l57 -65l-141 -140h-98l-142 140l58 65l133 -94z" />
    <glyph glyph-name="Gcircumflex" unicode="&#x11c;" 
d="M329 -17q-149 0 -226 92.5t-77 272.5q0 88 25.5 156t69 114t102 69.5t125.5 23.5q76 0 128.5 -24t93.5 -62l-87 -90q-32 28 -60.5 41.5t-65.5 13.5q-35 0 -64.5 -13.5t-50.5 -43t-33 -75.5t-12 -111q0 -68 8 -114.5t24.5 -75t42 -41t59.5 -12.5q23 0 45 5.5t40 15.5v157
h-86l-16 116h259v-345q-53 -32 -113.5 -51t-130.5 -19zM203 748l-58 66l142 130h98l141 -130l-57 -66l-133 84z" />
    <glyph glyph-name="gcircumflex" unicode="&#x11d;" 
d="M174 -35q-3 -8 -5 -16t-2 -16q0 -22 26.5 -35t90.5 -13q39 0 63 4t37.5 11t18.5 16t5 20q0 12 -5 20.5t-18.5 15t-37 11t-59.5 6.5q-61 4 -101 13t-63.5 23.5t-33 34.5t-9.5 46t15.5 49.5t42.5 41.5q-42 25 -67.5 63.5t-25.5 92.5q0 44 16 80t47 62t75 40t100 14
q87 0 149 20.5t109 48.5l39 -119q-29 -12 -68 -16t-85 -4v-4q45 -19 70 -51t25 -83q0 -38 -16 -70.5t-45.5 -56t-72 -37t-94.5 -13.5q-16 0 -32.5 1.5t-33.5 5.5q-12 -12 -12 -24q0 -9 4 -15t19 -10.5t44.5 -8t79.5 -6.5q101 -7 153 -49t52 -111q0 -42 -20 -73.5t-56.5 -53
t-89 -32t-118.5 -10.5q-72 0 -121.5 10.5t-81 29t-45.5 43t-14 52.5q0 23 5.5 42.5t22.5 39.5zM207 356q0 -42 23 -64.5t61 -22.5q37 0 58 22.5t21 66.5q0 83 -79 83q-38 0 -61 -22.5t-23 -62.5zM154 617l-58 65l142 140h98l141 -140l-57 -65l-133 94z" />
    <glyph glyph-name="Gbreve" unicode="&#x11e;" 
d="M329 -17q-149 0 -226 92.5t-77 272.5q0 88 25.5 156t69 114t102 69.5t125.5 23.5q76 0 128.5 -24t93.5 -62l-87 -90q-32 28 -60.5 41.5t-65.5 13.5q-35 0 -64.5 -13.5t-50.5 -43t-33 -75.5t-12 -111q0 -68 8 -114.5t24.5 -75t42 -41t59.5 -12.5q23 0 45 5.5t40 15.5v157
h-86l-16 116h259v-345q-53 -32 -113.5 -51t-130.5 -19zM335 751q-42 0 -72.5 13.5t-51.5 36.5t-33 53t-16 63l88 16q10 -35 30 -53t55 -18t55 18t30 53l88 -16q-3 -33 -15 -63t-33 -53t-52 -36.5t-73 -13.5z" />
    <glyph glyph-name="gbreve" unicode="&#x11f;" 
d="M174 -35q-3 -8 -5 -16t-2 -16q0 -22 26.5 -35t90.5 -13q39 0 63 4t37.5 11t18.5 16t5 20q0 12 -5 20.5t-18.5 15t-37 11t-59.5 6.5q-61 4 -101 13t-63.5 23.5t-33 34.5t-9.5 46t15.5 49.5t42.5 41.5q-42 25 -67.5 63.5t-25.5 92.5q0 44 16 80t47 62t75 40t100 14
q87 0 149 20.5t109 48.5l39 -119q-29 -12 -68 -16t-85 -4v-4q45 -19 70 -51t25 -83q0 -38 -16 -70.5t-45.5 -56t-72 -37t-94.5 -13.5q-16 0 -32.5 1.5t-33.5 5.5q-12 -12 -12 -24q0 -9 4 -15t19 -10.5t44.5 -8t79.5 -6.5q101 -7 153 -49t52 -111q0 -42 -20 -73.5t-56.5 -53
t-89 -32t-118.5 -10.5q-72 0 -121.5 10.5t-81 29t-45.5 43t-14 52.5q0 23 5.5 42.5t22.5 39.5zM207 356q0 -42 23 -64.5t61 -22.5q37 0 58 22.5t21 66.5q0 83 -79 83q-38 0 -61 -22.5t-23 -62.5zM293 611q-42 0 -73 15t-52 39.5t-33 56.5t-15 65l88 15q9 -36 29.5 -58.5
t55.5 -22.5t55.5 22.5t29.5 58.5l88 -15q-3 -33 -15 -65t-33.5 -56.5t-52.5 -39.5t-72 -15z" />
    <glyph glyph-name="Gdotaccent" unicode="&#x120;" 
d="M329 -17q-149 0 -226 92.5t-77 272.5q0 88 25.5 156t69 114t102 69.5t125.5 23.5q76 0 128.5 -24t93.5 -62l-87 -90q-32 28 -60.5 41.5t-65.5 13.5q-35 0 -64.5 -13.5t-50.5 -43t-33 -75.5t-12 -111q0 -68 8 -114.5t24.5 -75t42 -41t59.5 -12.5q23 0 45 5.5t40 15.5v157
h-86l-16 116h259v-345q-53 -32 -113.5 -51t-130.5 -19zM336 756q-42 0 -68 26t-26 65q0 38 26 64t68 26t68 -26t26 -64q0 -39 -26 -65t-68 -26z" />
    <glyph glyph-name="gdotaccent" unicode="&#x121;" 
d="M174 -35q-3 -8 -5 -16t-2 -16q0 -22 26.5 -35t90.5 -13q39 0 63 4t37.5 11t18.5 16t5 20q0 12 -5 20.5t-18.5 15t-37 11t-59.5 6.5q-61 4 -101 13t-63.5 23.5t-33 34.5t-9.5 46t15.5 49.5t42.5 41.5q-42 25 -67.5 63.5t-25.5 92.5q0 44 16 80t47 62t75 40t100 14
q87 0 149 20.5t109 48.5l39 -119q-29 -12 -68 -16t-85 -4v-4q45 -19 70 -51t25 -83q0 -38 -16 -70.5t-45.5 -56t-72 -37t-94.5 -13.5q-16 0 -32.5 1.5t-33.5 5.5q-12 -12 -12 -24q0 -9 4 -15t19 -10.5t44.5 -8t79.5 -6.5q101 -7 153 -49t52 -111q0 -42 -20 -73.5t-56.5 -53
t-89 -32t-118.5 -10.5q-72 0 -121.5 10.5t-81 29t-45.5 43t-14 52.5q0 23 5.5 42.5t22.5 39.5zM207 356q0 -42 23 -64.5t61 -22.5q37 0 58 22.5t21 66.5q0 83 -79 83q-38 0 -61 -22.5t-23 -62.5zM293 630q-42 0 -68.5 26t-26.5 64t26.5 64t68.5 26t68 -26t26 -64t-26 -64
t-68 -26z" />
    <glyph glyph-name="uni0122" unicode="&#x122;" 
d="M329 -17q-149 0 -226 92.5t-77 272.5q0 88 25.5 156t69 114t102 69.5t125.5 23.5q76 0 128.5 -24t93.5 -62l-87 -90q-32 28 -60.5 41.5t-65.5 13.5q-35 0 -64.5 -13.5t-50.5 -43t-33 -75.5t-12 -111q0 -68 8 -114.5t24.5 -75t42 -41t59.5 -12.5q23 0 45 5.5t40 15.5v157
h-86l-16 116h259v-345q-53 -32 -113.5 -51t-130.5 -19zM257 -323l27 115q-14 11 -23.5 27t-9.5 38q0 32 22.5 55t57.5 23q34 0 56.5 -22t22.5 -56q0 -18 -6.5 -39t-17.5 -44l-49 -97h-80z" />
    <glyph glyph-name="uni0123" unicode="&#x123;" 
d="M174 -35q-3 -8 -5 -16t-2 -16q0 -22 26.5 -35t90.5 -13q39 0 63 4t37.5 11t18.5 16t5 20q0 12 -5 20.5t-18.5 15t-37 11t-59.5 6.5q-61 4 -101 13t-63.5 23.5t-33 34.5t-9.5 46t15.5 49.5t42.5 41.5q-42 25 -67.5 63.5t-25.5 92.5q0 44 16 80t47 62t75 40t100 14
q87 0 149 20.5t109 48.5l39 -119q-29 -12 -68 -16t-85 -4v-4q45 -19 70 -51t25 -83q0 -38 -16 -70.5t-45.5 -56t-72 -37t-94.5 -13.5q-16 0 -32.5 1.5t-33.5 5.5q-12 -12 -12 -24q0 -9 4 -15t19 -10.5t44.5 -8t79.5 -6.5q101 -7 153 -49t52 -111q0 -42 -20 -73.5t-56.5 -53
t-89 -32t-118.5 -10.5q-72 0 -121.5 10.5t-81 29t-45.5 43t-14 52.5q0 23 5.5 42.5t22.5 39.5zM207 356q0 -42 23 -64.5t61 -22.5q37 0 58 22.5t21 66.5q0 83 -79 83q-38 0 -61 -22.5t-23 -62.5zM365 875l-27 -115q14 -11 23.5 -27t9.5 -38q0 -32 -22.5 -55t-57.5 -23
q-34 0 -56.5 22t-22.5 56q0 18 6.5 39t17.5 44l49 97h80z" />
    <glyph glyph-name="Hcircumflex" unicode="&#x124;" 
d="M383 0v296h-166v-296h-166v693h166v-268h166v268h166v-693h-166zM167 748l-58 66l142 130h98l141 -130l-57 -66l-133 84z" />
    <glyph glyph-name="hcircumflex" unicode="&#x125;" 
d="M69 0v742l160 16v-281q33 35 72 53.5t84 18.5q71 0 108.5 -41.5t37.5 -117.5v-390h-160v371q0 33 -13.5 46.5t-36.5 13.5q-25 0 -47 -17t-45 -47v-367h-160zM170 788l-58 66l142 130h98l141 -130l-57 -66l-133 84z" />
    <glyph glyph-name="Hbar" unicode="&#x126;" 
d="M381 0v296h-160v-296h-163v500h-53v92h53v101h163v-101h160v101h163v-101h54v-92h-54v-500h-163zM381 425v75h-160v-75h160z" />
    <glyph glyph-name="hbar" unicode="&#x127;" 
d="M71 0v593h-61v93h61v56l160 16v-72h140v-93h-140v-116q33 35 72 53.5t84 18.5q71 0 108.5 -41.5t37.5 -117.5v-390h-160v371q0 33 -13.5 46.5t-36.5 13.5q-25 0 -47 -17t-45 -47v-367h-160z" />
    <glyph glyph-name="Itilde" unicode="&#x128;" 
d="M74 693h452v-121h-143v-450h143v-122h-452v122h143v450h-143v121zM356 774q-24 0 -40 6.5t-28.5 14.5t-22.5 14.5t-22 6.5q-17 0 -28 -10.5t-23 -31.5l-80 38q9 24 21.5 45t29 37t36.5 25.5t44 9.5t40.5 -6.5t28.5 -14.5t22 -14.5t22 -6.5q18 0 29 10.5t23 31.5l80 -38
q-18 -48 -51 -82.5t-81 -34.5z" />
    <glyph glyph-name="itilde" unicode="&#x129;" 
d="M395 109h135v-109h-445v109h150v313h-145v109h305v-422zM354 632q-24 0 -40 7t-28.5 15.5t-22.5 15.5t-22 7q-17 0 -28 -11t-23 -32l-80 38q9 24 21.5 45t29 37.5t36.5 26t44 9.5t40.5 -7t28.5 -15t22 -15t22 -7q18 0 29 11t23 32l80 -38q-9 -24 -22 -45.5t-29.5 -38
t-36.5 -26t-44 -9.5z" />
    <glyph glyph-name="Imacron" unicode="&#x12a;" 
d="M74 693h452v-121h-143v-450h143v-122h-452v122h143v450h-143v121zM453 783h-306v111h306v-111z" />
    <glyph glyph-name="imacron" unicode="&#x12b;" 
d="M450 657h-306v111h306v-111zM395 109h135v-109h-445v109h150v313h-145v109h305v-422z" />
    <glyph glyph-name="Ibreve" unicode="&#x12c;" 
d="M74 693h452v-121h-143v-450h143v-122h-452v122h143v450h-143v121zM300 751q-42 0 -72.5 13.5t-51.5 36.5t-33 53t-16 63l88 16q10 -35 30 -53t55 -18t55 18t30 53l88 -16q-3 -33 -15 -63t-33 -53t-52 -36.5t-73 -13.5z" />
    <glyph glyph-name="ibreve" unicode="&#x12d;" 
d="M301 611q-42 0 -73 15t-52 39.5t-33 56.5t-15 65l88 15q9 -36 29.5 -58.5t55.5 -22.5t55.5 22.5t29.5 58.5l88 -15q-3 -33 -15 -65t-33.5 -56.5t-52.5 -39.5t-72 -15zM395 109h135v-109h-445v109h150v313h-145v109h305v-422z" />
    <glyph glyph-name="Iogonek" unicode="&#x12e;" 
d="M74 693h452v-121h-143v-450h143v-122h-143q-28 -16 -46 -31.5t-28 -31t-14 -29.5t-4 -27q0 -21 13 -35t40 -14q19 0 36.5 4.5t28.5 9.5l32 -77q-25 -13 -54 -20t-59 -7q-66 0 -106 32.5t-40 89.5q0 40 27.5 75t78.5 61h-214v122h143v450h-143v121z" />
    <glyph glyph-name="iogonek" unicode="&#x12f;" 
d="M395 109h135v-109h-135q-28 -16 -46 -31.5t-28 -31t-14 -29.5t-4 -27q0 -21 13 -35t40 -14q19 0 36.5 4.5t28.5 9.5l32 -77q-25 -13 -54 -20t-59 -7q-67 0 -106.5 32.5t-39.5 89.5q0 40 27 75t78 61h-214v109h150v313h-145v109h305v-422zM315 630q-41 0 -68 26t-27 64
t27 64t68 26t68 -26t27 -64t-27 -64t-68 -26z" />
    <glyph glyph-name="Idotaccent" unicode="&#x130;" 
d="M74 693h452v-121h-143v-450h143v-122h-452v122h143v450h-143v121zM300 756q-42 0 -68 26t-26 65q0 38 26 64t68 26t68 -26t26 -64q0 -39 -26 -65t-68 -26z" />
    <glyph glyph-name="dotlessi" unicode="&#x131;" 
d="M395 109h135v-109h-445v109h150v313h-145v109h305v-422z" />
    <glyph glyph-name="IJ" unicode="&#x132;" 
d="M181 -72q61 19 102.5 39.5t66.5 47t36 62.5t11 86v428h-164v-488h52v-103h-277v103h72v488h-72v102h549v-523q0 -70 -21 -125t-63.5 -98t-105.5 -75t-147 -56z" />
    <glyph glyph-name="ij" unicode="&#x133;" 
d="M312 0h-277v109h68v314h-63v108h506v-407q0 -79 -20 -134.5t-58.5 -95.5t-94.5 -67t-128 -49l-53 118q49 15 85.5 31.5t61 40.5t36.5 58t12 84v313h-126v-314h51v-109zM456 630q-41 0 -68 26t-27 64t27 64t68 26t68 -26t27 -64t-27 -64t-68 -26zM182 630q-42 0 -68 26
t-26 64t26 64t68 26t69 -26t27 -64t-27 -64t-69 -26z" />
    <glyph glyph-name="Jcircumflex" unicode="&#x134;" 
d="M86 693h391v-510q0 -74 -24 -129.5t-70 -97.5t-112 -73t-150 -54l-39 118q63 19 106.5 41t71 49t39.5 61t12 78v396h-225v121zM190 748l-58 66l142 130h98l141 -130l-57 -66l-133 84z" />
    <glyph glyph-name="jcircumflex" unicode="&#x135;" 
d="M192 611l-58 65l142 140h98l141 -140l-57 -65l-133 94zM423 96q0 -68 -23.5 -118t-64 -87t-95.5 -64t-118 -49l-53 118q42 15 77.5 32t61.5 39t40.5 51t14.5 68v336h-170v109h330v-435z" />
    <glyph glyph-name="uni0136" unicode="&#x136;" 
d="M224 0h-166v693h166v-693zM229 370l187 323h174l-194 -311l213 -382h-192zM209 -323l27 115q-14 11 -23.5 27t-9.5 38q0 32 22.5 55t57.5 23q34 0 56.5 -22t22.5 -56q0 -18 -6.5 -39t-17.5 -44l-49 -97h-80z" />
    <glyph glyph-name="uni0137" unicode="&#x137;" 
d="M235 291l173 240h167l-173 -235l187 -296h-182zM69 0v742l160 17v-759h-160zM227 -323l27 115q-14 11 -23.5 27t-9.5 38q0 32 22.5 55t57.5 23q34 0 56.5 -22t22.5 -56q0 -18 -6.5 -39t-17.5 -44l-49 -97h-80z" />
    <glyph glyph-name="kgreenlandic" unicode="&#x138;" 
d="M235 276l173 255h167l-174 -244l188 -287h-182zM69 0v531h160v-531h-160z" />
    <glyph glyph-name="Lacute" unicode="&#x139;" 
d="M92 0v693h166v-562h300l-17 -131h-449zM47 832l216 139l70 -119l-238 -101z" />
    <glyph glyph-name="lacute" unicode="&#x13a;" 
d="M343 167q0 -32 18 -45t50 -13q20 0 39 4.5t36 11.5l38 -107q-27 -14 -65 -24.5t-89 -10.5q-98 0 -142.5 55.5t-44.5 149.5v445h-156v109h316v-575zM118 868l216 139l70 -119l-238 -101z" />
    <glyph glyph-name="uni013B" unicode="&#x13b;" 
d="M92 0v693h166v-562h300l-17 -131h-449zM238 -323l27 115q-14 11 -23.5 27t-9.5 38q0 32 22.5 55t57.5 23q34 0 56.5 -22t22.5 -56q0 -18 -6.5 -39t-17.5 -44l-49 -97h-80z" />
    <glyph glyph-name="uni013C" unicode="&#x13c;" 
d="M343 167q0 -32 18 -45t50 -13q20 0 39 4.5t36 11.5l38 -107q-27 -14 -65 -24.5t-89 -10.5q-98 0 -142.5 55.5t-44.5 149.5v445h-156v109h316v-575zM279 -323l27 115q-14 11 -23.5 27t-9.5 38q0 32 22.5 55t57.5 23q34 0 56.5 -22t22.5 -56q0 -18 -6.5 -39t-17.5 -44
l-49 -97h-80z" />
    <glyph glyph-name="Lcaron" unicode="&#x13d;" 
d="M92 0v693h166v-562h300l-17 -131h-449zM338 451l27 115q-14 11 -23.5 27t-9.5 38q0 32 22.5 55t57.5 23q34 0 56.5 -22t22.5 -56q0 -18 -6.5 -39t-17.5 -44l-49 -97h-80z" />
    <glyph glyph-name="lcaron" unicode="&#x13e;" 
d="M343 167q0 -32 18 -45t50 -13q20 0 39 4.5t36 11.5l38 -107q-27 -14 -65 -24.5t-89 -10.5q-98 0 -142.5 55.5t-44.5 149.5v445h-156v109h316v-575zM404 578l27 115q-14 11 -23.5 27t-9.5 38q0 32 22.5 55t57.5 23q34 0 56.5 -22t22.5 -56q0 -18 -6.5 -39t-17.5 -44
l-49 -97h-80z" />
    <glyph glyph-name="Ldot" unicode="&#x13f;" 
d="M92 0v693h166v-562h300l-17 -131h-449zM421 289q-42 0 -68.5 26t-26.5 64t26.5 64t68.5 26t68 -26t26 -64t-26 -64t-68 -26z" />
    <glyph glyph-name="ldot" unicode="&#x140;" 
d="M325 167q0 -32 18 -45t50 -13q20 0 39 4.5t36 11.5l38 -107q-27 -14 -65 -24.5t-89 -10.5q-98 0 -142.5 55.5t-44.5 149.5v445h-156v109h316v-575zM461 279q-42 0 -68.5 26t-26.5 64t26.5 64t68.5 26t68 -26t26 -64t-26 -64t-68 -26z" />
    <glyph glyph-name="Lslash" unicode="&#x141;" 
d="M107 0v228l-45 -28l-54 88l99 61v344h166v-242l123 77l55 -86l-178 -111v-200h300l-17 -131h-449z" />
    <glyph glyph-name="lslash" unicode="&#x142;" 
d="M343 478l64 40l57 -90l-121 -74v-187q0 -32 18 -45t50 -13q20 0 39 4.5t36 11.5l38 -107q-27 -14 -65 -24.5t-89 -10.5q-95 0 -141 52t-46 140v81l-44 -26l-56 89l100 61v253h-156v109h316v-264z" />
    <glyph glyph-name="Nacute" unicode="&#x143;" 
d="M348 0l-177 538h-4q3 -16 7.5 -44.5t8.5 -65t6.5 -80t2.5 -89.5v-259h-141v693h207l171 -539h4q-8 38 -16.5 110t-8.5 166v263h141v-693h-201zM169 832l216 139l70 -119l-238 -101z" />
    <glyph glyph-name="nacute" unicode="&#x144;" 
d="M69 0v531h140l11 -61q70 79 165 79q71 0 108.5 -41.5t37.5 -117.5v-390h-160v345q0 48 -10.5 67t-39.5 19q-25 0 -47 -17t-45 -47v-367h-160zM174 689l215 144l71 -119l-238 -106z" />
    <glyph glyph-name="uni0145" unicode="&#x145;" 
d="M348 0l-177 538h-4q3 -16 7.5 -44.5t8.5 -65t6.5 -80t2.5 -89.5v-259h-141v693h207l171 -539h4q-8 38 -16.5 110t-8.5 166v263h141v-693h-201zM235 -323l27 115q-14 11 -23.5 27t-9.5 38q0 32 22.5 55t57.5 23q34 0 56.5 -22t22.5 -56q0 -18 -6.5 -39t-17.5 -44l-49 -97
h-80z" />
    <glyph glyph-name="uni0146" unicode="&#x146;" 
d="M69 0v531h140l11 -61q70 79 165 79q71 0 108.5 -41.5t37.5 -117.5v-390h-160v345q0 48 -10.5 67t-39.5 19q-25 0 -47 -17t-45 -47v-367h-160zM224 -323l27 115q-14 11 -23.5 27t-9.5 38q0 32 22.5 55t57.5 23q34 0 56.5 -22t22.5 -56q0 -18 -6.5 -39t-17.5 -44l-49 -97
h-80z" />
    <glyph glyph-name="Ncaron" unicode="&#x147;" 
d="M348 0l-177 538h-4q3 -16 7.5 -44.5t8.5 -65t6.5 -80t2.5 -89.5v-259h-141v693h207l171 -539h4q-8 38 -16.5 110t-8.5 166v263h141v-693h-201zM300 862l133 85l57 -65l-141 -131h-98l-142 131l58 65z" />
    <glyph glyph-name="ncaron" unicode="&#x148;" 
d="M69 0v531h140l11 -61q70 79 165 79q71 0 108.5 -41.5t37.5 -117.5v-390h-160v345q0 48 -10.5 67t-39.5 19q-25 0 -47 -17t-45 -47v-367h-160zM447 816l57 -65l-141 -140h-98l-142 140l58 65l133 -94z" />
    <glyph glyph-name="napostrophe" unicode="&#x149;" 
d="M69 0v531h140l11 -61q70 79 165 79q71 0 108.5 -41.5t37.5 -117.5v-390h-160v345q0 48 -10.5 67t-39.5 19q-25 0 -47 -17t-45 -47v-367h-160zM19 621l27 115q-14 11 -23.5 27t-9.5 38q0 32 22.5 55t57.5 23q34 0 56.5 -22t22.5 -56q0 -18 -6.5 -39t-17.5 -44l-49 -97h-80
z" />
    <glyph glyph-name="Eng" unicode="&#x14a;" 
d="M549 47q0 -62 -18.5 -106t-49 -75.5t-71 -52t-84.5 -35.5l-35 106q59 24 84.5 49t30.5 67h-58l-177 538h-4q3 -16 7.5 -44.5t8.5 -65t6.5 -80t2.5 -89.5v-259h-141v693h207l171 -539h4q-8 38 -16.5 110t-8.5 166v263h141v-646z" />
    <glyph glyph-name="eng" unicode="&#x14b;" 
d="M531 61q0 -66 -15.5 -111t-43 -76.5t-67 -54t-87.5 -41.5l-56 117q26 11 46 23.5t34 30t21.5 42t7.5 60.5v294q0 48 -10.5 67t-39.5 19q-25 0 -47 -17t-45 -47v-367h-160v531h140l11 -61q70 79 165 79q71 0 108.5 -41.5t37.5 -117.5v-329z" />
    <glyph glyph-name="Omacron" unicode="&#x14c;" 
d="M578 347q0 -83 -18 -150t-53 -114.5t-87 -73.5t-120 -26t-120 25t-87 72.5t-53 115t-18 151.5q0 82 18 149.5t53 115t87 73.5t120 26t120 -25t87 -72.5t53 -115t18 -151.5zM408 347q0 128 -25 185.5t-83 57.5t-83 -57.5t-25 -185.5t25.5 -185.5t82.5 -57.5q60 0 84 58
t24 185zM453 783h-306v111h306v-111z" />
    <glyph glyph-name="omacron" unicode="&#x14d;" 
d="M300 549q61 0 109.5 -20t81.5 -57t50.5 -89t17.5 -116q0 -134 -68 -209t-191 -75t-191 74t-68 209q0 63 17.5 115.5t51 89.5t81.5 57.5t109 20.5zM300 431q-48 0 -71 -39t-23 -126q0 -88 23 -127t71 -39t71 39t23 128q0 86 -23 125t-71 39zM453 657h-306v111h306v-111z
" />
    <glyph glyph-name="Obreve" unicode="&#x14e;" 
d="M578 347q0 -83 -18 -150t-53 -114.5t-87 -73.5t-120 -26t-120 25t-87 72.5t-53 115t-18 151.5q0 82 18 149.5t53 115t87 73.5t120 26t120 -25t87 -72.5t53 -115t18 -151.5zM408 347q0 128 -25 185.5t-83 57.5t-83 -57.5t-25 -185.5t25.5 -185.5t82.5 -57.5q60 0 84 58
t24 185zM300 751q-42 0 -72.5 13.5t-51.5 36.5t-33 53t-16 63l88 16q10 -35 30 -53t55 -18t55 18t30 53l88 -16q-3 -33 -15 -63t-33 -53t-52 -36.5t-73 -13.5z" />
    <glyph glyph-name="obreve" unicode="&#x14f;" 
d="M300 549q61 0 109.5 -20t81.5 -57t50.5 -89t17.5 -116q0 -134 -68 -209t-191 -75t-191 74t-68 209q0 63 17.5 115.5t51 89.5t81.5 57.5t109 20.5zM300 431q-48 0 -71 -39t-23 -126q0 -88 23 -127t71 -39t71 39t23 128q0 86 -23 125t-71 39zM300 611q-42 0 -73 15
t-52 39.5t-33 56.5t-15 65l88 15q9 -36 29.5 -58.5t55.5 -22.5t55.5 22.5t29.5 58.5l88 -15q-3 -33 -15 -65t-33.5 -56.5t-52.5 -39.5t-72 -15z" />
    <glyph glyph-name="Ohungarumlaut" unicode="&#x150;" 
d="M578 347q0 -83 -18 -150t-53 -114.5t-87 -73.5t-120 -26t-120 25t-87 72.5t-53 115t-18 151.5q0 82 18 149.5t53 115t87 73.5t120 26t120 -25t87 -72.5t53 -115t18 -151.5zM408 347q0 128 -25 185.5t-83 57.5t-83 -57.5t-25 -185.5t25.5 -185.5t82.5 -57.5q60 0 84 58
t24 185zM156 805l100 197l108 -50l-125 -183zM319 807l101 195l107 -52l-126 -182z" />
    <glyph glyph-name="ohungarumlaut" unicode="&#x151;" 
d="M300 549q61 0 109.5 -20t81.5 -57t50.5 -89t17.5 -116q0 -134 -68 -209t-191 -75t-191 74t-68 209q0 63 17.5 115.5t51 89.5t81.5 57.5t109 20.5zM300 431q-48 0 -71 -39t-23 -126q0 -88 23 -127t71 -39t71 39t23 128q0 86 -23 125t-71 39zM158 661l100 197l108 -50
l-125 -183zM321 663l101 195l107 -52l-126 -182z" />
    <glyph glyph-name="OE" unicode="&#x152;" 
d="M399 581q32 -64 38 -174h121v-112h-120q-3 -58 -14.5 -103.5t-29.5 -79.5h202v-112h-279q-22 -7 -43 -12t-49 -5q-57 0 -98 24t-67 70.5t-38 114.5t-12 155q0 85 12 152.5t38 114.5t67 72t98 25q28 0 49.5 -5t46.5 -13h275l-17 -112h-180zM303 347q0 70 -3.5 118
t-12.5 77.5t-24 42.5t-37 13t-36.5 -13.5t-23 -43.5t-12 -78t-3.5 -116t4 -116t13 -78t23 -44t35 -14t36 14t24 44t13 78t4 116z" />
    <glyph glyph-name="oe" unicode="&#x153;" 
d="M369 226q6 -72 28.5 -105t64.5 -33q23 0 42.5 8t41.5 24l60 -80q-29 -25 -66 -41t-86 -16q-53 0 -90.5 20.5t-61.5 58.5q-18 -37 -47.5 -58t-78.5 -21q-95 0 -139.5 74.5t-44.5 208.5q0 63 10.5 115.5t33 89.5t57.5 57.5t83 20.5q51 0 81 -22t48 -61q20 37 51.5 60
t81.5 23q92 0 130 -70.5t38 -202.5q0 -26 -3 -50h-234zM182 431q-32 0 -45 -37t-13 -128q0 -47 3 -78.5t10 -51t18 -28t27 -8.5t27 8t18 27.5t10 51.5t3 80q0 90 -13.5 127t-44.5 37zM432 449q-29 0 -44.5 -29.5t-19.5 -107.5h118q-1 71 -11.5 104t-42.5 33z" />
    <glyph glyph-name="Racute" unicode="&#x154;" 
d="M562 482q0 -37 -10.5 -67t-29.5 -53.5t-44 -40.5t-54 -29l181 -292h-186l-149 264h-47v-264h-166v693h219q143 0 214.5 -51t71.5 -160zM391 482q0 50 -29 72.5t-86 22.5h-53v-199h60q53 0 80.5 24.5t27.5 79.5zM149 832l216 139l70 -119l-238 -101z" />
    <glyph glyph-name="racute" unicode="&#x155;" 
d="M479 0h-405v109h110v313h-110v109h252l13 -99q18 54 57.5 84.5t88.5 30.5q20 0 34.5 -2t31.5 -7l-26 -155q-15 5 -29.5 6.5t-31.5 1.5q-50 0 -78.5 -35t-41.5 -89v-158h135v-109zM181 689l215 144l71 -119l-238 -106z" />
    <glyph glyph-name="uni0156" unicode="&#x156;" 
d="M562 482q0 -37 -10.5 -67t-29.5 -53.5t-44 -40.5t-54 -29l181 -292h-186l-149 264h-47v-264h-166v693h219q143 0 214.5 -51t71.5 -160zM391 482q0 50 -29 72.5t-86 22.5h-53v-199h60q53 0 80.5 24.5t27.5 79.5zM230 -323l27 115q-14 11 -23.5 27t-9.5 38q0 32 22.5 55
t57.5 23q34 0 56.5 -22t22.5 -56q0 -18 -6.5 -39t-17.5 -44l-49 -97h-80z" />
    <glyph glyph-name="uni0157" unicode="&#x157;" 
d="M479 0h-405v109h110v313h-110v109h252l13 -99q18 54 57.5 84.5t88.5 30.5q20 0 34.5 -2t31.5 -7l-26 -155q-15 5 -29.5 6.5t-31.5 1.5q-50 0 -78.5 -35t-41.5 -89v-158h135v-109zM195 -323l27 115q-14 11 -23.5 27t-9.5 38q0 32 22.5 55t57.5 23q34 0 56.5 -22t22.5 -56
q0 -18 -6.5 -39t-17.5 -44l-49 -97h-80z" />
    <glyph glyph-name="Rcaron" unicode="&#x158;" 
d="M562 482q0 -37 -10.5 -67t-29.5 -53.5t-44 -40.5t-54 -29l181 -292h-186l-149 264h-47v-264h-166v693h219q143 0 214.5 -51t71.5 -160zM391 482q0 50 -29 72.5t-86 22.5h-53v-199h60q53 0 80.5 24.5t27.5 79.5zM288 862l133 85l57 -65l-141 -131h-98l-142 131l58 65z" />
    <glyph glyph-name="rcaron" unicode="&#x159;" 
d="M479 0h-405v109h110v313h-110v109h252l13 -99q18 54 57.5 84.5t88.5 30.5q20 0 34.5 -2t31.5 -7l-26 -155q-15 5 -29.5 6.5t-31.5 1.5q-50 0 -78.5 -35t-41.5 -89v-158h135v-109zM447 816l57 -65l-141 -140h-98l-142 140l58 65l133 -94z" />
    <glyph glyph-name="Sacute" unicode="&#x15a;" 
d="M569 203q0 -49 -19.5 -89.5t-55.5 -69.5t-88 -45t-118 -16q-95 0 -164.5 29t-112.5 71l84 93q38 -34 84.5 -52t102.5 -18q51 0 82.5 22t31.5 62q0 19 -6 33t-20.5 25.5t-38.5 22t-60 21.5q-60 19 -101.5 40.5t-68 47.5t-38.5 58t-12 71q0 48 20.5 85.5t56.5 63.5
t83.5 39.5t101.5 13.5q79 0 140.5 -23.5t106.5 -66.5l-78 -90q-35 29 -75 43.5t-81 14.5q-47 0 -75 -17t-28 -50q0 -17 6.5 -29t22 -22.5t42 -20.5t66.5 -23q49 -16 88 -35t66 -45.5t41 -61t14 -82.5zM166 832l216 139l70 -119l-238 -101z" />
    <glyph glyph-name="sacute" unicode="&#x15b;" 
d="M278 97q39 0 63 12t24 37q0 13 -5 22.5t-18.5 17.5t-38 16t-64.5 19q-36 10 -66.5 23.5t-52 33t-33.5 46t-12 61.5t15 65t44.5 52t73 34.5t100.5 12.5q68 0 122 -17.5t87 -42.5l-64 -94q-29 19 -66.5 29.5t-75.5 10.5q-75 0 -75 -40q0 -10 5 -17.5t18.5 -15t38 -16
t63.5 -19.5t70 -24t53.5 -32t34.5 -46t12 -66q0 -44 -20.5 -77t-55 -55t-80 -33t-96.5 -11q-78 0 -136.5 21t-100.5 57l80 88q31 -24 70 -38t86 -14zM167 689l215 144l71 -119l-238 -106z" />
    <glyph glyph-name="Scircumflex" unicode="&#x15c;" 
d="M569 203q0 -49 -19.5 -89.5t-55.5 -69.5t-88 -45t-118 -16q-95 0 -164.5 29t-112.5 71l84 93q38 -34 84.5 -52t102.5 -18q51 0 82.5 22t31.5 62q0 19 -6 33t-20.5 25.5t-38.5 22t-60 21.5q-60 19 -101.5 40.5t-68 47.5t-38.5 58t-12 71q0 48 20.5 85.5t56.5 63.5
t83.5 39.5t101.5 13.5q79 0 140.5 -23.5t106.5 -66.5l-78 -90q-35 29 -75 43.5t-81 14.5q-47 0 -75 -17t-28 -50q0 -17 6.5 -29t22 -22.5t42 -20.5t66.5 -23q49 -16 88 -35t66 -45.5t41 -61t14 -82.5zM185 748l-58 66l142 130h98l141 -130l-57 -66l-133 84z" />
    <glyph glyph-name="scircumflex" unicode="&#x15d;" 
d="M278 97q39 0 63 12t24 37q0 13 -5 22.5t-18.5 17.5t-38 16t-64.5 19q-36 10 -66.5 23.5t-52 33t-33.5 46t-12 61.5t15 65t44.5 52t73 34.5t100.5 12.5q68 0 122 -17.5t87 -42.5l-64 -94q-29 19 -66.5 29.5t-75.5 10.5q-75 0 -75 -40q0 -10 5 -17.5t18.5 -15t38 -16
t63.5 -19.5t70 -24t53.5 -32t34.5 -46t12 -66q0 -44 -20.5 -77t-55 -55t-80 -33t-96.5 -11q-78 0 -136.5 21t-100.5 57l80 88q31 -24 70 -38t86 -14zM174 611l-58 65l142 140h98l141 -140l-57 -65l-133 94z" />
    <glyph glyph-name="Scedilla" unicode="&#x15e;" 
d="M330 -145q0 20 -23 26.5t-69 6.5l10 97q-80 6 -139.5 33t-97.5 65l84 93q38 -34 84.5 -52t102.5 -18q51 0 82.5 22t31.5 62q0 19 -6 33t-20.5 25.5t-38.5 22t-60 21.5q-60 19 -101.5 40.5t-68 47.5t-38.5 58t-12 71q0 48 20.5 85.5t56.5 63.5t83.5 39.5t101.5 13.5
q79 0 140.5 -23.5t106.5 -66.5l-78 -90q-35 29 -75 43.5t-81 14.5q-47 0 -75 -17t-28 -50q0 -17 6.5 -29t22 -22.5t42 -20.5t66.5 -23q49 -16 88 -35t66 -45.5t41 -61t14 -82.5q0 -88 -60 -146.5t-168 -70.5v-34q53 -6 78.5 -32t25.5 -67q0 -51 -40.5 -83.5t-109.5 -32.5
q-36 0 -67 9.5t-51 21.5l37 73q15 -8 31 -12.5t33 -4.5q24 0 38 7t14 24z" />
    <glyph glyph-name="scedilla" unicode="&#x15f;" 
d="M317 -145q0 20 -23 26.5t-69 6.5l11 97q-63 5 -111 25t-83 51l80 88q31 -24 70 -38t86 -14q39 0 63 12t24 37q0 13 -5 22.5t-18.5 17.5t-38 16t-64.5 19q-36 10 -66.5 23.5t-52 33t-33.5 46t-12 61.5t15 65t44.5 52t73 34.5t100.5 12.5q68 0 122 -17.5t87 -42.5l-64 -94
q-29 19 -66.5 29.5t-75.5 10.5q-75 0 -75 -40q0 -10 5 -17.5t18.5 -15t38 -16t63.5 -19.5t70 -24t53.5 -32t34.5 -46t12 -66t-15.5 -69t-43 -52t-64.5 -35t-80 -17v-34q53 -6 78.5 -32t25.5 -67q0 -51 -40.5 -83.5t-109.5 -32.5q-36 0 -67 9.5t-51 21.5l38 73
q14 -8 30 -12.5t33 -4.5q24 0 38 7t14 24z" />
    <glyph glyph-name="Scaron" unicode="&#x160;" 
d="M569 203q0 -49 -19.5 -89.5t-55.5 -69.5t-88 -45t-118 -16q-95 0 -164.5 29t-112.5 71l84 93q38 -34 84.5 -52t102.5 -18q51 0 82.5 22t31.5 62q0 19 -6 33t-20.5 25.5t-38.5 22t-60 21.5q-60 19 -101.5 40.5t-68 47.5t-38.5 58t-12 71q0 48 20.5 85.5t56.5 63.5
t83.5 39.5t101.5 13.5q79 0 140.5 -23.5t106.5 -66.5l-78 -90q-35 29 -75 43.5t-81 14.5q-47 0 -75 -17t-28 -50q0 -17 6.5 -29t22 -22.5t42 -20.5t66.5 -23q49 -16 88 -35t66 -45.5t41 -61t14 -82.5zM317 862l133 85l57 -65l-141 -131h-98l-142 131l58 65z" />
    <glyph glyph-name="scaron" unicode="&#x161;" 
d="M278 97q39 0 63 12t24 37q0 13 -5 22.5t-18.5 17.5t-38 16t-64.5 19q-36 10 -66.5 23.5t-52 33t-33.5 46t-12 61.5t15 65t44.5 52t73 34.5t100.5 12.5q68 0 122 -17.5t87 -42.5l-64 -94q-29 19 -66.5 29.5t-75.5 10.5q-75 0 -75 -40q0 -10 5 -17.5t18.5 -15t38 -16
t63.5 -19.5t70 -24t53.5 -32t34.5 -46t12 -66q0 -44 -20.5 -77t-55 -55t-80 -33t-96.5 -11q-78 0 -136.5 21t-100.5 57l80 88q31 -24 70 -38t86 -14zM439 816l57 -65l-141 -140h-98l-142 140l58 65l133 -94z" />
    <glyph glyph-name="uni0162" unicode="&#x162;" 
d="M371 -145q0 20 -22.5 26.5t-68.5 6.5l12 112h-76v566h-194v127h562l-17 -127h-185v-614q54 -6 79.5 -32t25.5 -67q0 -51 -40.5 -83.5t-109.5 -32.5q-36 0 -67 9.5t-51 21.5l37 73q15 -8 31 -12.5t33 -4.5q24 0 37.5 7t13.5 24z" />
    <glyph glyph-name="uni0163" unicode="&#x163;" 
d="M399 -145q0 20 -22.5 26.5t-68.5 6.5l11 101q-75 14 -110.5 64.5t-35.5 128.5v239h-111v110h111v115l160 19v-134h171l-16 -110h-155v-239q0 -40 18 -56.5t57 -16.5q28 0 51 6.5t42 17.5l53 -102q-27 -18 -64.5 -30t-79.5 -16v-33q54 -6 79.5 -32t25.5 -67
q0 -51 -40.5 -83.5t-109.5 -32.5q-36 0 -67 9.5t-51 21.5l37 73q15 -8 31 -12.5t33 -4.5q24 0 37.5 7t13.5 24z" />
    <glyph glyph-name="Tcaron" unicode="&#x164;" 
d="M382 566v-566h-166v566h-194v127h562l-17 -127h-185zM296 862l133 85l57 -65l-141 -131h-98l-142 131l58 65z" />
    <glyph glyph-name="tcaron" unicode="&#x165;" 
d="M554 31q-32 -20 -77.5 -34t-97.5 -14q-105 0 -155.5 53.5t-50.5 145.5v239h-111v110h111v115l160 19v-134h171l-16 -110h-155v-239q0 -40 18 -56.5t57 -16.5q28 0 51 6.5t42 17.5zM383 595l27 115q-14 11 -23.5 27t-9.5 38q0 32 22.5 55t57.5 23q34 0 56.5 -22t22.5 -56
q0 -18 -6.5 -39t-17.5 -44l-49 -97h-80z" />
    <glyph glyph-name="Tbar" unicode="&#x166;" 
d="M499 313h-117v-313h-166v313h-116v93h116v160h-194v127h562l-17 -127h-185v-160h117v-93z" />
    <glyph glyph-name="tbar" unicode="&#x167;" 
d="M554 31q-32 -20 -77.5 -34t-97.5 -14q-105 0 -155.5 53.5t-50.5 145.5v79h-99v100h99v60h-111v110h111v115l160 19v-134h171l-16 -110h-155v-60h154v-100h-154v-79q0 -40 18 -56.5t57 -16.5q28 0 51 6.5t42 17.5z" />
    <glyph glyph-name="Utilde" unicode="&#x168;" 
d="M300 -17q-65 0 -114 18t-81 51t-48 78.5t-16 101.5v461h167v-398q0 -47 3.5 -82.5t13 -59t27.5 -35.5t48 -12t48 12t27.5 35.5t13 59t3.5 82.5v398h167v-461q0 -53 -16 -98.5t-48.5 -79t-81 -52.5t-113.5 -19zM356 774q-24 0 -40 6.5t-28.5 14.5t-22.5 14.5t-22 6.5
q-17 0 -28 -10.5t-23 -31.5l-80 38q9 24 21.5 45t29 37t36.5 25.5t44 9.5t40.5 -6.5t28.5 -14.5t22 -14.5t22 -6.5q18 0 29 10.5t23 31.5l80 -38q-18 -48 -51 -82.5t-81 -34.5z" />
    <glyph glyph-name="utilde" unicode="&#x169;" 
d="M229 531v-363q0 -38 14 -52.5t39 -14.5q24 0 48 15.5t41 41.5v373h160v-531h-140l-7 62q-27 -39 -71 -59t-92 -20q-78 0 -115 44.5t-37 120.5v383h160zM356 632q-24 0 -40 7t-28.5 15.5t-22.5 15.5t-22 7q-17 0 -28 -11t-23 -32l-80 38q9 24 21.5 45t29 37.5t36.5 26
t44 9.5t40.5 -7t28.5 -15t22 -15t22 -7q18 0 29 11t23 32l80 -38q-9 -24 -22 -45.5t-29.5 -38t-36.5 -26t-44 -9.5z" />
    <glyph glyph-name="Umacron" unicode="&#x16a;" 
d="M300 -17q-65 0 -114 18t-81 51t-48 78.5t-16 101.5v461h167v-398q0 -47 3.5 -82.5t13 -59t27.5 -35.5t48 -12t48 12t27.5 35.5t13 59t3.5 82.5v398h167v-461q0 -53 -16 -98.5t-48.5 -79t-81 -52.5t-113.5 -19zM453 783h-306v111h306v-111z" />
    <glyph glyph-name="umacron" unicode="&#x16b;" 
d="M229 531v-363q0 -38 14 -52.5t39 -14.5q24 0 48 15.5t41 41.5v373h160v-531h-140l-7 62q-27 -39 -71 -59t-92 -20q-78 0 -115 44.5t-37 120.5v383h160zM453 657h-306v111h306v-111z" />
    <glyph glyph-name="Ubreve" unicode="&#x16c;" 
d="M300 -17q-65 0 -114 18t-81 51t-48 78.5t-16 101.5v461h167v-398q0 -47 3.5 -82.5t13 -59t27.5 -35.5t48 -12t48 12t27.5 35.5t13 59t3.5 82.5v398h167v-461q0 -53 -16 -98.5t-48.5 -79t-81 -52.5t-113.5 -19zM300 751q-42 0 -72.5 13.5t-51.5 36.5t-33 53t-16 63l88 16
q10 -35 30 -53t55 -18t55 18t30 53l88 -16q-3 -33 -15 -63t-33 -53t-52 -36.5t-73 -13.5z" />
    <glyph glyph-name="ubreve" unicode="&#x16d;" 
d="M229 531v-363q0 -38 14 -52.5t39 -14.5q24 0 48 15.5t41 41.5v373h160v-531h-140l-7 62q-27 -39 -71 -59t-92 -20q-78 0 -115 44.5t-37 120.5v383h160zM300 611q-42 0 -73 15t-52 39.5t-33 56.5t-15 65l88 15q9 -36 29.5 -58.5t55.5 -22.5t55.5 22.5t29.5 58.5l88 -15
q-3 -33 -15 -65t-33.5 -56.5t-52.5 -39.5t-72 -15z" />
    <glyph glyph-name="Uring" unicode="&#x16e;" 
d="M300 -17q-65 0 -114 18t-81 51t-48 78.5t-16 101.5v461h167v-398q0 -47 3.5 -82.5t13 -59t27.5 -35.5t48 -12t48 12t27.5 35.5t13 59t3.5 82.5v398h167v-461q0 -53 -16 -98.5t-48.5 -79t-81 -52.5t-113.5 -19zM300 821q20 0 32.5 12.5t12.5 37.5t-12.5 37t-32.5 12
t-32.5 -12t-12.5 -37t12.5 -37.5t32.5 -12.5zM300 738q-32 0 -58 10.5t-44 29t-27.5 42.5t-9.5 51q0 26 9.5 50t27.5 42t44 28.5t58 10.5q33 0 59 -10.5t44 -28.5t27.5 -42t9.5 -50q0 -27 -9.5 -51t-27.5 -42.5t-44 -29t-59 -10.5z" />
    <glyph glyph-name="uring" unicode="&#x16f;" 
d="M229 531v-363q0 -38 14 -52.5t39 -14.5q24 0 48 15.5t41 41.5v373h160v-531h-140l-7 62q-27 -39 -71 -59t-92 -20q-78 0 -115 44.5t-37 120.5v383h160zM300 684q20 0 32.5 12t12.5 38q0 25 -12.5 37t-32.5 12t-32 -12t-12 -37q0 -26 12 -38t32 -12zM300 601q-32 0 -58 11
t-44 29t-27.5 42t-9.5 51t9.5 51t27.5 42t44 28.5t58 10.5q33 0 59 -10.5t44 -28.5t27.5 -42t9.5 -51t-9.5 -51t-27.5 -42t-44 -29t-59 -11z" />
    <glyph glyph-name="Uhungarumlaut" unicode="&#x170;" 
d="M300 -17q-65 0 -114 18t-81 51t-48 78.5t-16 101.5v461h167v-398q0 -47 3.5 -82.5t13 -59t27.5 -35.5t48 -12t48 12t27.5 35.5t13 59t3.5 82.5v398h167v-461q0 -53 -16 -98.5t-48.5 -79t-81 -52.5t-113.5 -19zM143 805l100 197l108 -50l-125 -183zM306 807l101 195
l107 -52l-126 -182z" />
    <glyph glyph-name="uhungarumlaut" unicode="&#x171;" 
d="M229 531v-363q0 -38 14 -52.5t39 -14.5q24 0 48 15.5t41 41.5v373h160v-531h-140l-7 62q-27 -39 -71 -59t-92 -20q-78 0 -115 44.5t-37 120.5v383h160zM156 661l100 197l108 -50l-125 -183zM319 663l101 195l107 -52l-126 -182z" />
    <glyph glyph-name="Uogonek" unicode="&#x172;" 
d="M211 -136q0 35 21.5 65.5t61.5 53.5q-65 1 -112.5 19.5t-78.5 51t-46.5 78t-15.5 100.5v461h167v-456q0 -66 21.5 -98.5t70.5 -32.5q48 0 70 32.5t22 98.5v456h167v-461q0 -78 -34 -138t-105 -89q-59 -32 -79.5 -64t-20.5 -60q0 -21 13 -35t40 -14q19 0 36.5 4.5
t27.5 9.5l32 -77q-24 -13 -53 -20t-59 -7q-67 0 -106.5 32.5t-39.5 89.5z" />
    <glyph glyph-name="uogonek" unicode="&#x173;" 
d="M229 531v-363q0 -38 14 -52.5t39 -14.5q24 0 48 15.5t41 41.5v373h160v-531q-57 -32 -75 -62.5t-18 -56.5q0 -21 13 -35t40 -14q20 0 37 4.5t28 9.5l32 -77q-25 -13 -54 -20t-59 -7q-66 0 -106 32.5t-40 89.5q0 40 28.5 75.5t79.5 60.5h-46l-7 62q-27 -39 -71 -59
t-92 -20q-78 0 -115 44.5t-37 120.5v383h160z" />
    <glyph glyph-name="Wcircumflex" unicode="&#x174;" 
d="M543 0h-172l-47 486h-4l-52 -486h-175l-74 693h155l19 -542h4l56 462h142l50 -461h4l32 541h144zM189 748l-58 66l142 130h98l141 -130l-57 -66l-133 84z" />
    <glyph glyph-name="wcircumflex" unicode="&#x175;" 
d="M522 0h-176l-43 338h-4l-45 -338h-173l-78 531h146l31 -414h4l54 347h134l47 -345h4l33 412h141zM169 611l-58 65l142 140h98l141 -140l-57 -65l-133 94z" />
    <glyph glyph-name="Ycircumflex" unicode="&#x176;" 
d="M383 260v-260h-166v259l-226 434h182l128 -292h4l129 292h175zM169 748l-58 66l142 130h98l141 -130l-57 -66l-133 84z" />
    <glyph glyph-name="ycircumflex" unicode="&#x177;" 
d="M27 531h169l100 -421h4l109 421h164l-177 -531q-35 -107 -106 -161.5t-193 -61.5l-18 113q39 5 66.5 13t47 21t33 31.5t24.5 44.5h-55zM170 611l-58 65l142 140h98l141 -140l-57 -65l-133 94z" />
    <glyph glyph-name="Ydieresis" unicode="&#x178;" 
d="M383 260v-260h-166v259l-226 434h182l128 -292h4l129 292h175zM185 756q-35 0 -59 23.5t-24 58.5q0 33 24 56.5t59 23.5t59 -23.5t24 -56.5q0 -35 -24 -58.5t-59 -23.5zM417 756q-35 0 -59 23.5t-24 58.5q0 33 24 56.5t59 23.5t59 -23.5t24 -56.5q0 -35 -24 -58.5
t-59 -23.5z" />
    <glyph glyph-name="Zacute" unicode="&#x179;" 
d="M237 132h322l-17 -132h-501v124l323 441h-292v128h481v-125zM179 832l216 139l70 -119l-238 -101z" />
    <glyph glyph-name="zacute" unicode="&#x17a;" 
d="M260 121h265l-15 -121h-439v113l263 298h-241v120h427v-112zM169 689l215 144l71 -119l-238 -106z" />
    <glyph glyph-name="Zdotaccent" unicode="&#x17b;" 
d="M237 132h322l-17 -132h-501v124l323 441h-292v128h481v-125zM317 756q-42 0 -68 26t-26 65q0 38 26 64t68 26t68 -26t26 -64q0 -39 -26 -65t-68 -26z" />
    <glyph glyph-name="zdotaccent" unicode="&#x17c;" 
d="M260 121h265l-15 -121h-439v113l263 298h-241v120h427v-112zM311 630q-42 0 -68.5 26t-26.5 64t26.5 64t68.5 26t68 -26t26 -64t-26 -64t-68 -26z" />
    <glyph glyph-name="Zcaron" unicode="&#x17d;" 
d="M237 132h322l-17 -132h-501v124l323 441h-292v128h481v-125zM315 862l133 85l57 -65l-141 -131h-98l-142 131l58 65z" />
    <glyph glyph-name="zcaron" unicode="&#x17e;" 
d="M260 121h265l-15 -121h-439v113l263 298h-241v120h427v-112zM444 816l57 -65l-141 -140h-98l-142 140l58 65l133 -94z" />
    <glyph glyph-name="florin" unicode="&#x192;" 
d="M65 -106q25 12 45.5 24.5t34.5 30t21.5 42t7.5 60.5v369h-82v111h82v46q0 38 12.5 71.5t38 58t64 38.5t89.5 14q46 0 85 -9.5t71 -24.5l-44 -104q-26 11 -46.5 15.5t-40.5 4.5q-41 0 -55.5 -16t-14.5 -54v-40h126l-18 -111h-108v-356q0 -66 -15.5 -113t-44 -79.5
t-67.5 -54.5t-85 -39z" />
    <glyph glyph-name="AEacute" unicode="&#x1fc;" 
d="M313 152h-139l-27 -152h-159l174 693h403l-17 -112h-181l33 -174h156v-112h-136l35 -183h148v-112h-266zM192 265h104l-48 303h-5zM197 832l216 139l70 -119l-238 -101z" />
    <glyph glyph-name="aeacute" unicode="&#x1fd;" 
d="M357 226q7 -71 30.5 -104.5t65.5 -33.5q24 0 44.5 8t42.5 24l60 -80q-29 -25 -67 -41t-89 -16q-56 0 -95 22t-65 62q-14 -21 -28.5 -37t-31 -26.5t-36.5 -15.5t-45 -5q-35 0 -62.5 12.5t-47 35t-29.5 53.5t-10 68q0 85 49.5 130t152.5 45h41v23q0 51 -23 76t-66 25
q-24 0 -43.5 -5.5t-49.5 -19.5l-36 87q39 17 72 26.5t73 9.5q55 0 87 -19t51 -51q18 32 49.5 51t76.5 19q94 0 133 -70t39 -203q0 -26 -3 -50h-240zM422 449q-31 0 -46.5 -29.5t-18.5 -107.5h123q-1 71 -12 104t-46 33zM172 87q21 0 37.5 15.5t31.5 45.5q-2 23 -3 46.5
t-1 46.5h-21q-49 0 -69 -21.5t-20 -60.5q0 -34 11.5 -53t33.5 -19zM169 689l215 144l71 -119l-238 -106z" />
    <glyph glyph-name="Oslashacute" unicode="&#x1fe;" 
d="M578 347q0 -83 -18 -150t-53 -114.5t-87 -73.5t-120 -26q-14 0 -26 1t-24 3l-38 -123l-112 33l42 134q-60 44 -90 124t-30 192q0 82 18 149.5t53 115t87 73.5t120 26q14 0 26.5 -1.5t24.5 -3.5l37 122l112 -33l-42 -132q60 -45 90 -125t30 -191zM186 347q0 -60 5.5 -103
t18.5 -69l122 414q-13 4 -32 4q-58 0 -86 -57t-28 -189zM414 347q0 59 -5 100t-19 67l-120 -411q7 -2 14 -2h16q59 0 86.5 57.5t27.5 188.5zM140 855l216 139l70 -119l-238 -101z" />
    <glyph glyph-name="oslashacute" unicode="&#x1ff;" 
d="M300 549q8 0 16.5 -0.5t14.5 -1.5l38 116l116 -34l-39 -120q55 -35 84 -97.5t29 -144.5q0 -66 -17.5 -118.5t-51 -89.5t-81.5 -56.5t-109 -19.5q-8 0 -15.5 0.5t-15.5 1.5l-37 -122l-117 34l40 123q-56 33 -85 95.5t-29 150.5q0 62 17.5 114t51 89.5t81.5 58.5t109 21z
M296 431q-48 0 -70.5 -39t-22.5 -126q0 -89 20 -123l92 287q-5 1 -10 1h-9zM397 267q0 80 -19 115l-90 -281q5 -1 8 -1h8q49 0 71 39t22 128zM143 696l215 144l71 -119l-238 -106z" />
    <glyph glyph-name="uni0218" unicode="&#x218;" 
d="M569 203q0 -49 -19.5 -89.5t-55.5 -69.5t-88 -45t-118 -16q-95 0 -164.5 29t-112.5 71l84 93q38 -34 84.5 -52t102.5 -18q51 0 82.5 22t31.5 62q0 19 -6 33t-20.5 25.5t-38.5 22t-60 21.5q-60 19 -101.5 40.5t-68 47.5t-38.5 58t-12 71q0 48 20.5 85.5t56.5 63.5
t83.5 39.5t101.5 13.5q79 0 140.5 -23.5t106.5 -66.5l-78 -90q-35 29 -75 43.5t-81 14.5q-47 0 -75 -17t-28 -50q0 -17 6.5 -29t22 -22.5t42 -20.5t66.5 -23q49 -16 88 -35t66 -45.5t41 -61t14 -82.5zM234 -323l27 115q-14 11 -23.5 27t-9.5 38q0 32 22.5 55t57.5 23
q34 0 56.5 -22t22.5 -56q0 -18 -6.5 -39t-17.5 -44l-49 -97h-80z" />
    <glyph glyph-name="uni0219" unicode="&#x219;" 
d="M278 97q39 0 63 12t24 37q0 13 -5 22.5t-18.5 17.5t-38 16t-64.5 19q-36 10 -66.5 23.5t-52 33t-33.5 46t-12 61.5t15 65t44.5 52t73 34.5t100.5 12.5q68 0 122 -17.5t87 -42.5l-64 -94q-29 19 -66.5 29.5t-75.5 10.5q-75 0 -75 -40q0 -10 5 -17.5t18.5 -15t38 -16
t63.5 -19.5t70 -24t53.5 -32t34.5 -46t12 -66q0 -44 -20.5 -77t-55 -55t-80 -33t-96.5 -11q-78 0 -136.5 21t-100.5 57l80 88q31 -24 70 -38t86 -14zM226 -323l27 115q-14 11 -23.5 27t-9.5 38q0 32 22.5 55t57.5 23q34 0 56.5 -22t22.5 -56q0 -18 -6.5 -39t-17.5 -44
l-49 -97h-80z" />
    <glyph glyph-name="uni021A" unicode="&#x21a;" 
d="M382 566v-566h-166v566h-194v127h562l-17 -127h-185zM226 -323l27 115q-14 11 -23.5 27t-9.5 38q0 32 22.5 55t57.5 23q34 0 56.5 -22t22.5 -56q0 -18 -6.5 -39t-17.5 -44l-49 -97h-80z" />
    <glyph glyph-name="uni021B" unicode="&#x21b;" 
d="M554 31q-32 -20 -77.5 -34t-97.5 -14q-105 0 -155.5 53.5t-50.5 145.5v239h-111v110h111v115l160 19v-134h171l-16 -110h-155v-239q0 -40 18 -56.5t57 -16.5q28 0 51 6.5t42 17.5zM290 -323l27 115q-14 11 -23.5 27t-9.5 38q0 32 22.5 55t57.5 23q34 0 56.5 -22t22.5 -56
q0 -18 -6.5 -39t-17.5 -44l-49 -97h-80z" />
    <glyph glyph-name="dotlessj" unicode="&#x237;" 
d="M423 96q0 -68 -23.5 -118t-64 -87t-95.5 -64t-118 -49l-53 118q42 15 77.5 32t61.5 39t40.5 51t14.5 68v336h-170v109h330v-435z" />
    <glyph glyph-name="circumflex" unicode="&#x2c6;" 
d="M167 636l-57 65l141 131h98l141 -131l-57 -65l-133 85z" />
    <glyph glyph-name="caron" unicode="&#x2c7;" 
d="M300 750l133 85l57 -65l-141 -131h-98l-141 131l57 65z" />
    <glyph glyph-name="uni02C9" unicode="&#x2c9;" 
d="M453 671h-307v111h307v-111z" />
    <glyph glyph-name="breve" unicode="&#x2d8;" 
d="M299 639q-41 0 -72 13.5t-52 36.5t-33 53t-15 63l88 16q10 -35 30 -53.5t54 -18.5q35 0 55.5 18.5t30.5 53.5l88 -16q-4 -33 -16 -63t-33 -53t-52 -36.5t-73 -13.5z" />
    <glyph glyph-name="dotaccent" unicode="&#x2d9;" 
d="M300 645q-42 0 -68 26t-26 64t26 64t68 26t68 -26t26 -64t-26 -64t-68 -26z" />
    <glyph glyph-name="ring" unicode="&#x2da;" 
d="M300 709q20 0 32.5 12.5t12.5 37.5t-12.5 37t-32.5 12t-32.5 -12t-12.5 -37t12.5 -37.5t32.5 -12.5zM300 626q-32 0 -58 11t-44 29t-28 42t-10 51t10 51t28 42t44 28.5t58 10.5t58 -10.5t44 -28.5t28 -42t10 -51t-10 -51t-28 -42t-44 -29t-58 -11z" />
    <glyph glyph-name="ogonek" unicode="&#x2db;" 
d="M391 9q-35 -17 -56.5 -33.5t-33.5 -33t-16.5 -32t-4.5 -29.5q0 -21 12.5 -35t39.5 -14q20 0 37 4.5t28 9.5l32 -77q-24 -13 -53.5 -20t-59.5 -7q-66 0 -105.5 32.5t-39.5 89.5q0 53 47 97t130 67z" />
    <glyph glyph-name="tilde" unicode="&#x2dc;" 
d="M356 662q-24 0 -40 6.5t-28 14.5t-22 14.5t-22 6.5q-18 0 -29 -10.5t-23 -31.5l-80 38q18 48 51 83t81 35q24 0 40 -6.5t28.5 -15t22.5 -15t22 -6.5q17 0 28 10.5t23 31.5l80 -38q-9 -24 -22 -45t-29.5 -37t-36.5 -25.5t-44 -9.5z" />
    <glyph glyph-name="hungarumlaut" unicode="&#x2dd;" 
d="M107 692l95 196l109 -50l-120 -180zM282 694l104 194l107 -54l-129 -179z" />
    <glyph glyph-name="gravecomb" unicode="&#x300;" 
d="M395 608l-238 106l70 119l216 -144z" />
    <glyph glyph-name="acutecomb" unicode="&#x301;" 
d="M157 689l215 144l71 -119l-238 -106z" />
    <glyph glyph-name="uni0302" unicode="&#x302;" 
d="M167 611l-58 65l142 140h98l141 -140l-57 -65l-133 94z" />
    <glyph glyph-name="tildecomb" unicode="&#x303;" 
d="M356 632q-24 0 -40 7t-28.5 15.5t-22.5 15.5t-22 7q-17 0 -28 -11t-23 -32l-80 38q9 24 21.5 45t29 37.5t36.5 26t44 9.5t40.5 -7t28.5 -15t22 -15t22 -7q18 0 29 11t23 32l80 -38q-9 -24 -22 -45.5t-29.5 -38t-36.5 -26t-44 -9.5z" />
    <glyph glyph-name="uni0304" unicode="&#x304;" 
d="M453 657h-306v111h306v-111z" />
    <glyph glyph-name="uni0306" unicode="&#x306;" 
d="M300 611q-42 0 -73 15t-52 39.5t-33 56.5t-15 65l88 15q9 -36 29.5 -58.5t55.5 -22.5t55.5 22.5t29.5 58.5l88 -15q-3 -33 -15 -65t-33.5 -56.5t-52.5 -39.5t-72 -15z" />
    <glyph glyph-name="uni0307" unicode="&#x307;" 
d="M300 630q-42 0 -68.5 26t-26.5 64t26.5 64t68.5 26t68 -26t26 -64t-26 -64t-68 -26z" />
    <glyph glyph-name="uni0308" unicode="&#x308;" 
d="M184 637q-35 0 -59 23t-24 58q0 34 24 57t59 23t59 -23t24 -57q0 -35 -24 -58t-59 -23zM416 637q-34 0 -58.5 23t-24.5 58q0 34 24.5 57t58.5 23q35 0 59 -23t24 -57q0 -35 -24 -58t-59 -23z" />
    <glyph glyph-name="uni030A" unicode="&#x30a;" 
d="M299 684q20 0 32.5 12t12.5 38q0 25 -12.5 37t-32.5 12t-32 -12t-12 -37q0 -26 12 -38t32 -12zM299 601q-32 0 -58 11t-44 29t-27.5 42t-9.5 51t9.5 51t27.5 42t44 28.5t58 10.5q33 0 59 -10.5t44 -28.5t27.5 -42t9.5 -51t-9.5 -51t-27.5 -42t-44 -29t-59 -11z" />
    <glyph glyph-name="uni030B" unicode="&#x30b;" 
d="M114 661l100 197l108 -50l-125 -183zM277 663l101 195l107 -52l-126 -182z" />
    <glyph glyph-name="uni030C" unicode="&#x30c;" 
d="M433 816l57 -65l-141 -140h-98l-142 140l58 65l133 -94z" />
    <glyph glyph-name="uni0312" unicode="&#x312;" 
d="M373 875l-27 -115q14 -11 23.5 -27t9.5 -38q0 -32 -22.5 -55t-57.5 -23q-34 0 -56.5 22t-22.5 56q0 18 6.5 39t17.5 44l49 97h80z" />
    <glyph glyph-name="uni0313" unicode="&#x313;" 
d="M226 621l27 115q-14 11 -23.5 27t-9.5 38q0 32 22.5 55t57.5 23q34 0 56.5 -22t22.5 -56q0 -18 -6.5 -39t-17.5 -44l-49 -97h-80z" />
    <glyph glyph-name="uni0326" unicode="&#x326;" 
d="M226 -323l27 115q-14 11 -23.5 27t-9.5 38q0 32 22.5 55t57.5 23q34 0 56.5 -22t22.5 -56q0 -18 -6.5 -39t-17.5 -44l-49 -97h-80z" />
    <glyph glyph-name="uni0327" unicode="&#x327;" 
d="M319 -145q0 20 -23 26.5t-69 6.5l14 128h89v-64q53 -6 78.5 -32t25.5 -67q0 -51 -40.5 -83.5t-109.5 -32.5q-36 0 -67 9.5t-51 21.5l37 73q15 -8 31 -12.5t33 -4.5q24 0 38 7t14 24z" />
    <glyph glyph-name="uni0328" unicode="&#x328;" 
d="M371 0q-28 -16 -46 -31.5t-28 -31t-14 -29.5t-4 -27q0 -21 13 -35t40 -14q19 0 36.5 4.5t28.5 9.5l32 -77q-25 -13 -54 -20t-59 -7q-66 0 -106 32.5t-40 89.5q0 53 47.5 97t130.5 67z" />
    <glyph glyph-name="uni0335" unicode="&#x335;" 
d="M498 282h-397v94h397v-94z" />
    <glyph glyph-name="uni0336" unicode="&#x336;" 
d="M634 282h-667v94h667v-94z" />
    <glyph glyph-name="tonos" unicode="&#x384;" 
d="M198 602l38 252l166 -31l-89 -238z" />
    <glyph glyph-name="dieresistonos" unicode="&#x385;" 
d="M167 608q-34 0 -57.5 22.5t-23.5 55.5q0 32 23.5 54.5t57.5 22.5q33 0 56 -22.5t23 -54.5q0 -33 -23 -55.5t-56 -22.5zM434 608q-33 0 -56 22.5t-23 55.5q0 32 23 54.5t56 22.5q35 0 57.5 -22.5t22.5 -54.5q0 -33 -22.5 -55.5t-57.5 -22.5zM416 927l-73 -191l-90 14
l29 200z" />
    <glyph glyph-name="Alphatonos" unicode="&#x386;" 
d="M399 149h-201l-36 -149h-174l212 693h201l212 -693h-178zM224 269h148l-71 293h-5zM-47 494l51 226l168 -28l-103 -221z" />
    <glyph glyph-name="Epsilontonos" unicode="&#x388;" 
d="M253 575v-165h240v-116h-240v-175h289v-119h-455v693h455l-17 -118h-272zM-148 494l51 226l168 -28l-103 -221z" />
    <glyph glyph-name="Etatonos" unicode="&#x389;" 
d="M383 0v296h-166v-296h-166v693h166v-268h166v268h166v-693h-166zM-184 494l51 226l168 -28l-103 -221z" />
    <glyph glyph-name="Iotatonos" unicode="&#x38a;" 
d="M74 693h452v-121h-143v-450h143v-122h-452v122h143v450h-143v121zM-154 494l51 226l168 -28l-103 -221z" />
    <glyph glyph-name="Omicrontonos" unicode="&#x38c;" 
d="M578 347q0 -83 -18 -150t-53 -114.5t-87 -73.5t-120 -26t-120 25t-87 72.5t-53 115t-18 151.5q0 82 18 149.5t53 115t87 73.5t120 26t120 -25t87 -72.5t53 -115t18 -151.5zM408 347q0 128 -25 185.5t-83 57.5t-83 -57.5t-25 -185.5t25.5 -185.5t82.5 -57.5q60 0 84 58
t24 185zM-134 494l51 226l168 -28l-103 -221z" />
    <glyph glyph-name="Upsilontonos" unicode="&#x38e;" 
d="M383 260v-260h-166v259l-226 434h182l128 -292h4l129 292h175zM-230 494l51 226l168 -28l-103 -221z" />
    <glyph glyph-name="Omegatonos" unicode="&#x38f;" 
d="M300 589q-57 0 -82.5 -52t-25.5 -159q0 -113 18.5 -174.5t62.5 -87.5v-116h-240v118h109v4q-61 32 -90.5 97t-29.5 159q0 72 18.5 133t53.5 105.5t87 69.5t119 25t119 -25t87 -69.5t53.5 -105.5t18.5 -133q0 -94 -30 -159t-91 -97v-4h110v-118h-240v116q44 25 62.5 87
t18.5 175q0 107 -25.5 159t-82.5 52zM-135 494l51 226l168 -28l-103 -221z" />
    <glyph glyph-name="iotadieresistonos" unicode="&#x390;" 
d="M200 425q-32 -3 -64 -3q-24 0 -48.5 2t-50.5 6l13 110q73 -6 147 -6q77 0 163 6v-373q0 -32 18 -45t50 -13q20 0 39 4.5t36 11.5l38 -107q-27 -14 -65 -24.5t-89 -10.5q-88 0 -137.5 48t-49.5 130v264zM146 608q-34 0 -57.5 22.5t-23.5 55.5q0 32 23.5 54.5t57.5 22.5
q33 0 56 -22.5t23 -54.5q0 -33 -23 -55.5t-56 -22.5zM413 608q-33 0 -56 22.5t-23 55.5q0 32 23 54.5t56 22.5q35 0 57.5 -22.5t22.5 -54.5q0 -33 -22.5 -55.5t-57.5 -22.5zM395 927l-73 -191l-90 14l29 200z" />
    <glyph glyph-name="Alpha" unicode="&#x391;" 
d="M399 149h-201l-36 -149h-174l212 693h201l212 -693h-178zM224 269h148l-71 293h-5z" />
    <glyph glyph-name="Beta" unicode="&#x392;" 
d="M401 210q0 54 -31 75t-83 21h-66v-185h59q24 0 46 3.5t38.5 13t26.5 27t10 45.5zM375 499q0 41 -25.5 59t-79.5 18h-49v-159h54q53 0 76.5 19t23.5 63zM572 203q0 -60 -23.5 -99t-63 -62.5t-91 -32.5t-108.5 -9h-231v693h221q54 0 102 -8.5t84.5 -29t58 -54.5t21.5 -85
q0 -31 -10.5 -56t-28 -43.5t-38.5 -30t-42 -16.5v-4q25 -5 51.5 -16t48.5 -30t35.5 -47.5t13.5 -69.5z" />
    <glyph glyph-name="Gamma" unicode="&#x393;" 
d="M559 693l-16 -130h-288v-563h-166v693h470z" />
    <glyph glyph-name="uni0394" unicode="&#x394;" 
d="M200 693h201l212 -693h-625zM187 122h222l-108 440h-5z" />
    <glyph glyph-name="Epsilon" unicode="&#x395;" 
d="M252 575v-165h221v-118h-221v-173h269v-119h-435v693h436l-18 -118h-252z" />
    <glyph glyph-name="Zeta" unicode="&#x396;" 
d="M237 132h322l-17 -132h-501v124l323 441h-292v128h481v-125z" />
    <glyph glyph-name="Eta" unicode="&#x397;" 
d="M383 0v296h-166v-296h-166v693h166v-268h166v268h166v-693h-166z" />
    <glyph glyph-name="Theta" unicode="&#x398;" 
d="M374 307h-149v89h149v-89zM578 347q0 -83 -18 -150t-53 -114.5t-87 -73.5t-120 -26t-120 25t-87 72.5t-53 115t-18 151.5q0 82 18 149.5t53 115t87 73.5t120 26t120 -25t87 -72.5t53 -115t18 -151.5zM414 347q0 130 -28 186.5t-86 56.5t-86 -56.5t-28 -186.5t28.5 -186.5
t85.5 -56.5q59 0 86.5 57t27.5 186z" />
    <glyph glyph-name="Iota" unicode="&#x399;" 
d="M74 693h452v-121h-143v-450h143v-122h-452v122h143v450h-143v121z" />
    <glyph glyph-name="Kappa" unicode="&#x39a;" 
d="M224 0h-166v693h166v-693zM229 370l187 323h174l-194 -311l213 -382h-192z" />
    <glyph glyph-name="Lambda" unicode="&#x39b;" 
d="M301 560h-5l-129 -560h-175l208 693h201l207 -693h-178z" />
    <glyph glyph-name="Mu" unicode="&#x39c;" 
d="M154 537q2 -23 3.5 -45.5t3 -47t2.5 -51.5t1 -59v-42l-5 -292h-142l39 693h170l73 -435h4l71 435h170l39 -693h-145l-8 295q-1 17 -1 32v29q0 27 0.5 50t2 44t3.5 42t4 45h-4l-73 -419h-125l-79 419h-4z" />
    <glyph glyph-name="Nu" unicode="&#x39d;" 
d="M348 0l-177 538h-4q3 -16 7.5 -44.5t8.5 -65t6.5 -80t2.5 -89.5v-259h-141v693h207l171 -539h4q-8 38 -16.5 110t-8.5 166v263h141v-693h-201z" />
    <glyph glyph-name="Xi" unicode="&#x39e;" 
d="M52 0v136h496v-136h-496zM548 693l-19 -131h-477v131h496zM485 414v-124h-373v124h373z" />
    <glyph glyph-name="Omicron" unicode="&#x39f;" 
d="M578 347q0 -83 -18 -150t-53 -114.5t-87 -73.5t-120 -26t-120 25t-87 72.5t-53 115t-18 151.5q0 82 18 149.5t53 115t87 73.5t120 26t120 -25t87 -72.5t53 -115t18 -151.5zM408 347q0 128 -25 185.5t-83 57.5t-83 -57.5t-25 -185.5t25.5 -185.5t82.5 -57.5q60 0 84 58
t24 185z" />
    <glyph glyph-name="Pi" unicode="&#x3a0;" 
d="M383 0v566h-166v-566h-166v693h498v-693h-166z" />
    <glyph glyph-name="Rho" unicode="&#x3a1;" 
d="M406 467q0 108 -124 108h-55v-225h61q57 0 87.5 28t30.5 89zM577 467q0 -61 -20 -105.5t-56 -74t-87 -43.5t-112 -14h-75v-230h-166v693h219q142 0 219.5 -56t77.5 -170z" />
    <glyph glyph-name="Sigma" unicode="&#x3a3;" 
d="M423 311l-187 -188h310v-123h-492v120l211 221l-211 232v120h492v-120h-308l185 -197v-65z" />
    <glyph glyph-name="Tau" unicode="&#x3a4;" 
d="M382 566v-566h-166v566h-194v127h562l-17 -127h-185z" />
    <glyph glyph-name="Upsilon" unicode="&#x3a5;" 
d="M383 260v-260h-166v259l-226 434h182l128 -292h4l129 292h175z" />
    <glyph glyph-name="Phi" unicode="&#x3a6;" 
d="M243 80q-123 4 -181 69.5t-58 200.5q0 136 58.5 197.5t180.5 66.5v79h114v-79q118 -5 178.5 -66.5t60.5 -197.5q0 -135 -60.5 -200.5t-178.5 -69.5v-80h-114v80zM151 350q0 -42 4.5 -75t16 -55.5t31 -34.5t50.5 -13v353q-59 -1 -80.5 -45t-21.5 -130zM449 350
q0 86 -22 130t-80 45v-353q31 1 50.5 13t31 35t16 55.5t4.5 74.5z" />
    <glyph glyph-name="Chi" unicode="&#x3a7;" 
d="M16 693h181l99 -216h4l105 216h176l-186 -318l203 -375h-181l-119 257h-4l-116 -257h-177l196 368z" />
    <glyph glyph-name="Psi" unicode="&#x3a8;" 
d="M227 0v186q-112 16 -164 81.5t-52 166.5v259h140v-263q0 -29 3.5 -52.5t13 -40.5t26.5 -28.5t44 -16.5v401h125v-400q52 11 69 45t17 92v263h140v-259q0 -49 -13 -90.5t-39.5 -73.5t-67.5 -53.5t-96 -29.5v-187h-146z" />
    <glyph glyph-name="uni03A9" unicode="&#x3a9;" 
d="M300 589q-57 0 -82.5 -52t-25.5 -159q0 -113 18.5 -174.5t62.5 -87.5v-116h-240v118h109v4q-61 32 -90.5 97t-29.5 159q0 72 18.5 133t53.5 105.5t87 69.5t119 25t119 -25t87 -69.5t53.5 -105.5t18.5 -133q0 -94 -30 -159t-91 -97v-4h110v-118h-240v116q44 25 62.5 87
t18.5 175q0 107 -25.5 159t-82.5 52z" />
    <glyph glyph-name="Iotadieresis" unicode="&#x3aa;" 
d="M74 693h452v-121h-143v-450h143v-122h-452v122h143v450h-143v121zM184 756q-35 0 -59 23.5t-24 58.5q0 33 24 56.5t59 23.5t59 -23.5t24 -56.5q0 -35 -24 -58.5t-59 -23.5zM416 756q-35 0 -59 23.5t-24 58.5q0 33 24 56.5t59 23.5t59 -23.5t24 -56.5q0 -35 -24 -58.5
t-59 -23.5z" />
    <glyph glyph-name="Upsilondieresis" unicode="&#x3ab;" 
d="M383 260v-260h-166v259l-226 434h182l128 -292h4l129 292h175zM185 756q-35 0 -59 23.5t-24 58.5q0 33 24 56.5t59 23.5t59 -23.5t24 -56.5q0 -35 -24 -58.5t-59 -23.5zM417 756q-35 0 -59 23.5t-24 58.5q0 33 24 56.5t59 23.5t59 -23.5t24 -56.5q0 -35 -24 -58.5
t-59 -23.5z" />
    <glyph glyph-name="alphatonos" unicode="&#x3ac;" 
d="M529 -17q-27 4 -46 12.5t-32.5 24t-23 39.5t-16.5 60h-4q-23 -66 -62.5 -101t-109.5 -35q-94 0 -147.5 73t-53.5 207q0 62 15 114.5t43 90.5t67 59.5t87 21.5q76 0 115.5 -35t57.5 -98h4l25 125l129 -36l-90 -234l38 -115q9 -26 21.5 -37t34.5 -16zM264 99q13 0 26 7.5
t24.5 26t21.5 51t19 82.5q-14 91 -34.5 128.5t-52.5 37.5q-35 0 -53.5 -40.5t-18.5 -128.5q0 -89 19 -126.5t49 -37.5zM199 602l38 252l166 -31l-89 -238z" />
    <glyph glyph-name="epsilontonos" unicode="&#x3ad;" 
d="M255 602l38 252l166 -31l-89 -238zM420 222h-99q-51 0 -71.5 -15.5t-20.5 -44.5q0 -31 27 -48t82 -17q94 0 165 40l72 -89q-48 -31 -110 -48t-140 -17q-57 0 -105.5 10.5t-83 31.5t-54 52t-19.5 72q0 58 37 90.5t97 41.5v4q-51 13 -82.5 44t-31.5 76q0 34 17.5 61
t49 45.5t73.5 28t92 9.5q63 0 121.5 -13.5t106.5 -42.5l-70 -86q-29 16 -64 23.5t-73 7.5q-44 0 -67.5 -13.5t-23.5 -41.5q0 -26 20 -42.5t63 -16.5h107z" />
    <glyph glyph-name="etatonos" unicode="&#x3ae;" 
d="M235 0h-160v383q0 39 -6.5 77.5t-14.5 64.5l148 20q8 -13 13.5 -33t9.5 -43q71 80 166 80q71 0 108.5 -41.5t37.5 -117.5v-595l-160 -17v567q0 48 -10.5 67t-39.5 19q-25 0 -47 -17t-45 -47v-367zM224 602l38 252l166 -31l-89 -238z" />
    <glyph glyph-name="iotatonos" unicode="&#x3af;" 
d="M200 425q-32 -3 -64 -3q-24 0 -48.5 2t-50.5 6l13 110q73 -6 147 -6q77 0 163 6v-373q0 -32 18 -45t50 -13q20 0 39 4.5t36 11.5l38 -107q-27 -14 -65 -24.5t-89 -10.5q-88 0 -137.5 48t-49.5 130v264zM199 602l38 252l166 -31l-89 -238z" />
    <glyph glyph-name="upsilondieresistonos" unicode="&#x3b0;" 
d="M523 531q12 -61 20.5 -130.5t8.5 -154.5q0 -67 -22 -116.5t-59.5 -82t-86 -48.5t-102.5 -16q-48 0 -88.5 12.5t-69 37t-44.5 61.5t-16 86v351h160v-341q0 -49 17.5 -69.5t51.5 -20.5q43 0 71 38t28 122q0 63 -7 132t-20 139h158zM164 608q-34 0 -57.5 22.5t-23.5 55.5
q0 32 23.5 54.5t57.5 22.5q33 0 56 -22.5t23 -54.5q0 -33 -23 -55.5t-56 -22.5zM431 608q-33 0 -56 22.5t-23 55.5q0 32 23 54.5t56 22.5q35 0 57.5 -22.5t22.5 -54.5q0 -33 -22.5 -55.5t-57.5 -22.5zM413 927l-73 -191l-90 14l29 200z" />
    <glyph glyph-name="alpha" unicode="&#x3b1;" 
d="M529 -17q-27 4 -46 12.5t-32.5 24t-23 39.5t-16.5 60h-4q-23 -66 -62.5 -101t-109.5 -35q-94 0 -147.5 73t-53.5 207q0 62 15 114.5t43 90.5t67 59.5t87 21.5q76 0 115.5 -35t57.5 -98h4l25 125l129 -36l-90 -234l38 -115q9 -26 21.5 -37t34.5 -16zM264 99q13 0 26 7.5
t24.5 26t21.5 51t19 82.5q-14 91 -34.5 128.5t-52.5 37.5q-35 0 -53.5 -40.5t-18.5 -128.5q0 -89 19 -126.5t49 -37.5z" />
    <glyph glyph-name="beta" unicode="&#x3b2;" 
d="M50 348q0 98 21.5 174.5t60 129t91 80t115.5 27.5q46 0 80.5 -12.5t56.5 -33.5t33 -48.5t11 -57.5q0 -62 -37 -102.5t-100 -63.5v-4q79 -7 127 -60.5t48 -155.5q0 -51 -17.5 -94.5t-50 -75.5t-79.5 -50t-105 -18q-68 0 -116.5 25t-79.5 72t-45 114.5t-14 153.5zM301 361
q-20 0 -43 -9t-45 -20q0 -64 5.5 -108.5t16 -72t27.5 -40t41 -12.5q41 0 64.5 30.5t23.5 93.5q0 71 -21 104.5t-69 33.5zM326 647q-22 0 -41.5 -11t-34.5 -35.5t-24.5 -65t-11.5 -99.5l36 16q67 30 95.5 61.5t28.5 79.5q0 26 -12.5 40t-35.5 14z" />
    <glyph glyph-name="gamma" unicode="&#x3b3;" 
d="M233 -220q-28 59 -28 121q0 52 20 112q-41 159 -92.5 275.5t-118.5 201.5l158 57q42 -66 77 -167.5t52 -230.5h4l121 396l160 -37l-210 -482q-14 -32 -20.5 -65t-6.5 -68q0 -23 2.5 -48t7.5 -52z" />
    <glyph glyph-name="delta" unicode="&#x3b4;" 
d="M350 525q55 -22 94.5 -47.5t65 -58t38 -74.5t12.5 -97q0 -60 -18.5 -109t-52 -83.5t-81.5 -53.5t-107 -19q-61 0 -109 18.5t-81.5 52.5t-51 82t-17.5 106q0 77 39.5 133.5t114.5 89.5q-57 30 -77.5 61.5t-20.5 78.5q0 67 55 110.5t166 43.5q62 0 110 -18t82 -45l-76 -87
q-26 19 -52.5 27.5t-57.5 8.5q-35 0 -51 -12t-16 -31q0 -12 3.5 -21t13.5 -17.5t28 -17.5t47 -21zM395 249q0 37 -5 63.5t-17.5 46.5t-34 35.5t-54.5 30.5q-23 -17 -38 -36t-24 -40.5t-12.5 -46.5t-3.5 -53q0 -149 94 -149q47 0 71 35.5t24 113.5z" />
    <glyph glyph-name="epsilon" unicode="&#x3b5;" 
d="M420 222h-99q-51 0 -71.5 -15.5t-20.5 -44.5q0 -31 27 -48t82 -17q94 0 165 40l72 -89q-48 -31 -110 -48t-140 -17q-57 0 -105.5 10.5t-83 31.5t-54 52t-19.5 72q0 58 37 90.5t97 41.5v4q-51 13 -82.5 44t-31.5 76q0 34 17.5 61t49 45.5t73.5 28t92 9.5q63 0 121.5 -13.5
t106.5 -42.5l-70 -86q-29 16 -64 23.5t-73 7.5q-44 0 -67.5 -13.5t-23.5 -41.5q0 -26 20 -42.5t63 -16.5h107z" />
    <glyph glyph-name="zeta" unicode="&#x3b6;" 
d="M327 2q-59 22 -103 44t-73 50t-43 65.5t-14 91.5q0 49 18.5 94.5t53 88t85 84t115.5 82.5l-2 3q-16 -4 -36 -6.5t-44 -2.5q-62 0 -113.5 23.5t-77.5 77.5l100 62q19 -34 52.5 -53t84.5 -19q47 0 86 14t76 43l74 -86q-82 -70 -140 -125.5t-95 -102.5t-54 -88t-17 -83
q0 -29 6 -48.5t21 -35t40 -28.5t63 -27q48 -18 80 -33.5t51.5 -32t28 -36t8.5 -46.5q0 -64 -44.5 -111t-138.5 -87l-58 96q35 20 56 38t21 45q0 16 -14 25.5t-53 23.5z" />
    <glyph glyph-name="eta" unicode="&#x3b7;" 
d="M235 0h-160v383q0 39 -6.5 77.5t-14.5 64.5l148 20q8 -13 13.5 -33t9.5 -43q71 80 166 80q71 0 108.5 -41.5t37.5 -117.5v-595l-160 -17v567q0 48 -10.5 67t-39.5 19q-25 0 -47 -17t-45 -47v-367z" />
    <glyph glyph-name="theta" unicode="&#x3b8;" 
d="M300 759q124 0 191.5 -97t67.5 -289t-68 -291t-191 -99t-191 98t-68 291q0 190 68 288.5t191 98.5zM300 98q24 0 42.5 10.5t31.5 36.5t20.5 70t9.5 110h-209q2 -66 9.5 -110t21 -70t32 -36.5t42.5 -10.5zM300 644q-24 0 -42.5 -10.5t-32 -36.5t-21 -69.5t-8.5 -109.5h208
q-2 66 -9.5 109.5t-20 69.5t-31.5 36.5t-43 10.5z" />
    <glyph glyph-name="iota" unicode="&#x3b9;" 
d="M200 425q-32 -3 -64 -3q-24 0 -48.5 2t-50.5 6l13 110q73 -6 147 -6q77 0 163 6v-373q0 -32 18 -45t50 -13q20 0 39 4.5t36 11.5l38 -107q-27 -14 -65 -24.5t-89 -10.5q-88 0 -137.5 48t-49.5 130v264z" />
    <glyph glyph-name="kappa" unicode="&#x3ba;" 
d="M237 278l193 269l131 -58l-161 -202l109 -132q19 -23 36 -32.5t38 -14.5l-54 -126q-27 3 -48.5 10t-40 20t-35.5 33t-36 49zM233 0h-160v528q0 69 -6.5 118.5t-18.5 95.5l156 17q17 -42 23 -100t6 -142v-517z" />
    <glyph glyph-name="lambda" unicode="&#x3bb;" 
d="M202 536h52q-11 27 -24 45.5t-32 32t-46.5 21.5t-67.5 14l19 109q75 -10 127 -28.5t88 -53t59.5 -87.5t42.5 -131q20 -84 39.5 -148t39.5 -114.5t42.5 -89.5t49.5 -73l-158 -50q-26 38 -46 80t-36 93.5t-29.5 114.5t-25.5 143h-4l-108 -431l-158 37z" />
    <glyph glyph-name="uni03BC" unicode="&#x3bc;" 
d="M530 531v-342q0 -51 3.5 -98t8.5 -91l-144 -14q-4 14 -7.5 34t-5.5 43q-22 -35 -50.5 -56.5t-63.5 -21.5q-26 0 -44.5 10t-34.5 30l-4 -2q16 -29 25 -59.5t9 -80.5v-88l-151 -16v752h159v-302q0 -32 1.5 -55.5t6.5 -39t16 -23.5t30 -8q26 0 47.5 15t38.5 41v372h160z" />
    <glyph glyph-name="nu" unicode="&#x3bd;" 
d="M203 0q-16 80 -36 157t-44 143.5t-51 117.5t-57 80l146 50q22 -26 42.5 -67t38.5 -95t32.5 -119t23.5 -138h4l120 420l154 -35l-192 -514h-181z" />
    <glyph glyph-name="xi" unicode="&#x3be;" 
d="M239 273q0 -30 8.5 -50t28.5 -35.5t54.5 -30.5t86.5 -35q35 -13 62 -26.5t45 -30.5t27.5 -39.5t9.5 -54.5q0 -63 -45 -110t-138 -87l-58 96q12 6 25 15t24 20t18.5 24.5t7.5 29.5q0 19 -13 29t-47 24q-65 26 -114 48t-81.5 49t-49 63t-16.5 90q0 41 14.5 72t38 53.5
t52.5 36t59 19.5v4q-26 8 -48.5 20.5t-39.5 29.5t-27 40t-10 53q0 39 20 70t53.5 53t78 34t94.5 12q65 0 117.5 -16t96.5 -46l-69 -85q-26 17 -58.5 26t-66.5 9q-46 0 -75.5 -19.5t-29.5 -56.5q0 -47 29.5 -65t85.5 -18h97l-15 -105h-86q-70 0 -108 -27.5t-38 -82.5z" />
    <glyph glyph-name="omicron" unicode="&#x3bf;" 
d="M300 549q61 0 109.5 -20t81.5 -57t50.5 -89t17.5 -116q0 -134 -68 -209t-191 -75t-191 74t-68 209q0 63 17.5 115.5t51 89.5t81.5 57.5t109 20.5zM300 431q-48 0 -71 -39t-23 -126q0 -88 23 -127t71 -39t71 39t23 128q0 86 -23 125t-71 39z" />
    <glyph glyph-name="pi" unicode="&#x3c0;" 
d="M88 0v416h-67v115h413q42 0 73.5 4t60.5 12l18 -116q-35 -11 -83 -14v-237q0 -33 10.5 -51t33.5 -29l-47 -117q-70 12 -111 53t-41 123v257h-105v-416h-155z" />
    <glyph glyph-name="rho" unicode="&#x3c1;" 
d="M67 275q0 131 60 202.5t184 71.5q248 0 248 -282q0 -60 -14 -112t-40.5 -90t-64.5 -60t-87 -22q-38 0 -70 13.5t-56 42.5v-244l-160 -17v497zM304 100q44 0 67 38.5t23 126.5q0 49 -5.5 81t-16.5 51t-27 27t-36 8q-46 0 -64 -42.5t-18 -141.5v-101q31 -47 77 -47z" />
    <glyph glyph-name="sigma1" unicode="&#x3c2;" 
d="M385 121q36 -14 63.5 -27.5t47 -30t29.5 -39t10 -53.5q0 -63 -45.5 -110t-137.5 -87l-59 96q33 20 55 38.5t22 47.5q0 10 -4.5 18t-15 15t-28.5 15t-45 19q-44 18 -80.5 38.5t-63 49.5t-41.5 69.5t-15 98.5q0 57 20 106.5t57 86t88.5 57t114.5 20.5q61 0 109 -17t87 -49
l-69 -95q-51 38 -115 38q-54 0 -89.5 -34t-35.5 -113q0 -33 7.5 -55.5t24 -40t43.5 -32t66 -30.5z" />
    <glyph glyph-name="sigma" unicode="&#x3c3;" 
d="M596 453q-23 -6 -53.5 -9t-70.5 -5q41 -29 64 -74.5t23 -110.5q0 -62 -17.5 -112.5t-51 -85.5t-81.5 -54t-109 -19q-122 0 -190.5 73t-68.5 207q0 63 17 114t50.5 87t83.5 56t115 20q83 0 148.5 4t122.5 15zM345 435q-35 0 -61.5 -8t-43.5 -27t-25.5 -52.5t-8.5 -84.5
q0 -87 23 -125t71 -38t70.5 38t22.5 125q0 77 -13.5 115.5t-34.5 56.5z" />
    <glyph glyph-name="tau" unicode="&#x3c4;" 
d="M198 414h-161v117h356q45 0 78 4t62 12l18 -118q-47 -15 -127 -15h-66v-247q0 -32 18 -45t49 -13q21 0 40 4.5t36 11.5l38 -107q-27 -14 -65 -24.5t-89 -10.5q-88 0 -137.5 48t-49.5 130v253z" />
    <glyph glyph-name="upsilon" unicode="&#x3c5;" 
d="M523 531q12 -61 20.5 -130.5t8.5 -154.5q0 -67 -22 -116.5t-59.5 -82t-86 -48.5t-102.5 -16q-48 0 -88.5 12.5t-69 37t-44.5 61.5t-16 86v351h160v-341q0 -49 17.5 -69.5t51.5 -20.5q43 0 71 38t28 122q0 63 -7 132t-20 139h158z" />
    <glyph glyph-name="phi" unicode="&#x3c6;" 
d="M234 324q0 110 39 167.5t127 57.5q98 0 140 -71.5t42 -207.5q0 -69 -15.5 -119t-44.5 -84.5t-71 -54t-95 -25.5v-197l-122 -12v209q-115 13 -165.5 78.5t-50.5 174.5q0 89 16 161.5t36 129.5h131q-24 -76 -36.5 -141t-12.5 -128q0 -81 17.5 -123t64.5 -54v239zM356 85
q48 11 68 54.5t20 129.5q0 49 -2 83.5t-7 55.5t-14 30.5t-23 9.5q-29 0 -35.5 -30.5t-6.5 -93.5v-239z" />
    <glyph glyph-name="chi" unicode="&#x3c7;" 
d="M300 83l-113 -305l-152 32l181 374q-38 104 -87 180t-109 130l154 54q42 -52 74.5 -116t54.5 -156h4l101 271l151 -33l-167 -332l186 -360l-157 -44l-117 305h-4z" />
    <glyph glyph-name="psi" unicode="&#x3c8;" 
d="M239 -222v209q-61 6 -101.5 24.5t-65 47t-34.5 65t-10 79.5v328h133v-326q0 -56 18.5 -83.5t59.5 -34.5v441q0 69 -6.5 118.5t-19.5 95.5l120 17q17 -42 23 -100t6 -142v-430q26 5 42.5 18t25.5 33.5t12.5 48t3.5 60.5q0 31 -1.5 66.5t-4.5 72t-7 73.5t-9 72h132
q10 -61 17 -129.5t7 -153.5q0 -119 -50.5 -184t-167.5 -77v-192z" />
    <glyph glyph-name="omega" unicode="&#x3c9;" 
d="M358 362v-123q0 -40 1.5 -66.5t6.5 -42.5t13.5 -23t22.5 -7q28 0 36 37.5t8 123.5q0 63 -10.5 132t-27.5 138h138q14 -55 27 -127.5t13 -161.5q0 -130 -39 -194.5t-114 -64.5q-53 0 -85.5 24.5t-46.5 78.5h-4q-29 -103 -126 -103q-76 0 -116.5 64t-40.5 195
q0 89 13.5 161t27.5 128h138q-18 -70 -28.5 -138.5t-10.5 -131.5q0 -87 9.5 -124t37.5 -37q26 0 34 29.5t8 104.5v108z" />
    <glyph glyph-name="iotadieresis" unicode="&#x3ca;" 
d="M212 425q-32 -3 -64 -3q-24 0 -48.5 2t-50.5 6l13 110q73 -6 147 -6q77 0 163 6v-373q0 -32 18 -45t50 -13q20 0 39 4.5t36 11.5l38 -107q-27 -14 -65 -24.5t-89 -10.5q-88 0 -137.5 48t-49.5 130v264zM175 637q-35 0 -59 23t-24 58q0 34 24 57t59 23t59 -23t24 -57
q0 -35 -24 -58t-59 -23zM407 637q-34 0 -58.5 23t-24.5 58q0 34 24.5 57t58.5 23q35 0 59 -23t24 -57q0 -35 -24 -58t-59 -23z" />
    <glyph glyph-name="upsilondieresis" unicode="&#x3cb;" 
d="M181 637q-35 0 -59 23t-24 58q0 34 24 57t59 23t59 -23t24 -57q0 -35 -24 -58t-59 -23zM413 637q-34 0 -58.5 23t-24.5 58q0 34 24.5 57t58.5 23q35 0 59 -23t24 -57q0 -35 -24 -58t-59 -23zM523 531q12 -61 20.5 -130.5t8.5 -154.5q0 -67 -22 -116.5t-59.5 -82
t-86 -48.5t-102.5 -16q-48 0 -88.5 12.5t-69 37t-44.5 61.5t-16 86v351h160v-341q0 -49 17.5 -69.5t51.5 -20.5q43 0 71 38t28 122q0 63 -7 132t-20 139h158z" />
    <glyph glyph-name="omicrontonos" unicode="&#x3cc;" 
d="M300 549q61 0 109.5 -20t81.5 -57t50.5 -89t17.5 -116q0 -134 -68 -209t-191 -75t-191 74t-68 209q0 63 17.5 115.5t51 89.5t81.5 57.5t109 20.5zM300 431q-48 0 -71 -39t-23 -126q0 -88 23 -127t71 -39t71 39t23 128q0 86 -23 125t-71 39zM241 602l38 252l166 -31
l-89 -238z" />
    <glyph glyph-name="upsilontonos" unicode="&#x3cd;" 
d="M218 602l38 252l166 -31l-89 -238zM523 531q12 -61 20.5 -130.5t8.5 -154.5q0 -67 -22 -116.5t-59.5 -82t-86 -48.5t-102.5 -16q-48 0 -88.5 12.5t-69 37t-44.5 61.5t-16 86v351h160v-341q0 -49 17.5 -69.5t51.5 -20.5q43 0 71 38t28 122q0 63 -7 132t-20 139h158z" />
    <glyph glyph-name="omegatonos" unicode="&#x3ce;" 
d="M358 362v-123q0 -40 1.5 -66.5t6.5 -42.5t13.5 -23t22.5 -7q28 0 36 37.5t8 123.5q0 63 -10.5 132t-27.5 138h138q14 -55 27 -127.5t13 -161.5q0 -130 -39 -194.5t-114 -64.5q-53 0 -85.5 24.5t-46.5 78.5h-4q-29 -103 -126 -103q-76 0 -116.5 64t-40.5 195
q0 89 13.5 161t27.5 128h138q-18 -70 -28.5 -138.5t-10.5 -131.5q0 -87 9.5 -124t37.5 -37q26 0 34 29.5t8 104.5v108zM230 602l38 252l166 -31l-89 -238z" />
    <glyph glyph-name="uni0401" unicode="&#x401;" 
d="M253 575v-165h240v-116h-240v-175h289v-119h-455v693h455l-17 -118h-272zM199 756q-35 0 -59 23.5t-24 58.5q0 33 24 56.5t59 23.5t59 -23.5t24 -56.5q0 -35 -24 -58.5t-59 -23.5zM431 756q-35 0 -59 23.5t-24 58.5q0 33 24 56.5t59 23.5t59 -23.5t24 -56.5
q0 -35 -24 -58.5t-59 -23.5z" />
    <glyph glyph-name="uni0402" unicode="&#x402;" 
d="M284 576v-149q24 20 53.5 32t65.5 12q88 0 133.5 -54.5t45.5 -164.5v-153q0 -62 -16.5 -106.5t-45 -76t-66.5 -52t-82 -35.5l-43 113q31 13 50 27.5t29.5 33.5t14.5 43t4 56v165q0 47 -15.5 66t-51.5 19q-25 0 -43.5 -9t-32.5 -23v-320h-152v576h-140v117h439l-17 -117
h-130z" />
    <glyph glyph-name="uni0403" unicode="&#x403;" 
d="M559 693l-16 -130h-288v-563h-166v693h470zM192 832l216 139l70 -119l-238 -101z" />
    <glyph glyph-name="uni0404" unicode="&#x404;" 
d="M500 541q-29 23 -60 36.5t-71 13.5q-33 0 -61.5 -10.5t-51 -32t-36.5 -55.5t-18 -80h255v-117h-255q6 -98 51 -143t112 -45q51 0 86 17.5t64 40.5l75 -93q-38 -37 -95.5 -63.5t-140.5 -26.5q-72 0 -131 23.5t-101 69.5t-65.5 114.5t-23.5 157.5q0 87 24.5 154.5t68 114
t103 70.5t128.5 24q75 0 127.5 -21t96.5 -56z" />
    <glyph glyph-name="uni0405" unicode="&#x405;" 
d="M569 203q0 -49 -19.5 -89.5t-55.5 -69.5t-88 -45t-118 -16q-95 0 -164.5 29t-112.5 71l84 93q38 -34 84.5 -52t102.5 -18q51 0 82.5 22t31.5 62q0 19 -6 33t-20.5 25.5t-38.5 22t-60 21.5q-60 19 -101.5 40.5t-68 47.5t-38.5 58t-12 71q0 48 20.5 85.5t56.5 63.5
t83.5 39.5t101.5 13.5q79 0 140.5 -23.5t106.5 -66.5l-78 -90q-35 29 -75 43.5t-81 14.5q-47 0 -75 -17t-28 -50q0 -17 6.5 -29t22 -22.5t42 -20.5t66.5 -23q49 -16 88 -35t66 -45.5t41 -61t14 -82.5z" />
    <glyph glyph-name="uni0406" unicode="&#x406;" 
d="M74 693h452v-121h-143v-450h143v-122h-452v122h143v450h-143v121z" />
    <glyph glyph-name="uni0407" unicode="&#x407;" 
d="M74 693h452v-121h-143v-450h143v-122h-452v122h143v450h-143v121zM184 756q-35 0 -59 23.5t-24 58.5q0 33 24 56.5t59 23.5t59 -23.5t24 -56.5q0 -35 -24 -58.5t-59 -23.5zM416 756q-35 0 -59 23.5t-24 58.5q0 33 24 56.5t59 23.5t59 -23.5t24 -56.5q0 -35 -24 -58.5
t-59 -23.5z" />
    <glyph glyph-name="uni0408" unicode="&#x408;" 
d="M86 693h391v-510q0 -74 -24 -129.5t-70 -97.5t-112 -73t-150 -54l-39 118q63 19 106.5 41t71 49t39.5 61t12 78v396h-225v121z" />
    <glyph glyph-name="uni0409" unicode="&#x409;" 
d="M-15 75q10 9 18.5 22.5t15.5 40t12 70.5t9 114l20 371h304v-233q113 0 174.5 -54.5t61.5 -169.5q0 -61 -16.5 -105.5t-47.5 -73.5t-74 -43t-97 -14h-127v588h-56l-13 -284q-4 -88 -13 -142t-24 -88t-37 -54.5t-51 -39.5zM364 356v-249h15q46 0 65.5 34t19.5 94
q0 58 -20.5 89.5t-69.5 31.5h-10z" />
    <glyph glyph-name="uni040A" unicode="&#x40a;" 
d="M241 0v340h-83v-340h-130v693h130v-252h83v252h129v-252q106 -2 168 -52t62 -159q0 -230 -240 -230h-119zM370 104q54 0 75.5 28.5t21.5 96.5q0 65 -23.5 88t-73.5 23v-236z" />
    <glyph glyph-name="uni040B" unicode="&#x40b;" 
d="M360 352q-25 0 -43.5 -9t-32.5 -23v-320h-152v576h-140v117h439l-17 -117h-130v-149q24 20 53.5 32t65.5 12q88 0 133.5 -54.5t45.5 -164.5v-252h-155v267q0 47 -15.5 66t-51.5 19z" />
    <glyph glyph-name="uni040C" unicode="&#x40c;" 
d="M279 301h-55v-301h-166v693h166v-272h53l152 272h161l-175 -314l194 -379h-181zM173 832l216 139l70 -119l-238 -101z" />
    <glyph glyph-name="uni040E" unicode="&#x40e;" 
d="M-6 693h172l143 -409h4l127 409h168l-175 -456q-26 -67 -53.5 -113t-63.5 -75.5t-84.5 -44.5t-115.5 -21l-22 113q37 4 63.5 10.5t46 16.5t33 25t25.5 35h-53zM306 747q-41 0 -73 11.5t-54 32t-35 47.5t-16 59l88 15q11 -32 33.5 -46.5t56.5 -14.5q35 0 58 14.5t34 46.5
l88 -15q-3 -32 -16 -59t-35.5 -47.5t-54.5 -32t-74 -11.5z" />
    <glyph glyph-name="uni040F" unicode="&#x40f;" 
d="M368 0v-166h-115l-18 166h-184v693h166v-564h166v564h166v-693h-181z" />
    <glyph glyph-name="uni0410" unicode="&#x410;" 
d="M399 149h-201l-36 -149h-174l212 693h201l212 -693h-178zM224 269h148l-71 293h-5z" />
    <glyph glyph-name="uni0411" unicode="&#x411;" 
d="M222 444h69q132 0 205 -53t73 -163q0 -57 -20 -99.5t-56 -71t-85.5 -43t-107.5 -14.5h-244v693h437l-16 -126h-255v-123zM222 325v-201h60q54 0 83.5 23.5t29.5 79.5q0 98 -115 98h-58z" />
    <glyph glyph-name="uni0412" unicode="&#x412;" 
d="M401 210q0 54 -31 75t-83 21h-66v-185h59q24 0 46 3.5t38.5 13t26.5 27t10 45.5zM375 499q0 41 -25.5 59t-79.5 18h-49v-159h54q53 0 76.5 19t23.5 63zM572 203q0 -60 -23.5 -99t-63 -62.5t-91 -32.5t-108.5 -9h-231v693h221q54 0 102 -8.5t84.5 -29t58 -54.5t21.5 -85
q0 -31 -10.5 -56t-28 -43.5t-38.5 -30t-42 -16.5v-4q25 -5 51.5 -16t48.5 -30t35.5 -47.5t13.5 -69.5z" />
    <glyph glyph-name="uni0413" unicode="&#x413;" 
d="M559 693l-16 -130h-288v-563h-166v693h470z" />
    <glyph glyph-name="uni0414" unicode="&#x414;" 
d="M28 123q16 18 29 42t23.5 63.5t19.5 99t17 147.5l20 218h387v-570h52v-289h-108l-18 166h-335l-18 -166h-108v289h39zM276 576l-7 -87q-7 -86 -16 -146.5t-22 -102.5t-31 -69.5t-42 -47.5h214v453h-96z" />
    <glyph glyph-name="uni0415" unicode="&#x415;" 
d="M253 575v-165h240v-116h-240v-175h289v-119h-455v693h455l-17 -118h-272z" />
    <glyph glyph-name="uni0416" unicode="&#x416;" 
d="M252 320h-28l-78 -320h-142l107 379l-97 314h136l76 -291h26v291h96v-291h25l76 291h137l-97 -314l107 -379h-143l-78 320h-27v-320h-96v320z" />
    <glyph glyph-name="uni0417" unicode="&#x417;" 
d="M24 621q48 44 117 67t146 23q57 0 104 -13.5t80.5 -38t52 -58t18.5 -73.5q0 -63 -41 -103t-116 -53v-4q80 -8 129 -51.5t49 -118.5q0 -48 -20 -88t-57 -68t-90.5 -43.5t-120.5 -15.5q-88 0 -156.5 25.5t-112.5 73.5l90 85q68 -63 171 -63q60 0 95 26.5t35 74.5
q0 53 -34.5 78t-97.5 25h-115l19 118h96q52 0 83 21t31 63q0 38 -29.5 59.5t-83.5 21.5q-47 0 -88.5 -14t-73.5 -40z" />
    <glyph glyph-name="uni0418" unicode="&#x418;" 
d="M51 0v693h152v-232q0 -108 -8 -178t-16 -119h4l183 529h183v-693h-152v227q0 102 7.5 176t16.5 125h-4l-180 -528h-186z" />
    <glyph glyph-name="uni0419" unicode="&#x419;" 
d="M51 0v693h152v-232q0 -108 -8 -178t-16 -119h4l183 529h183v-693h-152v227q0 102 7.5 176t16.5 125h-4l-180 -528h-186zM299 747q-41 0 -73 11.5t-54 32t-35 47.5t-16 59l88 15q11 -32 33.5 -46.5t56.5 -14.5q35 0 58 14.5t34 46.5l88 -15q-3 -32 -16 -59t-35.5 -47.5
t-54.5 -32t-74 -11.5z" />
    <glyph glyph-name="uni041A" unicode="&#x41a;" 
d="M279 301h-55v-301h-166v693h166v-272h53l152 272h161l-175 -314l194 -379h-181z" />
    <glyph glyph-name="uni041B" unicode="&#x41b;" 
d="M-13 89q25 18 44 39.5t33 61.5t25.5 107.5t21.5 177.5l20 218h418v-693h-166v567h-107l-9 -110q-10 -124 -25 -204.5t-40 -133t-61.5 -83.5t-88.5 -56z" />
    <glyph glyph-name="uni041C" unicode="&#x41c;" 
d="M154 537q2 -23 3.5 -45.5t3 -47t2.5 -51.5t1 -59v-42l-5 -292h-142l39 693h170l73 -435h4l71 435h170l39 -693h-145l-8 295q-1 17 -1 32v29q0 27 0.5 50t2 44t3.5 42t4 45h-4l-73 -419h-125l-79 419h-4z" />
    <glyph glyph-name="uni041D" unicode="&#x41d;" 
d="M383 0v296h-166v-296h-166v693h166v-268h166v268h166v-693h-166z" />
    <glyph glyph-name="uni041E" unicode="&#x41e;" 
d="M578 347q0 -83 -18 -150t-53 -114.5t-87 -73.5t-120 -26t-120 25t-87 72.5t-53 115t-18 151.5q0 82 18 149.5t53 115t87 73.5t120 26t120 -25t87 -72.5t53 -115t18 -151.5zM408 347q0 128 -25 185.5t-83 57.5t-83 -57.5t-25 -185.5t25.5 -185.5t82.5 -57.5q60 0 84 58
t24 185z" />
    <glyph glyph-name="uni041F" unicode="&#x41f;" 
d="M383 0v566h-166v-566h-166v693h498v-693h-166z" />
    <glyph glyph-name="uni0420" unicode="&#x420;" 
d="M406 467q0 108 -124 108h-55v-225h61q57 0 87.5 28t30.5 89zM577 467q0 -61 -20 -105.5t-56 -74t-87 -43.5t-112 -14h-75v-230h-166v693h219q142 0 219.5 -56t77.5 -170z" />
    <glyph glyph-name="uni0421" unicode="&#x421;" 
d="M500 538q-29 23 -60 36.5t-71 13.5q-36 0 -65.5 -13.5t-51.5 -43t-34 -75t-12 -108.5q0 -62 11.5 -107t32.5 -74t50 -42.5t65 -13.5q51 0 86 17.5t64 40.5l75 -96q-38 -37 -95.5 -63.5t-140.5 -26.5q-72 0 -131 23.5t-101 69.5t-65.5 114.5t-23.5 157.5q0 87 24.5 154.5
t68 114t103 70.5t128.5 24q75 0 127.5 -21t96.5 -56z" />
    <glyph glyph-name="uni0422" unicode="&#x422;" 
d="M382 566v-566h-166v566h-194v127h562l-17 -127h-185z" />
    <glyph glyph-name="uni0423" unicode="&#x423;" 
d="M-6 693h172l143 -409h4l127 409h168l-175 -456q-26 -67 -53.5 -113t-63.5 -75.5t-84.5 -44.5t-115.5 -21l-22 113q37 4 63.5 10.5t46 16.5t33 25t25.5 35h-53z" />
    <glyph glyph-name="uni0424" unicode="&#x424;" 
d="M243 38q-122 8 -180.5 87t-58.5 225q0 147 58 222.5t181 83.5v74h114v-74q122 -8 180.5 -83.5t58.5 -222.5q0 -146 -59 -225t-180 -87v-77h-114v77zM441 350q0 56 -4.5 96t-15.5 66t-29 39t-45 16v-438q28 3 46 17t28.5 41t15 67t4.5 96zM159 350q0 -56 4.5 -96t15 -67
t28.5 -41t46 -17v438q-26 -3 -44 -16t-29 -39t-16 -66t-5 -96z" />
    <glyph glyph-name="uni0425" unicode="&#x425;" 
d="M16 693h181l99 -216h4l105 216h176l-186 -318l203 -375h-181l-119 257h-4l-116 -257h-177l196 368z" />
    <glyph glyph-name="uni0426" unicode="&#x426;" 
d="M535 129h60v-295h-115l-18 166h-418v693h166v-564h159v564h166v-564z" />
    <glyph glyph-name="uni0427" unicode="&#x427;" 
d="M383 0v256q-29 -22 -64 -34t-79 -12q-103 0 -159.5 59.5t-56.5 177.5v246h166v-241q0 -66 22.5 -92.5t73.5 -26.5q35 0 58 10.5t39 24.5v325h166v-693h-166z" />
    <glyph glyph-name="uni0428" unicode="&#x428;" 
d="M161 693v-580h83v580h112v-580h83v580h126v-693h-530v693h126z" />
    <glyph glyph-name="uni0429" unicode="&#x429;" 
d="M157 693v-580h83v580h112v-580h84v580h126v-580h46v-279h-102l-18 166h-457v693h126z" />
    <glyph glyph-name="uni042A" unicode="&#x42a;" 
d="M90 572h-93v121h249v-233h51q136 0 213 -54.5t77 -169.5q0 -61 -20.5 -105.5t-57.5 -73.5t-88 -43t-112 -14h-219v572zM246 345v-227h32q33 0 59 5.5t44 19t27.5 36t9.5 56.5q0 56 -30.5 83t-96.5 27h-45z" />
    <glyph glyph-name="uni042B" unicode="&#x42b;" 
d="M21 693h130v-230q135 -2 203.5 -54t68.5 -172q0 -62 -18 -106.5t-51.5 -73.5t-81 -43t-106.5 -14h-145v693zM449 0v693h130v-693h-130zM151 359v-254h17q60 0 89.5 28t29.5 103q0 57 -26 90t-83 33h-27z" />
    <glyph glyph-name="uni042C" unicode="&#x42c;" 
d="M54 693h166v-233h67q136 0 213 -54.5t77 -169.5q0 -60 -20 -104.5t-56.5 -73.5t-88 -43.5t-114.5 -14.5h-244v693zM220 342v-221h67q57 0 87 27t30 87q0 56 -30 81.5t-93 25.5h-61z" />
    <glyph glyph-name="uni042D" unicode="&#x42d;" 
d="M137 413h254q-5 97 -42 137.5t-103 40.5q-49 0 -84.5 -17t-62.5 -40l-78 90q48 40 105 63.5t134 23.5q142 0 221.5 -91.5t79.5 -268.5q0 -93 -23 -162t-65 -114.5t-101 -68.5t-130 -23q-70 0 -128 23t-101 65l79 92q32 -26 66.5 -40.5t82.5 -14.5q66 0 106 43t44 145
h-254v117z" />
    <glyph glyph-name="uni042E" unicode="&#x42e;" 
d="M588 347q0 -90 -10 -158t-32.5 -114t-60 -69t-91.5 -23q-52 0 -88 20.5t-58.5 61.5t-33 102t-12.5 141h-45v-308h-126v693h126v-279h46q6 142 49.5 219.5t141.5 77.5q55 0 92.5 -22.5t60 -68t32 -114t9.5 -159.5zM451 347q0 77 -2.5 126.5t-9 78.5t-17.5 40.5t-28 11.5
t-27.5 -11.5t-17.5 -40t-9.5 -78.5t-2.5 -126t2.5 -126t9 -79t17.5 -41t28 -12t28 11.5t17.5 41t9 79t2.5 125.5z" />
    <glyph glyph-name="uni042F" unicode="&#x42f;" 
d="M36 473q0 111 71.5 165.5t213.5 54.5h228v-693h-166v250h-81l-119 -250h-182l153 281q-58 26 -88 73t-30 119zM210 469q0 -59 31.5 -82.5t86.5 -23.5h55v214h-59q-56 0 -85 -27t-29 -81z" />
    <glyph glyph-name="uni0430" unicode="&#x430;" 
d="M518 154q0 -30 8 -43.5t27 -20.5l-33 -105q-48 5 -80 21t-51 49q-31 -37 -79 -54.5t-96 -17.5q-41 0 -74.5 12.5t-57 34.5t-36.5 52.5t-13 67.5q0 87 68 134t192 47h71v19q0 41 -27.5 61t-78.5 20q-24 0 -64 -7t-80 -21l-37 106q52 20 107.5 30t97.5 10q122 0 179 -47
t57 -141v-207zM269 97q26 0 53.5 15t41.5 43v85h-38q-66 0 -96.5 -20t-30.5 -59q0 -30 19.5 -47t50.5 -17z" />
    <glyph glyph-name="uni0431" unicode="&#x431;" 
d="M504 658q-22 -15 -42 -25.5t-41.5 -19t-45 -16.5t-52.5 -17q-32 -10 -54.5 -23t-37.5 -31.5t-23 -45t-11 -63.5h3q43 84 152 84q43 0 80.5 -17t65 -50t43 -80.5t15.5 -108.5q0 -65 -19 -114t-53.5 -82t-81.5 -49.5t-102 -16.5q-124 0 -190.5 76t-66.5 241q0 82 9.5 145
t33.5 109t65.5 76.5t105.5 49.5q31 9 55.5 17.5t45.5 17.5t42 19.5t46 24.5zM304 388q-49 0 -75.5 -34t-26.5 -112q0 -72 25.5 -108.5t72.5 -36.5q21 0 38.5 6.5t31 23t21 44.5t7.5 72q0 80 -24 112.5t-70 32.5z" />
    <glyph glyph-name="uni0432" unicode="&#x432;" 
d="M398 173q0 32 -21 50t-64 18h-75v-136h72q46 0 67 17.5t21 50.5zM381 385q0 62 -85 62q-17 0 -31.5 -1t-26.5 -3v-119h66q77 0 77 61zM535 407q0 -44 -30 -73t-78 -39v-4q59 -8 95.5 -43t36.5 -89q0 -43 -19 -73.5t-52.5 -49.5t-78 -27.5t-95.5 -8.5h-236v526
q57 11 109.5 17t110.5 6q51 0 94.5 -8t75 -25.5t49.5 -44.5t18 -64z" />
    <glyph glyph-name="uni0433" unicode="&#x433;" 
d="M281 0h-160v531h418l-18 -123h-240v-408z" />
    <glyph glyph-name="uni0434" unicode="&#x434;" 
d="M136 0l-17 -150h-106v263h42q13 13 23 30.5t17.5 45.5t13.5 69.5t11 102.5l14 170h389v-418h51v-263h-106l-17 150h-315zM271 367q-5 -62 -12 -104t-16.5 -70.5t-23.5 -46.5t-33 -33h188v307h-99z" />
    <glyph glyph-name="uni0435" unicode="&#x435;" 
d="M208 219q8 -65 42 -92.5t85 -27.5q34 0 66.5 11t66.5 37l67 -91q-39 -31 -93 -52t-119 -21q-69 0 -121.5 21t-87 58.5t-52 89t-17.5 113.5q0 59 17 110.5t50 90t81 61t110 22.5q57 0 103.5 -18.5t79.5 -53.5t51 -86t18 -115q0 -14 -0.5 -29.5t-2.5 -27.5h-344zM304 442
q-42 0 -67.5 -30.5t-30.5 -96.5h193q-1 57 -22.5 92t-72.5 35z" />
    <glyph glyph-name="uni0436" unicode="&#x436;" 
d="M249 0v232h-25l-87 -232h-143l125 285l-122 246h139l86 -211h27v211h102v-211h27l87 211h138l-121 -246l125 -285h-143l-88 232h-25v-232h-102z" />
    <glyph glyph-name="uni0437" unicode="&#x437;" 
d="M168 324h96q42 0 63.5 16t21.5 43q0 28 -23 41.5t-65 13.5q-40 0 -78 -9.5t-67 -29.5l-74 85q45 32 108.5 48.5t130.5 16.5q48 0 90 -9.5t72.5 -28.5t48.5 -46.5t18 -63.5q0 -45 -32 -74t-87 -42v-4q32 -4 59 -13.5t46.5 -25.5t30 -38t10.5 -52q0 -42 -19.5 -73.5
t-55 -53t-83.5 -32t-105 -10.5q-80 0 -143.5 19t-105.5 51l78 92q35 -25 76 -36.5t90 -11.5q54 0 78 17.5t24 47.5q0 29 -23.5 44.5t-72.5 15.5h-116z" />
    <glyph glyph-name="uni0438" unicode="&#x438;" 
d="M368 531h163v-531h-151v167q0 68 7 122.5t15 83.5h-4l-166 -373h-163v531h151v-169q0 -60 -6.5 -115t-15.5 -90h4z" />
    <glyph glyph-name="uni0439" unicode="&#x439;" 
d="M368 531h163v-531h-151v167q0 68 7 122.5t15 83.5h-4l-166 -373h-163v531h151v-169q0 -60 -6.5 -115t-15.5 -90h4zM302 607q-41 0 -73 12t-54 32t-35 47.5t-17 59.5l88 16q22 -63 91 -63t92 63l88 -16q-3 -32 -16 -59.5t-35.5 -47.5t-54.5 -32t-74 -12z" />
    <glyph glyph-name="uni043A" unicode="&#x43a;" 
d="M69 0v531h160v-207h64l119 207h155l-146 -246l160 -285h-169l-123 228h-60v-228h-160z" />
    <glyph glyph-name="uni043B" unicode="&#x43b;" 
d="M14 81q19 13 33 29t24.5 44t18 73.5t13.5 117.5l16 186h412v-531h-160v414h-111l-5 -63q-8 -91 -18.5 -152t-29.5 -102t-49 -67.5t-77 -49.5z" />
    <glyph glyph-name="uni043C" unicode="&#x43c;" 
d="M431 179q-1 21 -1.5 42t-0.5 43q0 31 1 61.5t4 62.5h-4l-72 -304h-115l-77 304h-4q6 -56 6 -111q0 -26 -1 -51.5t-2 -52.5l-6 -173h-139l35 531h172l73 -317h4l63 317h177l36 -531h-142z" />
    <glyph glyph-name="uni043D" unicode="&#x43d;" 
d="M370 0v211h-140v-211h-159v531h159v-203h140v203h159v-531h-159z" />
    <glyph glyph-name="uni043E" unicode="&#x43e;" 
d="M300 549q61 0 109.5 -20t81.5 -57t50.5 -89t17.5 -116q0 -134 -68 -209t-191 -75t-191 74t-68 209q0 63 17.5 115.5t51 89.5t81.5 57.5t109 20.5zM300 431q-48 0 -71 -39t-23 -126q0 -88 23 -127t71 -39t71 39t23 128q0 86 -23 125t-71 39z" />
    <glyph glyph-name="uni043F" unicode="&#x43f;" 
d="M370 0v416h-140v-416h-159v531h458v-531h-159z" />
    <glyph glyph-name="uni0440" unicode="&#x440;" 
d="M355 -17q-78 0 -126 55v-243l-160 -17v753h142l7 -59q32 42 70.5 59.5t76.5 17.5q52 0 88.5 -19.5t60 -56.5t34.5 -89t11 -117q0 -62 -13.5 -114t-40 -89.5t-64.5 -59t-86 -21.5zM305 100q42 0 65.5 38t23.5 127q0 49 -5.5 81.5t-16 51t-25.5 26t-34 7.5q-26 0 -46.5 -16
t-37.5 -45v-223q17 -24 34 -35.5t42 -11.5z" />
    <glyph glyph-name="uni0441" unicode="&#x441;" 
d="M351 109q27 0 56 9.5t57 30.5l72 -102q-38 -30 -88 -47t-109 -17q-65 0 -116 20t-86.5 57t-54.5 88.5t-19 113.5t19.5 114.5t55.5 91t87.5 60t115.5 21.5q61 0 109 -17.5t86 -49.5l-69 -96q-27 21 -57.5 30.5t-58.5 9.5q-27 0 -49 -9t-37.5 -28.5t-24.5 -50.5t-9 -76
q0 -44 9.5 -73.5t25.5 -47t38 -25t47 -7.5z" />
    <glyph glyph-name="uni0442" unicode="&#x442;" 
d="M376 413v-413h-160v413h-173v118h512l-19 -118h-160z" />
    <glyph glyph-name="uni0443" unicode="&#x443;" 
d="M27 531h169l100 -421h4l109 421h164l-177 -531q-35 -107 -106 -161.5t-193 -61.5l-18 113q39 5 66.5 13t47 21t33 31.5t24.5 44.5h-55z" />
    <glyph glyph-name="uni0444" unicode="&#x444;" 
d="M357 500q20 26 44 37.5t53 11.5q42 0 68 -19.5t40 -56.5t19 -89.5t5 -118.5q0 -65 -8 -117t-25 -89t-44 -56.5t-66 -19.5q-28 0 -48.5 11.5t-37.5 34.5v-238l-114 -13v250q-34 -45 -87 -45q-38 0 -65 19.5t-44 56.5t-25 89t-8 117q0 66 6.5 118.5t22.5 89.5t43 56.5
t68 19.5q29 0 50 -11.5t39 -36.5v258l114 -13v-246zM401 91q12 0 20.5 8.5t14 29t7.5 53.5t2 83q0 48 -1.5 81.5t-6 54.5t-12 30t-19.5 9q-15 0 -26 -7t-23 -22v-290q11 -16 20.5 -23t23.5 -7zM201 91q13 0 22 8t20 22v290q-10 15 -19 22t-23 7t-23 -9t-14 -30t-7 -54.5
t-2 -81.5q0 -47 2 -80t7 -54t14 -30.5t23 -9.5z" />
    <glyph glyph-name="uni0445" unicode="&#x445;" 
d="M292 194l-98 -194h-173l182 279l-165 252h179l82 -165h4l79 165h170l-156 -246l183 -285h-181l-102 194h-4z" />
    <glyph glyph-name="uni0446" unicode="&#x446;" 
d="M72 0v531h159v-413h131v413h160v-414h60v-273h-105l-18 156h-387z" />
    <glyph glyph-name="uni0447" unicode="&#x447;" 
d="M207 531v-198q0 -38 18.5 -52.5t48.5 -14.5q26 0 50.5 9.5t42.5 24.5v231h160v-531h-160v197q-28 -23 -66 -36t-86 -13q-82 0 -125 44.5t-43 120.5v218h160z" />
    <glyph glyph-name="uni0448" unicode="&#x448;" 
d="M572 531v-531h-544v531h136v-421h81v421h110v-421h80v421h137z" />
    <glyph glyph-name="uni0449" unicode="&#x449;" 
d="M25 0v531h137v-421h81v421h110v-421h79v421h138v-414h44v-273h-105l-18 156h-466z" />
    <glyph glyph-name="uni044A" unicode="&#x44a;" 
d="M265 531v-160h50q255 0 255 -184q0 -96 -63 -141.5t-174 -45.5h-228v417h-84v114h244zM265 266v-156h56q41 0 62.5 17.5t21.5 62.5q0 40 -21 58t-68 18h-51z" />
    <glyph glyph-name="uni044B" unicode="&#x44b;" 
d="M29 531h132v-162q123 -2 183.5 -43.5t60.5 -138.5q0 -94 -57.5 -140.5t-160.5 -46.5h-158v531zM438 0v531h133v-531h-133zM161 275v-176h23q39 0 60 20.5t21 69.5q0 45 -20 65.5t-66 20.5h-18z" />
    <glyph glyph-name="uni044C" unicode="&#x44c;" 
d="M84 531h160v-160h49q256 0 256 -184q0 -54 -19.5 -90t-53 -57.5t-80 -30.5t-100.5 -9h-212v531zM244 266v-156h56q41 0 62.5 17.5t21.5 62.5q0 40 -21 58t-68 18h-51z" />
    <glyph glyph-name="uni044D" unicode="&#x44d;" 
d="M257 99q48 0 80 28.5t40 97.5h-195v92h193q-8 60 -37 88t-76 28q-35 0 -63.5 -9.5t-57.5 -27.5l-68 88q38 32 90.5 48.5t111.5 16.5q63 0 112 -21t82.5 -58.5t51.5 -90t18 -115.5q0 -62 -18.5 -114t-54 -89t-87.5 -57.5t-118 -20.5q-58 0 -107 16t-88 46l71 92
q29 -20 58 -29t62 -9z" />
    <glyph glyph-name="uni044E" unicode="&#x44e;" 
d="M398 549q52 0 88 -20t58.5 -57t32.5 -89t10 -116q0 -66 -10 -118.5t-32.5 -89.5t-58.5 -56.5t-88 -19.5q-47 0 -80.5 16t-56 46t-34.5 73t-15 98h-47v-216h-134v531h134v-208h48q4 51 16 92.5t34.5 71t55.5 46t79 16.5zM398 446q-32 0 -41.5 -42t-9.5 -138
q0 -95 9.5 -137.5t41.5 -42.5q33 0 42.5 43t9.5 138q0 93 -10 136t-42 43z" />
    <glyph glyph-name="uni044F" unicode="&#x44f;" 
d="M59 364q0 86 62 135.5t194 49.5q61 0 115.5 -6.5t95.5 -16.5v-526h-160v185h-79l-97 -185h-171l130 219q-42 23 -66 59.5t-24 85.5zM223 362q0 -43 21 -63t72 -20h50v162q-11 2 -23.5 2.5t-29.5 0.5q-49 0 -69.5 -22t-20.5 -60z" />
    <glyph glyph-name="uni0451" unicode="&#x451;" 
d="M208 219q8 -65 42 -92.5t85 -27.5q34 0 66.5 11t66.5 37l67 -91q-39 -31 -93 -52t-119 -21q-69 0 -121.5 21t-87 58.5t-52 89t-17.5 113.5q0 59 17 110.5t50 90t81 61t110 22.5q57 0 103.5 -18.5t79.5 -53.5t51 -86t18 -115q0 -14 -0.5 -29.5t-2.5 -27.5h-344zM304 442
q-42 0 -67.5 -30.5t-30.5 -96.5h193q-1 57 -22.5 92t-72.5 35zM192 637q-35 0 -59 23t-24 58q0 34 24 57t59 23t59 -23t24 -57q0 -35 -24 -58t-59 -23zM424 637q-34 0 -58.5 23t-24.5 58q0 34 24.5 57t58.5 23q35 0 59 -23t24 -57q0 -35 -24 -58t-59 -23z" />
    <glyph glyph-name="uni0452" unicode="&#x452;" 
d="M71 0v593h-61v93h61v56l160 16v-72h140v-93h-140v-116q33 35 72 53.5t84 18.5q71 0 108.5 -41.5t37.5 -117.5v-308q0 -72 -14 -121t-41.5 -83t-67 -57t-90.5 -43l-56 117q25 11 45 23t34 28.5t22 40t8 57.5v327q0 33 -13.5 46.5t-36.5 13.5q-25 0 -47 -17t-45 -47v-367
h-160z" />
    <glyph glyph-name="uni0453" unicode="&#x453;" 
d="M281 0h-160v531h418l-18 -123h-240v-408zM195 689l215 144l71 -119l-238 -106z" />
    <glyph glyph-name="uni0454" unicode="&#x454;" 
d="M432 225h-209q7 -69 41.5 -97.5t83.5 -28.5q62 0 118 40l68 -92q-38 -30 -90 -47t-109 -17q-65 0 -116 20t-86 57t-53.5 88.5t-18.5 113.5t19.5 114.5t55.5 91t87 60t114 21.5q61 0 109.5 -17t87.5 -50l-68 -89q-29 20 -60 30t-60 10q-51 0 -83 -27.5t-40 -88.5h209v-92z
" />
    <glyph glyph-name="uni0455" unicode="&#x455;" 
d="M278 97q39 0 63 12t24 37q0 13 -5 22.5t-18.5 17.5t-38 16t-64.5 19q-36 10 -66.5 23.5t-52 33t-33.5 46t-12 61.5t15 65t44.5 52t73 34.5t100.5 12.5q68 0 122 -17.5t87 -42.5l-64 -94q-29 19 -66.5 29.5t-75.5 10.5q-75 0 -75 -40q0 -10 5 -17.5t18.5 -15t38 -16
t63.5 -19.5t70 -24t53.5 -32t34.5 -46t12 -66q0 -44 -20.5 -77t-55 -55t-80 -33t-96.5 -11q-78 0 -136.5 21t-100.5 57l80 88q31 -24 70 -38t86 -14z" />
    <glyph glyph-name="uni0456" unicode="&#x456;" 
d="M530 0h-445v109h150v313h-145v109h305v-422h135v-109zM315 630q-41 0 -68 26t-27 64t27 64t68 26t68 -26t27 -64t-27 -64t-68 -26z" />
    <glyph glyph-name="uni0457" unicode="&#x457;" 
d="M188 637q-35 0 -59 23t-24 58q0 34 24 57t59 23t59 -23t24 -57q0 -35 -24 -58t-59 -23zM420 637q-34 0 -58.5 23t-24.5 58q0 34 24.5 57t58.5 23q35 0 59 -23t24 -57q0 -35 -24 -58t-59 -23zM395 109h135v-109h-445v109h150v313h-145v109h305v-422z" />
    <glyph glyph-name="uni0458" unicode="&#x458;" 
d="M69 -104q42 15 77.5 32t61.5 39t40.5 51t14.5 68v336h-170v109h330v-402q0 -78 -20.5 -133t-59.5 -95.5t-95 -69.5t-126 -53zM333 630q-41 0 -68 26t-27 64t27 64t68 26t68 -26t27 -64t-27 -64t-68 -26z" />
    <glyph glyph-name="uni0459" unicode="&#x459;" 
d="M-6 74q15 11 27 25.5t20.5 42t14 73t8.5 117.5l8 199h313v-165h9q111 0 161 -44.5t50 -137.5q0 -92 -54.5 -138t-144.5 -46h-150v430h-58l-4 -105q-3 -86 -11.5 -143t-25.5 -95t-44 -62t-68 -45zM385 272v-175h10q37 0 54.5 19t17.5 70q0 46 -15.5 66t-57.5 20h-9z" />
    <glyph glyph-name="uni045A" unicode="&#x45a;" 
d="M256 250h-84v-250h-130v531h130v-186h84v186h129v-186q115 -2 167.5 -43t52.5 -128q0 -89 -56 -131.5t-159 -42.5h-134v250zM470 176q0 38 -19.5 55t-65.5 19v-149q42 0 63.5 16t21.5 59z" />
    <glyph glyph-name="uni045B" unicode="&#x45b;" 
d="M71 0v593h-61v93h61v56l160 16v-72h140v-93h-140v-116q33 35 72 53.5t84 18.5q71 0 108.5 -41.5t37.5 -117.5v-390h-160v371q0 33 -13.5 46.5t-36.5 13.5q-25 0 -47 -17t-45 -47v-367h-160z" />
    <glyph glyph-name="uni045C" unicode="&#x45c;" 
d="M69 0v531h160v-207h64l119 207h155l-146 -246l160 -285h-169l-123 228h-60v-228h-160zM159 689l215 144l71 -119l-238 -106z" />
    <glyph glyph-name="uni045E" unicode="&#x45e;" 
d="M27 531h169l100 -421h4l109 421h164l-177 -531q-35 -107 -106 -161.5t-193 -61.5l-18 113q39 5 66.5 13t47 21t33 31.5t24.5 44.5h-55zM300 607q-41 0 -73 12t-54 32t-35 47.5t-17 59.5l88 16q22 -63 91 -63t92 63l88 -16q-3 -32 -16 -59.5t-35.5 -47.5t-54.5 -32
t-74 -12z" />
    <glyph glyph-name="uni045F" unicode="&#x45f;" 
d="M72 0v531h159v-413h138v413h159v-531h-168v-156h-105l-17 156h-166z" />
    <glyph glyph-name="uni0462" unicode="&#x462;" 
d="M286 576v-132h37q127 0 196 -53.5t69 -162.5q0 -59 -19.5 -101.5t-55.5 -71t-86.5 -42t-112.5 -13.5h-181v576h-139v117h439l-17 -117h-130zM286 333v-216h32q54 0 82.5 25t28.5 85q0 56 -28.5 81t-85.5 25h-29z" />
    <glyph glyph-name="uni0463" unicode="&#x463;" 
d="M98 455h-63v93h63v110l160 16v-126h133l-14 -93h-119v-86h49q255 0 255 -183q0 -91 -58 -138.5t-170 -47.5h-236v455zM258 264v-154h55q41 0 62.5 17t21.5 62q0 39 -21 57t-68 18h-50z" />
    <glyph glyph-name="uni0472" unicode="&#x472;" 
d="M578 347q0 -83 -18 -150t-53 -114.5t-87 -73.5t-120 -26t-120 25t-87 72.5t-53 115t-18 151.5q0 82 18 149.5t53 115t87 73.5t120 26t120 -25t87 -72.5t53 -115t18 -151.5zM300 104q57 0 83 49t30 155h-226q3 -107 30 -155.5t83 -48.5zM300 590q-54 0 -81 -45t-32 -144
h225q-5 99 -31.5 144t-80.5 45z" />
    <glyph glyph-name="uni0473" unicode="&#x473;" 
d="M300 549q61 0 109.5 -20t81.5 -57t50.5 -89t17.5 -116q0 -134 -68 -209t-191 -75t-191 74t-68 209q0 63 17.5 115.5t51 89.5t81.5 57.5t109 20.5zM300 98q42 0 67.5 28t31.5 96h-198q6 -68 31 -96t68 -28zM300 434q-42 0 -67 -28.5t-31 -93.5h196q-6 65 -31 93.5
t-67 28.5z" />
    <glyph glyph-name="uni0474" unicode="&#x474;" 
d="M300 137h5l95 427q6 28 12 49t12 36.5t12 28.5t14 26l161 -30q-8 -13 -15.5 -26.5t-14 -30t-13.5 -37.5t-15 -50l-149 -530h-207l-198 693h176z" />
    <glyph glyph-name="uni0475" unicode="&#x475;" 
d="M28 531h173l100 -402h4l73 292q11 46 22.5 74.5t25.5 46.5l154 -19q-9 -13 -16 -26t-14.5 -29.5t-15 -37.5t-16.5 -49l-123 -381h-188z" />
    <glyph glyph-name="uni0490" unicode="&#x490;" 
d="M406 693v155h153v-155l-16 -130h-288v-563h-166v693h317z" />
    <glyph glyph-name="uni0491" unicode="&#x491;" 
d="M281 0h-160v531h273v153h145v-153l-18 -123h-240v-408z" />
    <glyph glyph-name="uni0492" unicode="&#x492;" 
d="M585 693l-16 -130h-289v-130h142v-99h-142v-334h-166v334h-77v99h77v260h471z" />
    <glyph glyph-name="uni0493" unicode="&#x493;" 
d="M298 312h112v-90h-112v-222h-160v222h-59v90h59v219h418l-18 -123h-240v-96z" />
    <glyph glyph-name="uni0496" unicode="&#x496;" 
d="M248 320h-27l-78 -320h-142l107 379l-97 314h136l76 -291h25v291h97v-291h25l76 291h137l-98 -314l74 -250h46v-295h-100l-18 166h-37l-78 320h-27v-320h-97v320z" />
    <glyph glyph-name="uni0497" unicode="&#x497;" 
d="M248 0v232h-26l-87 -232h-143l125 285l-122 246h139l86 -211h28v211h101v-211h27l88 211h138l-122 -246l74 -168h56v-273h-105l-17 156h-26l-88 232h-25v-232h-101z" />
    <glyph glyph-name="uni0498" unicode="&#x498;" 
d="M308 -145q0 20 -23 26.5t-69 6.5l11 97q-71 7 -127 31t-94 66l90 85q68 -63 171 -63q60 0 95 26.5t35 74.5q0 53 -34.5 78t-97.5 25h-115l19 118h96q52 0 83 21t31 63q0 38 -29.5 59.5t-83.5 21.5q-47 0 -88.5 -14t-73.5 -40l-80 84q48 44 117 67t146 23q57 0 104 -13.5
t80.5 -38t52 -58t18.5 -73.5q0 -63 -41 -103t-116 -53v-4q80 -8 129 -51.5t49 -118.5q0 -89 -64.5 -146t-179.5 -67v-33q53 -6 78.5 -32t25.5 -67q0 -51 -40.5 -83.5t-109.5 -32.5q-36 0 -67 9.5t-51 21.5l37 73q15 -8 31 -12.5t33 -4.5q24 0 38 7t14 24z" />
    <glyph glyph-name="uni0499" unicode="&#x499;" 
d="M307 -145q0 20 -22.5 26.5t-68.5 6.5l11 97q-64 5 -115.5 22.5t-86.5 45.5l78 92q35 -25 76 -36.5t90 -11.5q54 0 78 17.5t24 47.5q0 29 -23.5 44.5t-72.5 15.5h-116l9 102h96q42 0 63.5 16t21.5 43q0 28 -23 41.5t-65 13.5q-40 0 -78 -9.5t-67 -29.5l-74 85
q45 32 108.5 48.5t130.5 16.5q48 0 90 -9.5t72.5 -28.5t48.5 -46.5t18 -63.5q0 -45 -32 -74t-87 -42v-4q32 -4 59 -13.5t46.5 -25.5t30 -38t10.5 -52q0 -38 -16 -67.5t-45 -50.5t-69 -33t-88 -16v-33q53 -6 78.5 -32t25.5 -67q0 -51 -40.5 -83.5t-109.5 -32.5q-36 0 -67 9.5
t-51 21.5l37 73q15 -8 31 -12.5t33 -4.5q24 0 37.5 7t13.5 24z" />
    <glyph glyph-name="uni049A" unicode="&#x49a;" 
d="M276 301h-55v-301h-166v693h166v-272h53l151 272h162l-175 -314l131 -250h63v-295h-115l-18 166h-48z" />
    <glyph glyph-name="uni049B" unicode="&#x49b;" 
d="M69 0v531h160v-207h64l119 207h155l-146 -246l98 -168h62v-273h-105l-17 156h-47l-123 228h-60v-228h-160z" />
    <glyph glyph-name="uni049C" unicode="&#x49c;" 
d="M241 147v162h-30v-309h-150v693h150v-280h30v160h55v-160h11l119 280h159l-155 -314l174 -379h-174l-120 309h-14v-162h-55z" />
    <glyph glyph-name="uni049D" unicode="&#x49d;" 
d="M69 0v531h151v-213h34v115h47v-115h18l94 213h154l-123 -246l137 -285h-167l-95 234h-18v-117h-47v117h-34v-234h-151z" />
    <glyph glyph-name="uni04A0" unicode="&#x4a0;" 
d="M294 304h-47v-304h-154v572h-93v121h247v-275h45l152 275h157l-179 -314l197 -379h-175z" />
    <glyph glyph-name="uni04A1" unicode="&#x4a1;" 
d="M90 0v417h-84v114h244v-207h57l119 207h155l-146 -246l160 -285h-169l-123 228h-53v-228h-160z" />
    <glyph glyph-name="uni04A2" unicode="&#x4a2;" 
d="M537 129h60v-295h-115l-18 166h-93v296h-161v-296h-166v693h166v-268h161v268h166v-564z" />
    <glyph glyph-name="uni04A3" unicode="&#x4a3;" 
d="M363 0v211h-139v-211h-160v531h160v-203h139v203h160v-414h59v-273h-105l-18 156h-96z" />
    <glyph glyph-name="uni04AA" unicode="&#x4aa;" 
d="M500 538q-29 23 -60 36.5t-71 13.5q-36 0 -65.5 -13.5t-51.5 -43t-34 -75t-12 -108.5q0 -62 11.5 -107t32.5 -74t50 -42.5t65 -13.5q51 0 86 17.5t64 40.5l75 -96q-23 -23 -54 -42.5t-71 -31.5q-28 -16 -45.5 -31.5t-27.5 -30.5t-13.5 -29t-3.5 -27q0 -21 13 -35t39 -14
q20 0 37 4.5t28 9.5l32 -77q-24 -13 -53 -20t-60 -7q-66 0 -105.5 32.5t-39.5 89.5q0 35 21.5 65.5t60.5 53.5q-70 0 -128 24.5t-99.5 71t-64.5 114.5t-23 155t24.5 154.5t68 114t103 70.5t128.5 24q75 0 127.5 -21t96.5 -56z" />
    <glyph glyph-name="uni04AB" unicode="&#x4ab;" 
d="M351 109q27 0 56 9.5t57 30.5l72 -102q-22 -17 -45 -28.5t-56 -22.5q-52 -31 -68 -60.5t-16 -54.5q0 -21 13 -35t39 -14q20 0 37.5 4.5t27.5 9.5l32 -77q-24 -13 -53 -20t-60 -7q-66 0 -105.5 32.5t-39.5 89.5q0 35 22.5 65.5t63.5 53.5q-63 2 -112 23t-83 57.5t-52 87
t-18 111.5q0 62 19.5 114.5t55.5 91t87.5 60t115.5 21.5q61 0 109 -17.5t86 -49.5l-69 -96q-27 21 -57.5 30.5t-58.5 9.5q-27 0 -49 -9t-37.5 -28.5t-24.5 -50.5t-9 -76q0 -44 9.5 -73.5t25.5 -47t38 -25t47 -7.5z" />
    <glyph glyph-name="uni04AE" unicode="&#x4ae;" 
d="M383 260v-260h-166v259l-226 434h182l128 -292h4l129 292h175z" />
    <glyph glyph-name="uni04AF" unicode="&#x4af;" 
d="M222 -222v226l-199 527h174l104 -383h4l109 383h163l-199 -526v-210z" />
    <glyph glyph-name="uni04B0" unicode="&#x4b0;" 
d="M400 293h99v-93h-116v-200h-166v200h-116v93h98l-208 400h182l128 -292h4l129 292h175z" />
    <glyph glyph-name="uni04B1" unicode="&#x4b1;" 
d="M222 -222v224h-95v89h62l-166 440h174l104 -383h4l109 383h163l-167 -440h64v-89h-96v-207z" />
    <glyph glyph-name="uni04B2" unicode="&#x4b2;" 
d="M16 693h181l99 -216h4l105 216h176l-186 -318l134 -246h72v-295h-115l-18 166h-51l-119 257h-4l-116 -257h-177l196 368z" />
    <glyph glyph-name="uni04B3" unicode="&#x4b3;" 
d="M289 194l-98 -194h-174l182 279l-165 252h179l82 -165h4l80 165h170l-157 -246l109 -168h78v-273h-105l-17 156h-63l-101 194h-4z" />
    <glyph glyph-name="uni04B8" unicode="&#x4b8;" 
d="M255 134v77q-61 0 -104.5 16t-71.5 46.5t-41.5 74.5t-13.5 99v246h166v-241q0 -54 15 -81t50 -35v224h63v-224q23 5 38.5 13t26.5 19v325h166v-693h-166v256q-28 -22 -65 -32v-90h-63z" />
    <glyph glyph-name="uni04B9" unicode="&#x4b9;" 
d="M207 531v-198q0 -32 13.5 -47.5t38.5 -18.5v131h50v-128q33 8 58 30v231h160v-531h-160v197q-27 -22 -58 -32v-84h-50v71q-19 -4 -44 -4q-82 0 -125 44.5t-43 120.5v218h160z" />
    <glyph glyph-name="uni04BA" unicode="&#x4ba;" 
d="M51 0v693h166v-272q29 23 65 36.5t81 13.5q106 0 159.5 -61.5t53.5 -178.5v-231h-166v230q0 66 -21.5 92t-72.5 26q-35 0 -58.5 -11t-40.5 -25v-312h-166z" />
    <glyph glyph-name="uni04BB" unicode="&#x4bb;" 
d="M71 0v742l160 16v-349q33 35 71 53.5t83 18.5q71 0 107.5 -41.5t36.5 -116.5v-323h-160v303q0 34 -12 47t-36 13t-46 -16t-44 -46v-301h-160z" />
    <glyph glyph-name="uni04C0" unicode="&#x4c0;" 
d="M74 693h452v-121h-143v-450h143v-122h-452v122h143v450h-143v121z" />
    <glyph glyph-name="uni04CB" unicode="&#x4cb;" 
d="M537 129h58v-295h-114l-19 166h-91v255q-29 -21 -62.5 -33t-74.5 -12q-97 0 -153.5 59.5t-56.5 177.5v246h166v-241q0 -66 21.5 -92.5t67.5 -26.5q32 0 54 10t38 24v326h166v-564z" />
    <glyph glyph-name="uni04CC" unicode="&#x4cc;" 
d="M201 531v-166q0 -57 13.5 -78t52.5 -21q26 0 51 9.5t43 24.5v231h160v-414h60v-273h-105l-18 156h-97v197q-29 -23 -66.5 -36t-85.5 -13q-82 0 -125 44.5t-43 120.5v218h160z" />
    <glyph glyph-name="uni04CF" unicode="&#x4cf;" 
d="M343 167q0 -32 18 -45t50 -13q20 0 39 4.5t36 11.5l38 -107q-27 -14 -65 -24.5t-89 -10.5q-98 0 -142.5 55.5t-44.5 149.5v445h-156v109h316v-575z" />
    <glyph glyph-name="uni04D8" unicode="&#x4d8;" 
d="M19 337q0 37 6 67h387q-3 99 -37.5 143.5t-97.5 44.5q-49 0 -80.5 -17.5t-59.5 -40.5l-78 90q48 42 103 64.5t130 22.5q138 0 211.5 -90.5t73.5 -269.5t-74 -273.5t-207 -94.5q-71 0 -123 24.5t-86.5 70.5t-51 111.5t-16.5 147.5zM296 102q26 0 47 10.5t36 33t23 58.5
t10 88h-236q1 -104 33 -147t87 -43z" />
    <glyph glyph-name="uni04D9" unicode="&#x4d9;" 
d="M404 313q-2 64 -33.5 93.5t-84.5 29.5q-40 0 -75 -11t-71 -35l-66 89q43 32 97 51t122 19t118 -21t83 -58.5t49 -89t16 -113.5q0 -59 -17 -111t-50 -90.5t-81.5 -60.5t-112.5 -22q-59 0 -106.5 18.5t-81 53.5t-51.5 85.5t-18 115.5q0 13 0.5 28.5t2.5 28.5h360zM298 96
q49 0 76.5 28t29.5 93h-213q1 -57 27 -89t80 -32z" />
    <glyph glyph-name="uni04E2" unicode="&#x4e2;" 
d="M51 0v693h152v-232q0 -108 -8 -178t-16 -119h4l183 529h183v-693h-152v227q0 102 7.5 176t16.5 125h-4l-180 -528h-186zM453 783h-306v111h306v-111z" />
    <glyph glyph-name="uni04E3" unicode="&#x4e3;" 
d="M455 657h-306v111h306v-111zM368 531h163v-531h-151v167q0 68 7 122.5t15 83.5h-4l-166 -373h-163v531h151v-169q0 -60 -6.5 -115t-15.5 -90h4z" />
    <glyph glyph-name="uni04E8" unicode="&#x4e8;" 
d="M578 347q0 -83 -18 -150t-53 -114.5t-87 -73.5t-120 -26t-120 25t-87 72.5t-53 115t-18 151.5q0 82 18 149.5t53 115t87 73.5t120 26t120 -25t87 -72.5t53 -115t18 -151.5zM300 104q57 0 83 49t30 155h-226q3 -107 30 -155.5t83 -48.5zM300 590q-54 0 -81 -45t-32 -144
h225q-5 99 -31.5 144t-80.5 45z" />
    <glyph glyph-name="uni04E9" unicode="&#x4e9;" 
d="M300 549q61 0 109.5 -20t81.5 -57t50.5 -89t17.5 -116q0 -134 -68 -209t-191 -75t-191 74t-68 209q0 63 17.5 115.5t51 89.5t81.5 57.5t109 20.5zM300 98q42 0 67.5 28t31.5 96h-198q6 -68 31 -96t68 -28zM300 434q-42 0 -67 -28.5t-31 -93.5h196q-6 65 -31 93.5
t-67 28.5z" />
    <glyph glyph-name="uni04EE" unicode="&#x4ee;" 
d="M-6 693h172l143 -409h4l127 409h168l-175 -456q-26 -67 -53.5 -113t-63.5 -75.5t-84.5 -44.5t-115.5 -21l-22 113q37 4 63.5 10.5t46 16.5t33 25t25.5 35h-53zM461 783h-306v111h306v-111z" />
    <glyph glyph-name="uni04EF" unicode="&#x4ef;" 
d="M27 531h169l100 -421h4l109 421h164l-177 -531q-35 -107 -106 -161.5t-193 -61.5l-18 113q39 5 66.5 13t47 21t33 31.5t24.5 44.5h-55zM453 657h-306v111h306v-111z" />
    <glyph glyph-name="uni2007" unicode="&#x2007;" 
 />
    <glyph glyph-name="uni2008" unicode="&#x2008;" 
 />
    <glyph glyph-name="uni200B" unicode="&#x200b;" 
 />
    <glyph glyph-name="figuredash" unicode="&#x2012;" 
d="M32 257v124h536v-124h-536z" />
    <glyph glyph-name="endash" unicode="&#x2013;" 
d="M27 251v124h546v-124h-546z" />
    <glyph glyph-name="emdash" unicode="&#x2014;" 
d="M0 251v124h600v-124h-600z" />
    <glyph glyph-name="afii00208" unicode="&#x2015;" 
d="M27 291v124h546v-124h-546z" />
    <glyph glyph-name="underscoredbl" unicode="&#x2017;" 
d="M572 -80h-544v80h544v-80zM28 -215v80h544v-80h-544z" />
    <glyph glyph-name="quoteleft" unicode="&#x2018;" 
d="M392 536q0 -19 -7.5 -35.5t-20 -29t-30 -19.5t-37.5 -7t-37.5 7t-30 19.5t-19.5 29t-7 35.5q0 22 7 45.5t25 59.5l71 148h90l-43 -177q18 -13 28.5 -31.5t10.5 -44.5z" />
    <glyph glyph-name="quoteright" unicode="&#x2019;" 
d="M207 698q0 19 7 35.5t20 29t30.5 19.5t37.5 7t37.5 -7t30 -19.5t19.5 -29t7 -35.5q0 -22 -7 -45.5t-25 -59.5l-71 -148h-90l43 177q-18 13 -28.5 31.5t-10.5 44.5z" />
    <glyph glyph-name="quotesinglbase" unicode="&#x201a;" 
d="M208 71q0 19 7 35.5t20 29t30.5 19.5t37.5 7t37.5 -7t30 -19.5t19.5 -29t7 -35.5q0 -23 -7.5 -46t-24.5 -59l-72 -148h-90l44 177q-18 13 -28.5 31.5t-10.5 44.5z" />
    <glyph glyph-name="quotedblleft" unicode="&#x201c;" 
d="M275 536q0 -19 -7.5 -35.5t-20 -29t-30 -19.5t-37.5 -7q-41 0 -67 26.5t-26 64.5q0 22 7 45.5t24 59.5l71 148h90l-43 -177q18 -13 28.5 -31.5t10.5 -44.5zM509 536q0 -19 -7.5 -35.5t-20 -29t-30 -19.5t-37.5 -7t-37.5 7t-30 19.5t-19.5 29t-7 35.5q0 22 7 45.5t25 59.5
l71 148h90l-44 -177q18 -13 29 -31.5t11 -44.5z" />
    <glyph glyph-name="quotedblright" unicode="&#x201d;" 
d="M91 707q0 19 7.5 35.5t20 28.5t30 19t37.5 7q41 0 67.5 -26t26.5 -64q0 -23 -7.5 -46t-24.5 -60l-71 -147h-90l43 177q-18 13 -28.5 31.5t-10.5 44.5zM324 707q0 19 7.5 35.5t20 28.5t30 19t37.5 7q41 0 67.5 -26t26.5 -64q0 -23 -7 -46t-25 -60l-71 -147h-90l44 177
q-18 13 -29 31.5t-11 44.5z" />
    <glyph glyph-name="quotedblbase" unicode="&#x201e;" 
d="M91 71q0 19 7.5 35.5t20 29t30 19.5t37.5 7t37.5 -7t30 -19.5t19.5 -29t7 -35.5q0 -23 -7 -46t-25 -59l-71 -148h-90l44 177q-18 13 -29 31.5t-11 44.5zM324 71q0 19 7.5 35.5t20 29t30 19.5t37.5 7t37.5 -7t30 -19.5t19.5 -29t7 -35.5q0 -23 -7 -46t-25 -59l-71 -148
h-90l44 177q-18 13 -29 31.5t-11 44.5z" />
    <glyph glyph-name="dagger" unicode="&#x2020;" 
d="M375 407v-407h-150v407h-165v129h165v143h150v-143h165v-129h-165z" />
    <glyph glyph-name="daggerdbl" unicode="&#x2021;" 
d="M375 407v-133h165v-130h-165v-144h-150v144h-165v130h165v133h-165v129h165v143h150v-143h165v-129h-165z" />
    <glyph glyph-name="bullet" unicode="&#x2022;" 
d="M300 199q-31 0 -57 11t-45 30t-30 45.5t-11 56.5q0 31 11 57t30 45t45 29.5t57 10.5t57 -11t45 -30t30 -45t11 -57t-11 -57t-30 -45t-45 -29.5t-57 -10.5z" />
    <glyph glyph-name="ellipsis" unicode="&#x2026;" 
d="M14 66q0 18 7 33.5t18.5 27t27 18.5t33.5 7t33.5 -7t27 -18.5t18.5 -27t7 -33.5t-7 -33.5t-18.5 -27t-27 -18.5t-33.5 -7t-33.5 7t-27 18.5t-18.5 27t-7 33.5zM214 66q0 18 7 33.5t18.5 27t27 18.5t33.5 7t33.5 -7t27 -18.5t18.5 -27t7 -33.5t-7 -33.5t-18.5 -27
t-27 -18.5t-33.5 -7t-33.5 7t-27 18.5t-18.5 27t-7 33.5zM414 66q0 18 7 33.5t18.5 27t27 18.5t33.5 7t33.5 -7t27 -18.5t18.5 -27t7 -33.5t-7 -33.5t-18.5 -27t-27 -18.5t-33.5 -7t-33.5 7t-27 18.5t-18.5 27t-7 33.5z" />
    <glyph glyph-name="perthousand" unicode="&#x2030;" 
d="M22 272l-23 69l554 181l23 -70zM475 133q0 30 -5.5 47.5t-26.5 17.5q-22 0 -27.5 -18t-5.5 -47t6 -47.5t27 -18.5t26.5 18t5.5 48zM576 133q0 -67 -35 -104.5t-98 -37.5t-98.5 37.5t-35.5 104.5q0 62 35.5 102t98.5 40t98 -38.5t35 -103.5zM190 133q0 30 -5.5 47.5
t-26.5 17.5q-22 0 -28 -18t-6 -47t6.5 -47.5t27.5 -18.5t26.5 18t5.5 48zM291 133q0 -67 -35.5 -104.5t-97.5 -37.5q-64 0 -99.5 37.5t-35.5 104.5q0 62 35.5 102t99.5 40q62 0 97.5 -38.5t35.5 -103.5zM190 568q0 30 -5.5 48t-26.5 18q-22 0 -27.5 -18.5t-5.5 -47.5
t6 -47.5t27 -18.5t26.5 18t5.5 48zM291 568q0 -67 -35.5 -104.5t-97.5 -37.5q-63 0 -99 37.5t-36 104.5q0 31 9.5 57.5t26.5 45.5t42 29.5t57 10.5q62 0 97.5 -39t35.5 -104z" />
    <glyph glyph-name="guilsinglleft" unicode="&#x2039;" 
d="M444 81l-99 -65l-189 220v101l189 220l99 -65l-128 -205z" />
    <glyph glyph-name="guilsinglright" unicode="&#x203a;" 
d="M283 287l-127 205l98 65l190 -220v-101l-190 -220l-98 65z" />
    <glyph glyph-name="fraction" unicode="&#x2044;" 
d="M54 175l-42 76l535 256l41 -76z" />
    <glyph glyph-name="uni2070" unicode="&#x2070;" 
d="M341 562q0 51 -9 69t-31 18q-23 0 -32.5 -19.5t-9.5 -67.5q0 -46 10 -66t32 -20t31 18.5t9 67.5zM458 562q0 -81 -43 -123.5t-114 -42.5q-72 0 -115.5 42.5t-43.5 123.5q0 79 43.5 123t115.5 44q71 0 114 -43t43 -124z" />
    <glyph glyph-name="uni2074" unicode="&#x2074;" 
d="M421 458v-56h-105v56h-181v66l120 208l96 -32l-98 -167h65l15 79h88v-79h43v-75h-43z" />
    <glyph glyph-name="uni2075" unicode="&#x2075;" 
d="M458 511q0 -54 -43 -84.5t-120 -30.5q-95 0 -153 53l63 55q20 -14 39.5 -20.5t45.5 -6.5q48 0 48 34q0 32 -38 32q-25 0 -47 -10h-76v190h264l-12 -78h-147v-39q14 5 27 8.5t33 3.5q49 0 82.5 -26.5t33.5 -80.5z" />
    <glyph glyph-name="uni2076" unicode="&#x2076;" 
d="M385 642q-12 5 -24.5 7t-29.5 2q-31 0 -49.5 -15.5t-22.5 -50.5q34 31 84 31q25 0 46.5 -6.5t37.5 -19t25.5 -31.5t9.5 -44q0 -54 -42.5 -86.5t-115.5 -32.5q-84 0 -125 43t-41 112q0 39 12.5 71.5t37 56t60 37t80.5 13.5q29 0 54 -5.5t48 -18.5zM310 545q-26 0 -50 -21
q3 -25 13 -38t32 -13q39 0 39 37q0 20 -8.5 27.5t-25.5 7.5z" />
    <glyph glyph-name="uni2077" unicode="&#x2077;" 
d="M293 392l-106 43l140 206h-173v82h293v-67z" />
    <glyph glyph-name="uni2078" unicode="&#x2078;" 
d="M448 645q0 -27 -17 -41.5t-48 -24.5q40 -12 61 -31t21 -52q0 -43 -42.5 -71.5t-125.5 -28.5q-82 0 -122 27t-40 71q0 31 18.5 49t57.5 29q-28 14 -44 29.5t-16 42.5q0 35 38.5 60t110.5 25t110 -25t38 -59zM350 498q0 14 -16 22t-51 16q-34 -14 -34 -34q0 -28 51 -28
q50 0 50 24zM264 639q0 -9 10 -15.5t33 -13.5q15 8 22.5 13.5t7.5 14.5q0 8 -9 14t-28 6t-27.5 -5.5t-8.5 -13.5z" />
    <glyph glyph-name="uni2079" unicode="&#x2079;" 
d="M170 468q63 8 103 23t63 45l-3 2q-20 -12 -40 -18t-44 -6q-47 0 -79 24t-32 73q0 28 12.5 50t34.5 37t52 23t65 8q81 0 120.5 -38t39.5 -97q0 -92 -69.5 -139.5t-197.5 -65.5zM295 584q13 0 24.5 4t22.5 10q-1 28 -11 40.5t-33 12.5q-19 0 -30 -9t-11 -26q0 -18 10.5 -25
t27.5 -7z" />
    <glyph glyph-name="uni207A" unicode="&#x207a;" 
d="M351 584h79v-83h-79v-78h-102v78h-79v83h79v80h102v-80z" />
    <glyph glyph-name="uni207B" unicode="&#x207b;" 
d="M160 503v79h280v-79h-280z" />
    <glyph glyph-name="uni207C" unicode="&#x207c;" 
d="M160 564v83h280v-83h-280zM160 435v82h280v-82h-280z" />
    <glyph glyph-name="uni207D" unicode="&#x207d;" 
d="M319 540q0 -35 4 -63.5t13 -55t23 -52.5t34 -54l-71 -45q-24 31 -45 60.5t-36.5 62t-25 68.5t-9.5 79t9.5 79.5t25 68.5t36.5 62t45 60l71 -44q-20 -29 -34 -54.5t-23 -52t-13 -55.5t-4 -64z" />
    <glyph glyph-name="uni207E" unicode="&#x207e;" 
d="M281 540q0 35 -4.5 64t-13.5 55.5t-23 52t-33 54.5l71 44q24 -30 45 -60t36.5 -62t25 -68.5t9.5 -79.5t-9.5 -79t-25 -68.5t-36.5 -62t-45 -60.5l-71 45q19 28 33 54t23 52.5t13.5 55t4.5 63.5z" />
    <glyph glyph-name="uni207F" unicode="&#x207f;" 
d="M151 403v335h103l5 -25q20 19 43 27t49 8q47 0 72.5 -26.5t25.5 -76.5v-242h-116v215q0 24 -4.5 34t-15.5 10q-12 0 -23 -8.5t-23 -24.5v-226h-116z" />
    <glyph glyph-name="uni2080" unicode="&#x2080;" 
d="M341 -5q0 51 -9 69t-31 18q-23 0 -32.5 -19.5t-9.5 -67.5q0 -46 10 -66t32 -20t31 18.5t9 67.5zM458 -5q0 -81 -43 -123.5t-114 -42.5q-72 0 -115.5 42.5t-43.5 123.5q0 79 43.5 123t115.5 44q71 0 114 -43t43 -124z" />
    <glyph glyph-name="uni2081" unicode="&#x2081;" 
d="M308 -165v210l-78 -40l-53 72l148 79h97v-321h-114z" />
    <glyph glyph-name="uni2082" unicode="&#x2082;" 
d="M443 58q0 -21 -6.5 -39t-23 -34.5t-44 -32.5t-68.5 -34h154l-13 -83h-285v74q54 30 87 50t50.5 35t23 26.5t5.5 23.5q0 15 -10.5 25t-29.5 10t-34.5 -7.5t-32.5 -27.5l-71 52q60 66 156 66q70 0 106 -31t36 -73z" />
    <glyph glyph-name="uni2083" unicode="&#x2083;" 
d="M150 111q64 51 156 51q68 0 104 -25t36 -64q0 -29 -16.5 -45.5t-46.5 -22.5v-4q37 -5 57.5 -22.5t20.5 -50.5q0 -46 -44.5 -72.5t-120.5 -26.5q-42 0 -84.5 12.5t-72.5 42.5l65 55q23 -17 43.5 -23.5t44.5 -6.5q50 0 50 31q0 15 -10.5 23t-38.5 8h-53l13 59h40
q37 0 37 26t-38 26q-22 0 -41 -6t-44 -22z" />
    <glyph glyph-name="uni2084" unicode="&#x2084;" 
d="M421 -109v-56h-105v56h-181v66l120 208l96 -32l-98 -167h65l15 79h88v-79h43v-75h-43z" />
    <glyph glyph-name="uni2085" unicode="&#x2085;" 
d="M458 -56q0 -54 -43 -84.5t-120 -30.5q-95 0 -153 53l63 55q20 -14 39.5 -20.5t45.5 -6.5q48 0 48 34q0 32 -38 32q-25 0 -47 -10h-76v190h264l-12 -78h-147v-39q14 5 27 8.5t33 3.5q49 0 82.5 -26.5t33.5 -80.5z" />
    <glyph glyph-name="uni2086" unicode="&#x2086;" 
d="M385 75q-12 5 -24.5 7t-29.5 2q-31 0 -49.5 -15.5t-22.5 -50.5q34 31 84 31q25 0 46.5 -6.5t37.5 -19t25.5 -31.5t9.5 -44q0 -54 -42.5 -86.5t-115.5 -32.5q-84 0 -125 43t-41 112q0 39 12.5 71.5t37 56t60 37t80.5 13.5q29 0 54 -5.5t48 -18.5zM310 -22q-26 0 -50 -21
q3 -25 13 -38t32 -13q39 0 39 37q0 20 -8.5 27.5t-25.5 7.5z" />
    <glyph glyph-name="uni2087" unicode="&#x2087;" 
d="M293 -175l-106 43l140 206h-173v82h293v-67z" />
    <glyph glyph-name="uni2088" unicode="&#x2088;" 
d="M448 78q0 -27 -17 -41.5t-48 -24.5q40 -12 61 -31t21 -52q0 -43 -42.5 -71.5t-125.5 -28.5q-82 0 -122 27t-40 71q0 31 18.5 49t57.5 29q-28 14 -44 29.5t-16 42.5q0 35 38.5 60t110.5 25t110 -25t38 -59zM350 -69q0 14 -16 22t-51 16q-34 -14 -34 -34q0 -28 51 -28
q50 0 50 24zM264 72q0 -9 10 -15.5t33 -13.5q15 8 22.5 13.5t7.5 14.5q0 8 -9 14t-28 6t-27.5 -5.5t-8.5 -13.5z" />
    <glyph glyph-name="uni2089" unicode="&#x2089;" 
d="M170 -99q63 8 103 23t63 45l-3 2q-20 -12 -40 -18t-44 -6q-47 0 -79 24t-32 73q0 28 12.5 50t34.5 37t52 23t65 8q81 0 120.5 -38t39.5 -97q0 -92 -69.5 -139.5t-197.5 -65.5zM295 17q13 0 24.5 4t22.5 10q-1 28 -11 40.5t-33 12.5q-19 0 -30 -9t-11 -26q0 -18 10.5 -25
t27.5 -7z" />
    <glyph glyph-name="uni208A" unicode="&#x208a;" 
d="M351 42h79v-83h-79v-78h-102v78h-79v83h79v80h102v-80z" />
    <glyph glyph-name="uni208B" unicode="&#x208b;" 
d="M160 -27v79h280v-79h-280z" />
    <glyph glyph-name="uni208C" unicode="&#x208c;" 
d="M160 37v83h280v-83h-280zM160 -92v82h280v-82h-280z" />
    <glyph glyph-name="uni208D" unicode="&#x208d;" 
d="M319 9q0 -35 4 -63.5t13 -55t23 -52.5t34 -54l-71 -45q-24 31 -45 60.5t-36.5 62t-25 68.5t-9.5 79t9.5 79.5t25 68.5t36.5 62t45 60l71 -44q-20 -29 -34 -54.5t-23 -52t-13 -55.5t-4 -64z" />
    <glyph glyph-name="uni208E" unicode="&#x208e;" 
d="M281 9q0 35 -4.5 64t-13.5 55.5t-23 52t-33 54.5l71 44q24 -30 45 -60t36.5 -62t25 -68.5t9.5 -79.5t-9.5 -79t-25 -68.5t-36.5 -62t-45 -60.5l-71 45q19 28 33 54t23 52.5t13.5 55t4.5 63.5z" />
    <glyph glyph-name="Euro" unicode="&#x20ac;" 
d="M126 466q25 115 98 180t185 65q61 0 99 -14.5t72 -37.5l-59 -99q-28 19 -50 26.5t-54 7.5q-50 0 -83.5 -29.5t-47.5 -98.5h205l-21 -83h-195v-70h180l-22 -84h-150q11 -68 42 -98t87 -30q41 0 75.5 13t64.5 33v-127q-38 -18 -74.5 -27.5t-77.5 -9.5q-116 0 -185 63.5
t-91 182.5h-92l21 84h61v70h-81l21 83h72z" />
    <glyph glyph-name="litre" unicode="&#x2113;" 
d="M508 18q-27 -14 -65 -24.5t-89 -10.5q-96 0 -141.5 53.5t-45.5 143.5v155q-20 -5 -41.5 -9t-44.5 -8l-17 94q29 5 54.5 10.5t48.5 12.5v84q0 116 47.5 178t150.5 62q77 0 116.5 -39.5t39.5 -99.5q0 -79 -49 -138t-152 -101v-214q0 -32 18.5 -45t52.5 -13q23 0 42.5 4.5
t36.5 11.5zM366 660q-13 0 -22 -5.5t-14 -19t-7.5 -36t-2.5 -57.5v-50q45 26 62.5 57t17.5 69q0 42 -34 42z" />
    <glyph glyph-name="uni2116" unicode="&#x2116;" 
d="M473 701q39 0 63.5 -17t38.5 -47.5t19.5 -72t5.5 -90.5q0 -51 -6.5 -93t-21 -72t-39 -46.5t-60.5 -16.5q-39 0 -63.5 16.5t-39 46.5t-19.5 72t-5 93q0 48 5.5 89.5t19.5 72t38.5 48t63.5 17.5zM473 602q-17 0 -22 -29.5t-5 -98.5q0 -70 5 -99t22 -29t22 29t5 99
q0 69 -5 98.5t-22 29.5zM595 0h-244v109h244v-109zM197 0l-107 538h-4q4 -20 9 -53t10 -74t8.5 -85.5t3.5 -86.5v-239h-117v693h137l101 -539h4q-5 22 -10 55t-9.5 72t-7.5 82.5t-3 86.5v243h116v-693h-131z" />
    <glyph glyph-name="trademark" unicode="&#x2122;" 
d="M499 579l-43 -213h-82l-44 213h-4q5 -30 7 -57.5t2 -60.5v-34l-2 -132h-99l11 314h-70v-314h-109v314h-80v87h385l41 -231h5l40 231h124l13 -401h-98l-2 132v33q0 32 2 59.5t7 59.5h-4z" />
    <glyph glyph-name="Omega" unicode="&#x2126;" 
d="M300 589q-57 0 -82.5 -52t-25.5 -159q0 -113 18.5 -174.5t62.5 -87.5v-116h-240v118h109v4q-61 32 -90.5 97t-29.5 159q0 72 18.5 133t53.5 105.5t87 69.5t119 25t119 -25t87 -69.5t53.5 -105.5t18.5 -133q0 -94 -30 -159t-91 -97v-4h110v-118h-240v116q44 25 62.5 87
t18.5 175q0 107 -25.5 159t-82.5 52z" />
    <glyph glyph-name="estimated" unicode="&#x212e;" 
d="M450 619q-23 19 -61.5 31t-85.5 12q-98 0 -152 -42v-247h299v246zM151 334v-261q26 -22 64 -34.5t90 -12.5q69 0 118 25.5t75 71.5h49q-15 -29 -36.5 -53.5t-51.5 -42.5t-68.5 -28.5t-86.5 -10.5q-65 0 -113.5 17.5t-83.5 47.5t-56 71.5t-30 89.5v254q8 47 27.5 89.5
t53 74.5t83 50.5t117.5 18.5t117.5 -18.5t83 -50.5t53 -74.5t27.5 -89.5v-134h-432z" />
    <glyph glyph-name="onethird" unicode="&#x2153;" 
d="M42 175l-42 76l535 256l41 -76zM111 378v210l-78 -40l-53 72l148 79h97v-321h-114zM319 276q64 51 156 51q68 0 104 -25t36 -64q0 -29 -16.5 -45.5t-46.5 -22.5v-4q37 -5 57.5 -22.5t20.5 -50.5q0 -46 -44.5 -72.5t-120.5 -26.5q-42 0 -84.5 12.5t-72.5 42.5l65 55
q23 -17 43.5 -23.5t44.5 -6.5q50 0 50 31q0 15 -10.5 23t-38.5 8h-53l13 59h40q37 0 37 26t-38 26q-22 0 -41 -6t-44 -22z" />
    <glyph glyph-name="twothirds" unicode="&#x2154;" 
d="M70 175l-42 76l535 256l41 -76zM259 601q0 -21 -6.5 -39t-23 -34.5t-44 -32.5t-68.5 -34h154l-13 -83h-285v74q54 30 87 50t50.5 35t23 26.5t5.5 23.5q0 15 -10.5 25t-29.5 10t-34.5 -7.5t-32.5 -27.5l-71 52q60 66 156 66q70 0 106 -31t36 -73zM329 276q64 51 156 51
q68 0 104 -25t36 -64q0 -29 -16.5 -45.5t-46.5 -22.5v-4q37 -5 57.5 -22.5t20.5 -50.5q0 -46 -44.5 -72.5t-120.5 -26.5q-42 0 -84.5 12.5t-72.5 42.5l65 55q23 -17 43.5 -23.5t44.5 -6.5q50 0 50 31q0 15 -10.5 23t-38.5 8h-53l13 59h40q37 0 37 26t-38 26q-22 0 -41 -6
t-44 -22z" />
    <glyph glyph-name="uni2155" unicode="&#x2155;" 
d="M42 175l-42 76l535 256l41 -76zM111 378v210l-78 -40l-53 72l148 79h97v-321h-114zM648 109q0 -54 -43 -84.5t-120 -30.5q-95 0 -153 53l63 55q20 -14 39.5 -20.5t45.5 -6.5q48 0 48 34q0 32 -38 32q-25 0 -47 -10h-76v190h264l-12 -78h-147v-39q14 5 27 8.5t33 3.5
q49 0 82.5 -26.5t33.5 -80.5z" />
    <glyph glyph-name="uni2156" unicode="&#x2156;" 
d="M65 175l-42 76l535 256l41 -76zM259 601q0 -21 -6.5 -39t-23 -34.5t-44 -32.5t-68.5 -34h154l-13 -83h-285v74q54 30 87 50t50.5 35t23 26.5t5.5 23.5q0 15 -10.5 25t-29.5 10t-34.5 -7.5t-32.5 -27.5l-71 52q60 66 156 66q70 0 106 -31t36 -73zM668 109q0 -54 -43 -84.5
t-120 -30.5q-95 0 -153 53l63 55q20 -14 39.5 -20.5t45.5 -6.5q48 0 48 34q0 32 -38 32q-25 0 -47 -10h-76v190h264l-12 -78h-147v-39q14 5 27 8.5t33 3.5q49 0 82.5 -26.5t33.5 -80.5z" />
    <glyph glyph-name="uni2157" unicode="&#x2157;" 
d="M44 175l-42 76l535 256l41 -76zM656 109q0 -54 -43 -84.5t-120 -30.5q-95 0 -153 53l63 55q20 -14 39.5 -20.5t45.5 -6.5q48 0 48 34q0 32 -38 32q-25 0 -47 -10h-76v190h264l-12 -78h-147v-39q14 5 27 8.5t33 3.5q49 0 82.5 -26.5t33.5 -80.5zM-10 654q64 51 156 51
q68 0 104 -25t36 -64q0 -29 -16.5 -45.5t-46.5 -22.5v-4q37 -5 57.5 -22.5t20.5 -50.5q0 -46 -44.5 -72.5t-120.5 -26.5q-42 0 -84.5 12.5t-72.5 42.5l65 55q23 -17 43.5 -23.5t44.5 -6.5q50 0 50 31q0 15 -10.5 23t-38.5 8h-53l13 59h40q37 0 37 26t-38 26q-22 0 -41 -6
t-44 -22z" />
    <glyph glyph-name="uni2158" unicode="&#x2158;" 
d="M50 175l-42 76l535 256l41 -76zM652 109q0 -54 -43 -84.5t-120 -30.5q-95 0 -153 53l63 55q20 -14 39.5 -20.5t45.5 -6.5q48 0 48 34q0 32 -38 32q-25 0 -47 -10h-76v190h264l-12 -78h-147v-39q14 5 27 8.5t33 3.5q49 0 82.5 -26.5t33.5 -80.5zM240 434v-56h-105v56h-181
v66l120 208l96 -32l-98 -167h65l15 79h88v-79h43v-75h-43z" />
    <glyph glyph-name="uni2159" unicode="&#x2159;" 
d="M530 240q-12 5 -24.5 7t-29.5 2q-31 0 -49.5 -15.5t-22.5 -50.5q34 31 84 31q25 0 46.5 -6.5t37.5 -19t25.5 -31.5t9.5 -44q0 -54 -42.5 -86.5t-115.5 -32.5q-84 0 -125 43t-41 112q0 39 12.5 71.5t37 56t60 37t80.5 13.5q29 0 54 -5.5t48 -18.5zM455 143q-26 0 -50 -21
q3 -25 13 -38t32 -13q39 0 39 37q0 20 -8.5 27.5t-25.5 7.5zM42 175l-42 76l535 256l41 -76zM111 378v210l-78 -40l-53 72l148 79h97v-321h-114z" />
    <glyph glyph-name="uni215A" unicode="&#x215a;" 
d="M40 175l-42 76l535 256l41 -76zM533 240q-12 5 -24.5 7t-29.5 2q-31 0 -49.5 -15.5t-22.5 -50.5q34 31 84 31q25 0 46.5 -6.5t37.5 -19t25.5 -31.5t9.5 -44q0 -54 -42.5 -86.5t-115.5 -32.5q-84 0 -125 43t-41 112q0 39 12.5 71.5t37 56t60 37t80.5 13.5q29 0 54 -5.5
t48 -18.5zM458 143q-26 0 -50 -21q3 -25 13 -38t32 -13q39 0 39 37q0 20 -8.5 27.5t-25.5 7.5zM280 487q0 -54 -43 -84.5t-120 -30.5q-95 0 -153 53l63 55q20 -14 39.5 -20.5t45.5 -6.5q48 0 48 34q0 32 -38 32q-25 0 -47 -10h-76v190h264l-12 -78h-147v-39q14 5 27 8.5
t33 3.5q49 0 82.5 -26.5t33.5 -80.5z" />
    <glyph glyph-name="oneeighth" unicode="&#x215b;" 
d="M42 175l-42 76l535 256l41 -76zM111 378v210l-78 -40l-53 72l148 79h97v-321h-114zM615 243q0 -27 -17 -41.5t-48 -24.5q40 -12 61 -31t21 -52q0 -43 -42.5 -71.5t-125.5 -28.5q-82 0 -122 27t-40 71q0 31 18.5 49t57.5 29q-28 14 -44 29.5t-16 42.5q0 35 38.5 60
t110.5 25t110 -25t38 -59zM517 96q0 14 -16 22t-51 16q-34 -14 -34 -34q0 -28 51 -28q50 0 50 24zM431 237q0 -9 10 -15.5t33 -13.5q15 8 22.5 13.5t7.5 14.5q0 8 -9 14t-28 6t-27.5 -5.5t-8.5 -13.5z" />
    <glyph glyph-name="threeeighths" unicode="&#x215c;" 
d="M54 175l-42 76l535 256l41 -76zM632 243q0 -27 -17 -41.5t-48 -24.5q40 -12 61 -31t21 -52q0 -43 -42.5 -71.5t-125.5 -28.5q-82 0 -122 27t-40 71q0 31 18.5 49t57.5 29q-28 14 -44 29.5t-16 42.5q0 35 38.5 60t110.5 25t110 -25t38 -59zM534 96q0 14 -16 22t-51 16
q-34 -14 -34 -34q0 -28 51 -28q50 0 50 24zM448 237q0 -9 10 -15.5t33 -13.5q15 8 22.5 13.5t7.5 14.5q0 8 -9 14t-28 6t-27.5 -5.5t-8.5 -13.5zM-10 654q64 51 156 51q68 0 104 -25t36 -64q0 -29 -16.5 -45.5t-46.5 -22.5v-4q37 -5 57.5 -22.5t20.5 -50.5
q0 -46 -44.5 -72.5t-120.5 -26.5q-42 0 -84.5 12.5t-72.5 42.5l65 55q23 -17 43.5 -23.5t44.5 -6.5q50 0 50 31q0 15 -10.5 23t-38.5 8h-53l13 59h40q37 0 37 26t-38 26q-22 0 -41 -6t-44 -22z" />
    <glyph glyph-name="fiveeighths" unicode="&#x215d;" 
d="M40 175l-42 76l535 256l41 -76zM280 487q0 -54 -43 -84.5t-120 -30.5q-95 0 -153 53l63 55q20 -14 39.5 -20.5t45.5 -6.5q48 0 48 34q0 32 -38 32q-25 0 -47 -10h-76v190h264l-12 -78h-147v-39q14 5 27 8.5t33 3.5q49 0 82.5 -26.5t33.5 -80.5zM620 243q0 -27 -17 -41.5
t-48 -24.5q40 -12 61 -31t21 -52q0 -43 -42.5 -71.5t-125.5 -28.5q-82 0 -122 27t-40 71q0 31 18.5 49t57.5 29q-28 14 -44 29.5t-16 42.5q0 35 38.5 60t110.5 25t110 -25t38 -59zM522 96q0 14 -16 22t-51 16q-34 -14 -34 -34q0 -28 51 -28q50 0 50 24zM436 237
q0 -9 10 -15.5t33 -13.5q15 8 22.5 13.5t7.5 14.5q0 8 -9 14t-28 6t-27.5 -5.5t-8.5 -13.5z" />
    <glyph glyph-name="seveneighths" unicode="&#x215e;" 
d="M23 175l-42 76l535 256l41 -76zM604 243q0 -27 -17 -41.5t-48 -24.5q40 -12 61 -31t21 -52q0 -43 -42.5 -71.5t-125.5 -28.5q-82 0 -122 27t-40 71q0 31 18.5 49t57.5 29q-28 14 -44 29.5t-16 42.5q0 35 38.5 60t110.5 25t110 -25t38 -59zM506 96q0 14 -16 22t-51 16
q-34 -14 -34 -34q0 -28 51 -28q50 0 50 24zM420 237q0 -9 10 -15.5t33 -13.5q15 8 22.5 13.5t7.5 14.5q0 8 -9 14t-28 6t-27.5 -5.5t-8.5 -13.5zM162 368l-106 43l140 206h-173v82h293v-67z" />
    <glyph glyph-name="uni215F" unicode="&#x215f;" 
d="M42 175l-42 76l535 256l41 -76zM111 378v210l-78 -40l-53 72l148 79h97v-321h-114z" />
    <glyph glyph-name="arrowleft" unicode="&#x2190;" 
d="M602 264h-379l-1 -3q28 -19 56.5 -45t59.5 -60l68 -74l-105 -90l-303 337l303 337l105 -90l-68 -74q-32 -34 -60 -60.5t-56 -44.5l1 -3h379v-130z" />
    <glyph glyph-name="arrowup" unicode="&#x2191;" 
d="M226 0v501l-3 1q-12 -24 -26 -43t-42 -47l-80 -77l-92 98l317 298l317 -298l-92 -98l-79 77q-28 27 -42.5 47t-26.5 43l-3 -1v-501h-148z" />
    <glyph glyph-name="arrowright" unicode="&#x2192;" 
d="M-2 394h379l1 3q-27 17 -53 40.5t-55 55.5l-76 83l105 90l303 -337l-303 -337l-105 90l76 83q29 32 55 55.5t53 40.5l-1 3h-379v130z" />
    <glyph glyph-name="arrowdown" unicode="&#x2193;" 
d="M374 705v-501l3 -1q7 13 14.5 24.5t17 23t21 24t27.5 28.5l68 67l92 -98l-317 -298l-317 298l92 98l69 -68q31 -32 49 -53.5t30 -45.5l3 1v501h148z" />
    <glyph glyph-name="arrowboth" unicode="&#x2194;" 
d="M91 394h418l1 3q-18 11 -31.5 24t-30.5 30l-105 115l105 89l280 -326l-280 -326l-105 89l105 115q17 17 30.5 30t31.5 24l-1 3h-418l-1 -3q17 -11 31 -24t30 -30l105 -115l-104 -89l-280 326l280 326l104 -89l-69 -76l-37 -39q-17 -17 -31 -30t-29 -24z" />
    <glyph glyph-name="arrowupdn" unicode="&#x2195;" 
d="M374 562v-444l3 -1q7 13 14.5 24.5t17 23t21 24.5t27.5 28l68 68l92 -99l-317 -297l-317 297l92 99l71 -69q31 -30 48 -52.5t29 -46.5l3 1v444l-3 1q-14 -26 -32 -49.5t-49 -52.5l-67 -65l-92 98l317 298l317 -298l-92 -98l-68 67q-35 34 -51.5 55.5t-28.5 44.5z" />
    <glyph glyph-name="uni2196" unicode="&#x2196;" 
d="M490 28l-341 344l-3 -1q6 -22 10.5 -43.5t4.5 -56.5q0 -6 -0.5 -12.5t-0.5 -13.5l-7 -132l-143 9l22 463l463 22l9 -129l-156 -8q-7 0 -13 -0.5t-11 -0.5q-26 0 -44 2.5t-34 6.5l-1 -3l345 -346z" />
    <glyph glyph-name="uni2197" unicode="&#x2197;" 
d="M10 129l345 346l-1 3q-16 -4 -34 -6.5t-44 -2.5q-5 0 -11 0.5t-13 0.5l-156 8l9 129l463 -22l22 -463l-143 -9l-7 132q0 7 -0.5 13.5t-0.5 12.5q0 35 4.5 56.5t10.5 43.5l-3 1l-341 -344z" />
    <glyph glyph-name="uni2198" unicode="&#x2198;" 
d="M110 595l341 -344l3 1q-6 22 -10.5 43.5t-4.5 56.5q0 6 0.5 12.5t0.5 13.5l7 132l143 -9l-22 -463l-463 -22l-9 129l156 8q7 0 13 0.5t11 0.5q26 0 44 -2.5t34 -6.5l1 3l-345 346z" />
    <glyph glyph-name="uni2199" unicode="&#x2199;" 
d="M590 482l-345 -334l1 -3q16 4 34 6.5t44 2.5q5 0 11 -0.5t13 -0.5l156 -8l-9 -129l-463 22l-22 463l143 9l7 -132q0 -7 0.5 -13.5t0.5 -12.5q0 -35 -4.5 -56.5t-10.5 -43.5l3 -1l341 332z" />
    <glyph glyph-name="uni21E6" unicode="&#x21e6;" 
d="M640 239q0 -23 -13.5 -36.5t-36.5 -13.5h-332v-176l-298 300l298 300v-176h332q23 0 36.5 -13.5t13.5 -36.5v-148zM596 393h-383v111l-189 -191l189 -191v111h383v160z" />
    <glyph glyph-name="uni21E7" unicode="&#x21e7;" 
d="M219 -12q-23 0 -36.5 13.5t-13.5 36.5v496h-169l300 298l300 -298h-169v-496q0 -23 -13.5 -36.5t-36.5 -13.5h-162zM384 32v547h107l-191 189l-191 -189h107v-547h168z" />
    <glyph glyph-name="uni21E8" unicode="&#x21e8;" 
d="M-40 387q0 23 13.5 36.5t36.5 13.5h332v176l298 -300l-298 -300v176h-332q-23 0 -36.5 13.5t-13.5 36.5v148zM4 233h383v-111l189 191l-189 191v-111h-383v-160z" />
    <glyph glyph-name="uni21E9" unicode="&#x21e9;" 
d="M381 750q23 0 36.5 -13.5t13.5 -36.5v-496h169l-300 -298l-300 298h169v496q0 23 13.5 36.5t36.5 13.5h162zM216 706v-547h-107l191 -189l191 189h-107v547h-168z" />
    <glyph glyph-name="uni21EA" unicode="&#x21ea;" 
d="M169 255v279h-169l300 298l300 -298h-169v-279h-262zM431 155v-117q0 -23 -13.5 -36.5t-36.5 -13.5h-162q-23 0 -36.5 13.5t-13.5 36.5v117h262zM384 297v282h107l-191 189l-191 -189h107v-282h168zM216 113v-81h168v81h-168z" />
    <glyph glyph-name="partialdiff" unicode="&#x2202;" 
d="M243 458q46 0 79 -17.5t53 -44.5l3 2q-20 90 -86 147.5t-184 86.5l35 109q109 -22 185 -62.5t124 -99t70 -135t22 -172.5q0 -58 -16 -110.5t-48 -92t-79 -63t-109 -23.5q-54 0 -98.5 16.5t-76.5 48t-49.5 76t-17.5 100.5q0 51 14 94t39.5 74t61 48.5t78.5 17.5zM380 286
q-21 29 -42 42t-48 13q-16 0 -30.5 -6.5t-25.5 -21t-17.5 -38t-6.5 -56.5q0 -58 21.5 -90.5t62.5 -32.5q24 0 40.5 12t26.5 33t14.5 49t4.5 60v36z" />
    <glyph glyph-name="Delta" unicode="&#x2206;" 
d="M200 693h201l212 -693h-625zM187 122h222l-108 440h-5z" />
    <glyph glyph-name="product" unicode="&#x220f;" 
d="M366 -222v795h-129v-778l-152 -17v795h-59v120h548v-120h-59v-778z" />
    <glyph glyph-name="summation" unicode="&#x2211;" 
d="M414 314l-165 -194h281v-120h-456v115l197 231l-197 232v115h456v-120h-281l165 -192v-67z" />
    <glyph glyph-name="minus" unicode="&#x2212;" 
d="M82 250v125h436v-125h-436z" />
    <glyph glyph-name="uni2215" unicode="&#x2215;" 
d="M54 175l-42 76l535 256l41 -76z" />
    <glyph glyph-name="uni2219" unicode="&#x2219;" 
d="M188 342q0 23 9 43.5t24 35.5t35.5 24t43.5 9t43.5 -9t35.5 -24t24 -35.5t9 -43.5t-9 -43.5t-24 -35.5t-35.5 -24t-43.5 -9t-43.5 9t-35.5 24t-24 35.5t-9 43.5z" />
    <glyph glyph-name="radical" unicode="&#x221a;" 
d="M323 0h-182l-168 461l148 45l104 -358h4l188 726h308v-121h-190z" />
    <glyph glyph-name="infinity" unicode="&#x221e;" 
d="M445 113q-53 0 -88 25.5t-61 70.5q-23 -41 -56.5 -68.5t-88.5 -27.5q-46 0 -77 16.5t-50 44t-27 64.5t-8 78t8 77.5t27.5 64.5t51.5 44t79 16q52 0 87.5 -25.5t61.5 -71.5q11 20 24.5 38t30.5 31t39 20.5t50 7.5q46 0 77.5 -16.5t50.5 -44t27 -64.5t8 -78t-8.5 -77.5
t-28 -64.5t-51 -44t-78.5 -16zM115 316q0 -47 13.5 -72.5t41.5 -25.5q16 0 28 9t21 24t16 35.5t13 44.5q-7 16 -14.5 31t-16.5 26.5t-20 18.5t-25 7q-57 0 -57 -98zM485 316q0 47 -14 72.5t-42 25.5q-16 0 -27.5 -9t-20.5 -24.5t-16 -36t-14 -43.5q14 -33 31 -58t46 -25
q57 0 57 98z" />
    <glyph glyph-name="intersection" unicode="&#x2229;" 
d="M448 347q0 31 -11.5 58t-31.5 47t-47 31.5t-58 11.5t-58 -11.5t-47 -31.5t-31.5 -47t-11.5 -58v-347h-124v347q0 56 21.5 105.5t58.5 86.5t86.5 58.5t105.5 21.5t105.5 -21.5t86.5 -58.5t58.5 -86.5t21.5 -105.5v-347h-124v347z" />
    <glyph glyph-name="integral" unicode="&#x222b;" 
d="M381 -30q0 -49 -15 -85t-41 -60t-62.5 -35.5t-78.5 -11.5q-47 0 -82 9.5t-65 24.5l43 104q25 -11 44.5 -15.5t39.5 -4.5q33 0 46 16t13 52v704q0 91 45 142.5t144 51.5q47 0 83 -9.5t68 -23.5l-43 -104q-46 20 -84 20q-29 0 -42 -17t-13 -54v-704z" />
    <glyph glyph-name="approxequal" unicode="&#x2248;" 
d="M381 318q-34 0 -57.5 9t-42.5 20t-35 20t-34 9q-27 0 -40.5 -15t-25.5 -38l-88 46q12 23 26.5 45.5t34 40.5t44 29t56.5 11q34 0 57.5 -9t42.5 -20.5t35 -20.5t34 -9q27 0 40.5 15.5t25.5 38.5l88 -47q-12 -23 -26.5 -45.5t-34 -40t-44.5 -28.5t-56 -11zM381 125
q-34 0 -57.5 9t-42.5 20t-35 20t-34 9q-27 0 -40.5 -15t-25.5 -38l-88 47q12 23 26.5 45.5t34 40.5t44 29t56.5 11q34 0 57.5 -9t42.5 -20.5t35 -20.5t34 -9q27 0 40.5 15t25.5 38l88 -47q-12 -23 -26.5 -45.5t-34 -40t-44.5 -28.5t-56 -11z" />
    <glyph glyph-name="notequal" unicode="&#x2260;" 
d="M254 144l-81 -137l-81 47l53 90h-73v122h147l54 91h-201v122h274l81 134l80 -45l-53 -89h74v-122h-147l-54 -91h201v-122h-274z" />
    <glyph glyph-name="equivalence" unicode="&#x2261;" 
d="M72 461v125h456v-125h-456zM72 251v125h456v-125h-456zM72 41v124h456v-124h-456z" />
    <glyph glyph-name="lessequal" unicode="&#x2264;" 
d="M75 341v141l398 168l51 -111l-313 -127l313 -118l-51 -117zM79 0v121h436v-121h-436z" />
    <glyph glyph-name="greaterequal" unicode="&#x2265;" 
d="M127 177l-52 116l313 119l-313 126l52 112l397 -168v-141zM85 0v121h436v-121h-436z" />
    <glyph glyph-name="house" unicode="&#x2302;" 
d="M560 0h-520v308l259 231l261 -231v-308zM110 65h380v212l-191 171l-189 -171v-212z" />
    <glyph glyph-name="revlogicalnot" unicode="&#x2310;" 
d="M82 380h436v-123h-304v-154h-132v277z" />
    <glyph glyph-name="integraltp" unicode="&#x2320;" 
d="M381 -500h-158v1168q0 91 45 142.5t144 51.5q47 0 83 -9.5t68 -23.5l-43 -104q-46 20 -84 20q-29 0 -42 -17t-13 -54v-1174z" />
    <glyph glyph-name="integralbt" unicode="&#x2321;" 
d="M164 -104q33 0 46 16t13 52v1036h158v-1030q0 -49 -15 -85t-41 -60t-62.5 -35.5t-78.5 -11.5q-47 0 -82 9.5t-65 24.5l43 104q25 -11 44.5 -15.5t39.5 -4.5z" />
    <glyph glyph-name="uni2326" unicode="&#x2326;" 
d="M400 28h-434q-5 0 -7 1q-2 0 -4 1q-2 0 -2.5 0.5t-2.5 0.5q-5 2 -13 8q-4 3 -10 11q-4 8 -5 13v1q-1 1 -1 3t-0.5 3t-0.5 3v550q0 12 4 20l3 7q5 8 10 12q4 2 6 4q8 5 23 7h434l340 -321zM19 221l67 -67l134 134l134 -134l67 67l-134 134l134 133l-67 69l-134 -135
l-134 135l-67 -69l134 -133z" />
    <glyph glyph-name="uni2327" unicode="&#x2327;" 
d="M-30 28q-23 0 -36.5 13.5t-13.5 36.5v545q0 23 13.5 36.5t36.5 13.5h660q23 0 36.5 -13.5t13.5 -36.5v-545q0 -23 -13.5 -36.5t-36.5 -13.5h-660zM99 221l67 -67l134 134l134 -134l67 67l-134 134l134 133l-67 69l-134 -135l-134 135l-67 -69l134 -133z" />
    <glyph glyph-name="uni2328" unicode="&#x2328;" 
d="M-25 38q-23 0 -36.5 13.5t-13.5 36.5v495q0 23 13.5 36.5t36.5 13.5h680q23 0 36.5 -13.5t13.5 -36.5v-495q0 -23 -13.5 -36.5t-36.5 -13.5h-680zM550 294q0 -8 6 -14t14 -6h54q8 0 14 6t6 14v244q0 8 -6 14t-14 6h-94q-8 0 -14 -6t-6 -14v-74q0 -8 6 -14t14 -6t14 -6
t6 -14v-130zM5 558q-8 0 -14 -6t-6 -14v-74q0 -8 6 -14t14 -6h74q8 0 14 6t6 14v74q0 8 -6 14t-14 6h-74zM177 558q-8 0 -14 -6t-6 -14v-74q0 -8 6 -14t14 -6h74q8 0 14 6t6 14v74q0 8 -6 14t-14 6h-74zM349 558q-8 0 -14 -6t-6 -14v-74q0 -8 6 -14t14 -6h74q8 0 14 6t6 14
v74q0 8 -6 14t-14 6h-74zM45 388q-8 0 -14 -6t-6 -14v-74q0 -8 6 -14t14 -6h74q8 0 14 6t6 14v74q0 8 -6 14t-14 6h-74zM217 388q-8 0 -14 -6t-6 -14v-74q0 -8 6 -14t14 -6h74q8 0 14 6t6 14v74q0 8 -6 14t-14 6h-74zM389 388q-8 0 -14 -6t-6 -14v-74q0 -8 6 -14t14 -6h74
q8 0 14 6t6 14v74q0 8 -6 14t-14 6h-74zM99 223q-8 0 -14 -6t-6 -14v-74q0 -8 6 -14t14 -6h436q8 0 14 6t6 14v74q0 8 -6 14t-14 6h-436z" />
    <glyph glyph-name="uni232B" unicode="&#x232b;" 
d="M447 355l134 133l-67 69l-134 -135l-134 135l-67 -69l134 -133l-134 -134l67 -67l134 134l134 -134l67 67zM200 28l-340 324l340 321h430q23 0 36.5 -13.5t13.5 -36.5v-545q0 -23 -13.5 -36.5t-36.5 -13.5h-430z" />
    <glyph glyph-name="uni23CE" unicode="&#x23ce;" 
d="M371 700q0 23 13.5 36.5t36.5 13.5h159q23 0 36.5 -13.5t13.5 -36.5v-461q0 -23 -13.5 -36.5t-36.5 -13.5h-312v-174l-298 298l298 299v-174h103v262zM584 706h-168v-313h-193v111l-189 -191l189 -191v111h361v473z" />
    <glyph glyph-name="SF100000" unicode="&#x2500;" 
d="M-5 390h610v-80h-610v80z" />
    <glyph glyph-name="uni2501" unicode="&#x2501;" 
d="M-5 470h610v-240h-610v240z" />
    <glyph glyph-name="SF110000" unicode="&#x2502;" 
d="M260 1000h80v-1500h-80v1500z" />
    <glyph glyph-name="uni2503" unicode="&#x2503;" 
d="M180 1000h240v-1500h-240v1500z" />
    <glyph glyph-name="SF010000" unicode="&#x250c;" 
d="M260 390h345v-80h-265v-810h-80v890z" />
    <glyph glyph-name="uni250D" unicode="&#x250d;" 
d="M260 470h345v-240h-265v-730h-80v970z" />
    <glyph glyph-name="uni250E" unicode="&#x250e;" 
d="M180 390h425v-80h-185v-810h-240v890z" />
    <glyph glyph-name="uni250F" unicode="&#x250f;" 
d="M180 470h425v-240h-185v-730h-240v970z" />
    <glyph glyph-name="SF030000" unicode="&#x2510;" 
d="M-5 390h345v-890h-80v810h-265v80z" />
    <glyph glyph-name="uni2511" unicode="&#x2511;" 
d="M-5 470h345v-970h-80v730h-265v240z" />
    <glyph glyph-name="uni2512" unicode="&#x2512;" 
d="M-5 390h425v-890h-240v810h-185v80z" />
    <glyph glyph-name="uni2513" unicode="&#x2513;" 
d="M-5 470h425v-970h-240v730h-185v240z" />
    <glyph glyph-name="SF020000" unicode="&#x2514;" 
d="M260 1000h80v-610h265v-80h-345v690z" />
    <glyph glyph-name="uni2515" unicode="&#x2515;" 
d="M260 1000h80v-530h265v-240h-345v770z" />
    <glyph glyph-name="uni2516" unicode="&#x2516;" 
d="M180 1000h240v-610h185v-80h-425v690z" />
    <glyph glyph-name="uni2517" unicode="&#x2517;" 
d="M180 1000h240v-530h185v-240h-425v770z" />
    <glyph glyph-name="SF040000" unicode="&#x2518;" 
d="M-5 390h265v610h80v-690h-345v80z" />
    <glyph glyph-name="uni2519" unicode="&#x2519;" 
d="M-5 470h265v530h80v-770h-345v240z" />
    <glyph glyph-name="uni251A" unicode="&#x251a;" 
d="M-5 390h185v610h240v-690h-425v80z" />
    <glyph glyph-name="uni251B" unicode="&#x251b;" 
d="M-5 470h185v530h240v-770h-425v240z" />
    <glyph glyph-name="SF080000" unicode="&#x251c;" 
d="M260 1000h80v-610h265v-80h-265v-810h-80v1500z" />
    <glyph glyph-name="uni251D" unicode="&#x251d;" 
d="M260 1000h80v-530h265v-240h-265v-730h-80v1500z" />
    <glyph glyph-name="uni251E" unicode="&#x251e;" 
d="M180 1000h240v-610h185v-80h-265v-810h-80v810h-80v690z" />
    <glyph glyph-name="uni251F" unicode="&#x251f;" 
d="M180 390h80v610h80v-610h265v-80h-185v-810h-240v890z" />
    <glyph glyph-name="uni2520" unicode="&#x2520;" 
d="M180 1000h240v-610h185v-80h-185v-810h-240v1500z" />
    <glyph glyph-name="uni2521" unicode="&#x2521;" 
d="M180 1000h240v-530h185v-240h-265v-730h-80v730h-80v770z" />
    <glyph glyph-name="uni2522" unicode="&#x2522;" 
d="M180 470h80v530h80v-530h265v-240h-185v-730h-240v970z" />
    <glyph glyph-name="uni2523" unicode="&#x2523;" 
d="M180 1000h240v-530h185v-240h-185v-730h-240v1500z" />
    <glyph glyph-name="SF090000" unicode="&#x2524;" 
d="M-5 390h265v610h80v-1500h-80v810h-265v80z" />
    <glyph glyph-name="uni2525" unicode="&#x2525;" 
d="M-5 470h265v530h80v-1500h-80v730h-265v240z" />
    <glyph glyph-name="uni2526" unicode="&#x2526;" 
d="M-5 390h185v610h240v-690h-80v-810h-80v810h-265v80z" />
    <glyph glyph-name="uni2527" unicode="&#x2527;" 
d="M-5 390h265v610h80v-610h80v-890h-240v810h-185v80z" />
    <glyph glyph-name="uni2528" unicode="&#x2528;" 
d="M-5 390h185v610h240v-1500h-240v810h-185v80z" />
    <glyph glyph-name="uni2529" unicode="&#x2529;" 
d="M-5 470h185v530h240v-770h-80v-730h-80v730h-265v240z" />
    <glyph glyph-name="uni252A" unicode="&#x252a;" 
d="M-5 470h265v530h80v-530h80v-970h-240v730h-185v240z" />
    <glyph glyph-name="uni252B" unicode="&#x252b;" 
d="M-5 470h185v530h240v-1500h-240v730h-185v240z" />
    <glyph glyph-name="SF060000" unicode="&#x252c;" 
d="M-5 390h610v-80h-265v-810h-80v810h-265v80z" />
    <glyph glyph-name="uni252D" unicode="&#x252d;" 
d="M-5 470h345v-80h265v-80h-265v-810h-80v730h-265v240z" />
    <glyph glyph-name="uni252E" unicode="&#x252e;" 
d="M-5 390h265v80h345v-240h-265v-730h-80v810h-265v80z" />
    <glyph glyph-name="uni252F" unicode="&#x252f;" 
d="M-5 470h610v-240h-265v-730h-80v730h-265v240z" />
    <glyph glyph-name="uni2530" unicode="&#x2530;" 
d="M-5 390h610v-80h-185v-810h-240v810h-185v80z" />
    <glyph glyph-name="uni2531" unicode="&#x2531;" 
d="M-5 470h425v-80h185v-80h-185v-810h-240v730h-185v240z" />
    <glyph glyph-name="uni2532" unicode="&#x2532;" 
d="M-5 390h185v80h425v-240h-185v-730h-240v810h-185v80z" />
    <glyph glyph-name="uni2533" unicode="&#x2533;" 
d="M-5 470h610v-240h-185v-730h-240v730h-185v240z" />
    <glyph glyph-name="SF070000" unicode="&#x2534;" 
d="M-5 390h265v610h80v-610h265v-80h-610v80z" />
    <glyph glyph-name="uni2535" unicode="&#x2535;" 
d="M-5 470h265v530h80v-610h265v-80h-265v-80h-345v240z" />
    <glyph glyph-name="uni2536" unicode="&#x2536;" 
d="M-5 390h265v610h80v-530h265v-240h-345v80h-265v80z" />
    <glyph glyph-name="uni2537" unicode="&#x2537;" 
d="M-5 470h265v530h80v-530h265v-240h-610v240z" />
    <glyph glyph-name="uni2538" unicode="&#x2538;" 
d="M-5 390h185v610h240v-610h185v-80h-610v80z" />
    <glyph glyph-name="uni2539" unicode="&#x2539;" 
d="M-5 470h185v530h240v-610h185v-80h-185v-80h-425v240z" />
    <glyph glyph-name="uni253A" unicode="&#x253a;" 
d="M-5 390h185v610h240v-530h185v-240h-425v80h-185v80z" />
    <glyph glyph-name="uni253B" unicode="&#x253b;" 
d="M-5 470h185v530h240v-530h185v-240h-610v240z" />
    <glyph glyph-name="SF050000" unicode="&#x253c;" 
d="M-5 390h265v610h80v-610h265v-80h-265v-810h-80v810h-265v80z" />
    <glyph glyph-name="uni253D" unicode="&#x253d;" 
d="M-5 470h265v530h80v-610h265v-80h-265v-810h-80v730h-265v240z" />
    <glyph glyph-name="uni253E" unicode="&#x253e;" 
d="M-5 390h265v610h80v-530h265v-240h-265v-730h-80v810h-265v80z" />
    <glyph glyph-name="uni253F" unicode="&#x253f;" 
d="M-5 470h265v530h80v-530h265v-240h-265v-730h-80v730h-265v240z" />
    <glyph glyph-name="uni2540" unicode="&#x2540;" 
d="M-5 390h185v610h240v-610h185v-80h-265v-810h-80v810h-265v80z" />
    <glyph glyph-name="uni2541" unicode="&#x2541;" 
d="M-5 390h265v610h80v-610h265v-80h-185v-810h-240v810h-185v80z" />
    <glyph glyph-name="uni2542" unicode="&#x2542;" 
d="M-5 390h185v610h240v-610h185v-80h-185v-810h-240v810h-185v80z" />
    <glyph glyph-name="uni2543" unicode="&#x2543;" 
d="M-5 470h185v530h240v-610h185v-80h-185v-80h-80v-730h-80v730h-265v240z" />
    <glyph glyph-name="uni2544" unicode="&#x2544;" 
d="M-5 390h185v610h240v-530h185v-240h-265v-730h-80v730h-80v80h-185v80z" />
    <glyph glyph-name="uni2545" unicode="&#x2545;" 
d="M-5 470h265v530h80v-530h80v-80h185v-80h-185v-810h-240v730h-185v240z" />
    <glyph glyph-name="uni2546" unicode="&#x2546;" 
d="M-5 390h185v80h80v530h80v-530h265v-240h-185v-730h-240v810h-185v80z" />
    <glyph glyph-name="uni2547" unicode="&#x2547;" 
d="M-5 470h185v530h240v-530h185v-240h-265v-730h-80v730h-265v240z" />
    <glyph glyph-name="uni2548" unicode="&#x2548;" 
d="M-5 470h265v530h80v-530h265v-240h-185v-730h-240v730h-185v240z" />
    <glyph glyph-name="uni2549" unicode="&#x2549;" 
d="M-5 470h185v530h240v-610h185v-80h-185v-810h-240v730h-185v240z" />
    <glyph glyph-name="uni254A" unicode="&#x254a;" 
d="M-5 390h185v610h240v-530h185v-240h-185v-730h-240v810h-185v80z" />
    <glyph glyph-name="uni254B" unicode="&#x254b;" 
d="M-5 470h185v530h240v-530h185v-240h-185v-730h-240v730h-185v240z" />
    <glyph glyph-name="uni254C" unicode="&#x254c;" 
d="M340 310v80h265v-80h-265zM-5 390h265v-80h-265v80z" />
    <glyph glyph-name="uni254D" unicode="&#x254d;" 
d="M420 230v240h185v-240h-185zM-5 470h185v-240h-185v240z" />
    <glyph glyph-name="uni254E" unicode="&#x254e;" 
d="M260 310h80v-810h-80v810zM340 390h-80v610h80v-610z" />
    <glyph glyph-name="uni254F" unicode="&#x254f;" 
d="M180 230h240v-730h-240v730zM420 470h-240v530h240v-530z" />
    <glyph glyph-name="SF430000" unicode="&#x2550;" 
d="M-5 310h610v-80h-610v80zM605 390h-610v80h610v-80z" />
    <glyph glyph-name="SF240000" unicode="&#x2551;" 
d="M340 -500v1500h80v-1500h-80zM180 1000h80v-1500h-80v1500z" />
    <glyph glyph-name="SF510000" unicode="&#x2552;" 
d="M605 390h-265v-80h265v-80h-265v-730h-80v970h345v-80z" />
    <glyph glyph-name="SF520000" unicode="&#x2553;" 
d="M340 -500v810h-80v-810h-80v890h425v-80h-185v-810h-80z" />
    <glyph glyph-name="SF390000" unicode="&#x2554;" 
d="M180 470h425v-80h-345v-890h-80v970zM340 -500v810h265v-80h-185v-730h-80z" />
    <glyph glyph-name="SF220000" unicode="&#x2555;" 
d="M-5 310h265v80h-265v80h345v-970h-80v730h-265v80z" />
    <glyph glyph-name="SF210000" unicode="&#x2556;" 
d="M-5 390h425v-890h-80v810h-80v-810h-80v810h-185v80z" />
    <glyph glyph-name="SF250000" unicode="&#x2557;" 
d="M340 -500v890h-345v80h425v-970h-80zM-5 310h265v-810h-80v730h-185v80z" />
    <glyph glyph-name="SF500000" unicode="&#x2558;" 
d="M605 390h-265v-80h265v-80h-345v770h80v-530h265v-80z" />
    <glyph glyph-name="SF490000" unicode="&#x2559;" 
d="M180 1000h80v-610h80v610h80v-610h185v-80h-425v690z" />
    <glyph glyph-name="SF380000" unicode="&#x255a;" 
d="M605 310v-80h-425v770h80v-690h345zM605 390h-265v610h80v-530h185v-80z" />
    <glyph glyph-name="SF280000" unicode="&#x255b;" 
d="M-5 310h265v80h-265v80h265v530h80v-770h-345v80z" />
    <glyph glyph-name="SF270000" unicode="&#x255c;" 
d="M-5 390h185v610h80v-610h80v610h80v-690h-425v80z" />
    <glyph glyph-name="SF260000" unicode="&#x255d;" 
d="M-5 310h345v690h80v-770h-425v80zM180 1000h80v-610h-265v80h185v530z" />
    <glyph glyph-name="SF360000" unicode="&#x255e;" 
d="M605 390h-265v-80h265v-80h-265v-730h-80v1500h80v-530h265v-80z" />
    <glyph glyph-name="SF370000" unicode="&#x255f;" 
d="M340 -500v1500h80v-610h185v-80h-185v-810h-80zM180 1000h80v-1500h-80v1500z" />
    <glyph glyph-name="SF420000" unicode="&#x2560;" 
d="M180 1000h80v-1500h-80v1500zM340 -500v810h265v-80h-185v-730h-80zM605 390h-265v610h80v-530h185v-80z" />
    <glyph glyph-name="SF190000" unicode="&#x2561;" 
d="M-5 310h265v80h-265v80h265v530h80v-1500h-80v730h-265v80z" />
    <glyph glyph-name="SF200000" unicode="&#x2562;" 
d="M180 -500v810h-185v80h185v610h80v-1500h-80zM340 -500v1500h80v-1500h-80z" />
    <glyph glyph-name="SF230000" unicode="&#x2563;" 
d="M340 -500v1500h80v-1500h-80zM-5 310h265v-810h-80v730h-185v80zM180 1000h80v-610h-265v80h185v530z" />
    <glyph glyph-name="SF470000" unicode="&#x2564;" 
d="M-5 310h610v-80h-265v-730h-80v730h-265v80zM605 390h-610v80h610v-80z" />
    <glyph glyph-name="SF480000" unicode="&#x2565;" 
d="M-5 390h610v-80h-185v-810h-80v810h-80v-810h-80v810h-185v80z" />
    <glyph glyph-name="SF410000" unicode="&#x2566;" 
d="M-5 310h265v-810h-80v730h-185v80zM340 -500v810h265v-80h-185v-730h-80zM605 390h-610v80h610v-80z" />
    <glyph glyph-name="SF450000" unicode="&#x2567;" 
d="M605 390h-610v80h265v530h80v-530h265v-80zM-5 310h610v-80h-610v80z" />
    <glyph glyph-name="SF460000" unicode="&#x2568;" 
d="M-5 390h185v610h80v-610h80v610h80v-610h185v-80h-610v80z" />
    <glyph glyph-name="SF400000" unicode="&#x2569;" 
d="M605 390h-265v610h80v-530h185v-80zM180 1000h80v-610h-265v80h185v530zM-5 310h610v-80h-610v80z" />
    <glyph glyph-name="SF540000" unicode="&#x256a;" 
d="M605 390h-265v-80h265v-80h-265v-730h-80v730h-265v80h265v80h-265v80h265v530h80v-530h265v-80z" />
    <glyph glyph-name="SF530000" unicode="&#x256b;" 
d="M-5 390h185v610h80v-610h80v610h80v-610h185v-80h-185v-810h-80v810h-80v-810h-80v810h-185v80z" />
    </font>
</defs>
</svg>
