<?xml version="1.0" encoding="utf-8"?>
<!-- Generator: Adobe Illustrator 17.0.0, SVG Export Plug-In . SVG Version: 6.00 Build 0)  -->
<!DOCTYPE svg PUBLIC "-//W3C//DTD SVG 1.1//EN" "http://www.w3.org/Graphics/SVG/1.1/DTD/svg11.dtd">
<svg version="1.1" id="Layer_1" xmlns="http://www.w3.org/2000/svg" xmlns:xlink="http://www.w3.org/1999/xlink" x="0px" y="0px"
	 width="30.917px" height="18.833px" viewBox="0 0 30.917 18.833" enable-background="new 0 0 30.917 18.833" xml:space="preserve">
<g>
	<circle fill="#FFFFFF" stroke="#FFFFFF" stroke-width="2" stroke-miterlimit="10" cx="15.444" cy="9.437" r="6.001"/>
	<g>
		<path fill="#FFFFFF" d="M15.444,2.437c4.176,0,12.246,5.017,12.979,7c-0.733,1.983-8.803,7-12.979,7
			c-4.176,0-12.246-5.017-12.979-7C3.198,7.453,11.268,2.437,15.444,2.437 M15.444,0.437c-4.971,0-15.001,6-15.001,9
			s10.03,9,15.001,9c4.971,0,15-6,15-9S20.415,0.437,15.444,0.437L15.444,0.437z"/>
	</g>
</g>
<circle fill="#E99E23" cx="15.444" cy="9.437" r="2"/>
</svg>
