<?xml version="1.0" encoding="utf-8"?>
<!-- Generator: Adobe Illustrator 17.0.0, SVG Export Plug-In . SVG Version: 6.00 Build 0)  -->
<!DOCTYPE svg PUBLIC "-//W3C//DTD SVG 1.1//EN" "http://www.w3.org/Graphics/SVG/1.1/DTD/svg11.dtd">
<svg version="1.1" id="Слой_1" xmlns="http://www.w3.org/2000/svg" xmlns:xlink="http://www.w3.org/1999/xlink" x="0px" y="0px"
	 width="201px" height="67.5px" viewBox="0 0 201 67.5" enable-background="new 0 0 201 67.5" xml:space="preserve">
<circle fill="none" stroke="#F18502" stroke-width="9" stroke-miterlimit="10" cx="30.174" cy="38.19" r="24.333"/>
<g>
	<g>
		<polygon fill="#020202" points="32.297,37.523 47.12,2.208 57.997,2.208 43.172,37.523 		"/>
		<path fill="#FFFFFF" d="M56.493,3.208L42.507,36.523h-8.706L47.784,3.208H56.493 M59.502,1.208h-3.009h-8.708h-1.33L45.94,2.434
			L31.957,35.748l-1.164,2.774h3.008h8.706h1.33l0.515-1.226L58.337,3.982L59.502,1.208L59.502,1.208z"/>
	</g>
</g>
<g>
	<path d="M81.066,23.729c-0.558-0.631-1.236-1.098-2.014-1.39c-0.766-0.286-1.616-0.431-2.527-0.431
		c-0.735,0-1.434,0.076-2.078,0.224c-0.652,0.151-1.21,0.359-1.659,0.62l-0.198,0.115l0.072,0.218l0.006,3.251h2.093v-2.23
		c0.192-0.044,0.397-0.084,0.611-0.118c0.29-0.046,0.61-0.069,0.952-0.069c0.599,0,1.155,0.095,1.652,0.281
		c0.49,0.185,0.926,0.471,1.296,0.852c0.371,0.383,0.671,0.882,0.892,1.482c0.198,0.539,0.32,1.185,0.364,1.925h-5.111v2.093h5.141
		c-0.022,0.846-0.144,1.572-0.362,2.161c-0.241,0.649-0.558,1.179-0.943,1.575c-0.382,0.394-0.821,0.684-1.305,0.862
		c-0.927,0.342-1.95,0.325-2.709,0.146c-0.292-0.069-0.563-0.144-0.808-0.226v-2.148h-2.094v3.5l0.137,0.082
		c0.153,0.092,0.359,0.19,0.629,0.299c0.267,0.107,0.561,0.208,0.875,0.299c0.321,0.093,0.665,0.171,1.021,0.234
		c0.365,0.065,0.732,0.098,1.093,0.098c0.908,0,1.78-0.141,2.591-0.418c0.823-0.281,1.552-0.743,2.167-1.371
		c0.611-0.626,1.098-1.443,1.448-2.428c0.346-0.976,0.522-2.169,0.522-3.545c0-1.359-0.154-2.541-0.457-3.514
		C82.057,25.172,81.62,24.355,81.066,23.729z"/>
	<polygon points="94.51,30.587 89.537,30.587 89.537,26.289 87.381,26.289 87.381,37.185 89.537,37.185 89.537,32.597 94.51,32.597 
		94.51,37.185 96.707,37.185 96.707,26.289 94.51,26.289 	"/>
	<path d="M111.583,32.022c0.07-1.2-0.017-2.197-0.261-2.963c-0.248-0.779-0.61-1.403-1.075-1.853
		c-0.466-0.451-1.011-0.763-1.621-0.928c-1.399-0.374-2.891-0.29-4.056,0.143c-0.683,0.254-1.273,0.627-1.754,1.109
		c-0.483,0.483-0.856,1.088-1.11,1.799c-0.251,0.702-0.378,1.512-0.378,2.409c0,0.854,0.116,1.635,0.345,2.321
		c0.231,0.695,0.577,1.302,1.029,1.804c0.454,0.505,1.025,0.899,1.696,1.168c0.665,0.267,1.437,0.403,2.295,0.403
		c0.454,0,0.912-0.04,1.361-0.118c0.448-0.078,0.883-0.19,1.293-0.331c0.414-0.143,0.802-0.317,1.153-0.518
		c0.354-0.203,0.666-0.423,0.926-0.655l0.167-0.149l-0.917-1.689l-0.266,0.24c-0.124,0.111-0.306,0.24-0.542,0.38
		c-0.237,0.142-0.517,0.273-0.831,0.391c-0.319,0.12-0.659,0.224-1.009,0.31c-0.34,0.084-0.688,0.126-1.035,0.126
		c-1.034,0-1.868-0.284-2.478-0.845c-0.553-0.508-0.855-1.277-0.902-2.289h7.954L111.583,32.022z M103.71,30.277
		c0.062-0.364,0.165-0.677,0.306-0.936c0.178-0.326,0.407-0.594,0.681-0.796c0.277-0.204,0.604-0.352,0.969-0.439
		c0.383-0.09,0.794-0.137,1.222-0.137c0.768,0,1.367,0.22,1.831,0.674c0.404,0.395,0.659,0.944,0.759,1.634H103.71z"/>
	<path d="M121.777,26.041c-0.872,0-1.624,0.176-2.236,0.522c-0.447,0.253-0.84,0.556-1.173,0.903l-0.168-1.177h-3.275v1.907h1.425
		c0.012,0.088,0.023,0.182,0.033,0.283c0.02,0.203,0.037,0.41,0.051,0.62c0.013,0.211,0.024,0.416,0.031,0.612
		c0.006,0.196,0.01,0.354,0.01,0.476v11.13h2.156v-4.215c0.073,0.025,0.144,0.048,0.213,0.069c0.189,0.058,0.382,0.106,0.58,0.143
		c0.193,0.035,0.409,0.064,0.646,0.086c0.235,0.021,0.501,0.032,0.8,0.032c0.83,0,1.602-0.139,2.294-0.412
		c0.695-0.275,1.298-0.673,1.793-1.182c0.494-0.508,0.88-1.136,1.148-1.866c0.265-0.724,0.399-1.546,0.399-2.443
		c0-1.91-0.4-3.316-1.19-4.178C124.516,26.482,123.327,26.041,121.777,26.041z M121.509,28.134c0.987,0,1.666,0.275,2.075,0.841
		c0.424,0.587,0.639,1.443,0.639,2.545c0,1.309-0.309,2.309-0.918,2.973c-0.611,0.666-1.408,0.99-2.437,0.99
		c-0.59,0-1.066-0.055-1.415-0.162c-0.3-0.093-0.576-0.216-0.824-0.368l-0.002-4.508c0.036-0.263,0.135-0.533,0.294-0.801
		c0.163-0.275,0.377-0.529,0.636-0.756c0.257-0.225,0.557-0.41,0.893-0.549C120.778,28.203,121.135,28.134,121.509,28.134z"/>
	<polygon points="131.062,28.259 132.384,28.259 132.384,35.236 131.062,35.236 131.062,37.185 137.722,37.185 137.722,35.236 
		134.581,35.236 134.581,28.259 138.004,28.259 138.004,30.717 139.974,30.717 139.974,26.289 131.062,26.289 	"/>
	<path d="M154.975,32.022c0.07-1.2-0.017-2.197-0.261-2.963c-0.248-0.779-0.61-1.403-1.075-1.853
		c-0.466-0.451-1.011-0.763-1.621-0.928c-1.4-0.374-2.891-0.29-4.056,0.143c-0.683,0.254-1.273,0.627-1.754,1.109
		c-0.483,0.483-0.856,1.088-1.11,1.799c-0.251,0.702-0.378,1.512-0.378,2.409c0,0.854,0.116,1.635,0.345,2.321
		c0.231,0.695,0.577,1.302,1.029,1.804c0.454,0.505,1.025,0.899,1.696,1.168c0.665,0.267,1.437,0.403,2.295,0.403
		c0.454,0,0.912-0.04,1.361-0.118c0.448-0.078,0.883-0.19,1.293-0.331c0.414-0.143,0.802-0.317,1.153-0.518
		c0.354-0.203,0.666-0.423,0.926-0.655l0.167-0.149l-0.917-1.689l-0.266,0.24c-0.124,0.111-0.306,0.24-0.542,0.38
		c-0.237,0.142-0.517,0.273-0.831,0.391c-0.319,0.12-0.659,0.224-1.009,0.31c-0.34,0.084-0.688,0.126-1.035,0.126
		c-1.034,0-1.868-0.284-2.478-0.845c-0.553-0.508-0.855-1.277-0.902-2.289h7.954L154.975,32.022z M147.102,30.277
		c0.062-0.364,0.165-0.677,0.306-0.936c0.178-0.326,0.407-0.594,0.681-0.796c0.277-0.204,0.604-0.352,0.969-0.439
		c0.383-0.09,0.794-0.137,1.222-0.137c0.768,0,1.367,0.22,1.831,0.674c0.404,0.395,0.659,0.944,0.759,1.634H147.102z"/>
	<polygon points="158.957,30.717 160.926,30.717 160.926,28.259 163.275,28.259 163.275,35.236 160.693,35.236 160.693,37.185 
		167.972,37.185 167.972,35.236 165.472,35.236 165.472,28.259 167.821,28.259 167.821,30.717 169.791,30.717 169.791,26.289 
		158.957,26.289 	"/>
	<polygon points="176.276,33.73 176.299,26.289 174.102,26.289 174.102,37.185 176.015,37.185 181.379,29.88 181.355,37.185 
		183.552,37.185 183.552,26.289 181.616,26.289 	"/>
	<polygon points="197.402,35.236 193.904,31.469 198.734,26.289 196.019,26.289 191.948,30.71 191.218,30.71 191.218,26.289 
		189.062,26.289 189.062,37.185 191.218,37.185 191.218,32.515 191.951,32.515 196.372,37.185 198.905,37.185 198.905,35.236 	"/>
</g>
</svg>
