<?xml version="1.0" encoding="utf-8"?>
<!-- Generator: Adobe Illustrator 17.0.0, SVG Export Plug-In . SVG Version: 6.00 Build 0)  -->
<!DOCTYPE svg PUBLIC "-//W3C//DTD SVG 1.1//EN" "http://www.w3.org/Graphics/SVG/1.1/DTD/svg11.dtd">
<svg version="1.1" id="Слой_1" xmlns="http://www.w3.org/2000/svg" xmlns:xlink="http://www.w3.org/1999/xlink" x="0px" y="0px"
	 width="201px" height="67.5px" viewBox="0 0 201 67.5" enable-background="new 0 0 201 67.5" xml:space="preserve">
<circle fill="none" stroke="#F18502" stroke-width="9" stroke-miterlimit="10" cx="30.174" cy="38.19" r="24.333"/>
<g>
	<g>
		<polygon fill="#020202" points="32.297,37.523 47.12,2.208 57.997,2.208 43.172,37.523 		"/>
		<path fill="#FFFFFF" d="M56.493,3.208L42.507,36.523h-8.706L47.784,3.208H56.493 M59.502,1.208h-3.009h-8.708h-1.33L45.94,2.434
			L31.957,35.748l-1.164,2.774h3.008h8.706h1.33l0.515-1.226L58.337,3.982L59.502,1.208L59.502,1.208z"/>
	</g>
</g>
<g>
	<path d="M84.481,23.729c-0.542-0.631-1.2-1.098-1.955-1.39c-0.743-0.286-1.569-0.431-2.453-0.431c-0.713,0-1.392,0.076-2.018,0.224
		c-0.633,0.151-1.175,0.359-1.611,0.62l-0.192,0.115l0.07,0.218l0.006,3.251h2.033v-2.23c0.187-0.044,0.386-0.084,0.594-0.118
		c0.281-0.046,0.592-0.069,0.924-0.069c0.581,0,1.121,0.095,1.604,0.281c0.476,0.185,0.9,0.471,1.258,0.852
		c0.36,0.383,0.652,0.882,0.866,1.482c0.192,0.539,0.31,1.185,0.353,1.925h-4.963v2.093h4.992c-0.021,0.846-0.139,1.572-0.352,2.161
		c-0.234,0.649-0.542,1.179-0.916,1.575c-0.371,0.394-0.798,0.684-1.267,0.862c-0.9,0.342-1.894,0.325-2.631,0.146
		c-0.283-0.069-0.546-0.144-0.784-0.226v-2.148h-2.033v3.5l0.133,0.082c0.149,0.092,0.348,0.19,0.61,0.299
		c0.259,0.107,0.545,0.208,0.849,0.299c0.312,0.093,0.646,0.171,0.991,0.234c0.354,0.065,0.711,0.098,1.061,0.098
		c0.882,0,1.728-0.141,2.516-0.418c0.799-0.281,1.507-0.743,2.104-1.371c0.593-0.626,1.067-1.443,1.406-2.428
		c0.336-0.976,0.507-2.169,0.507-3.545c0-1.359-0.149-2.541-0.444-3.514C85.443,25.172,85.019,24.355,84.481,23.729z"/>
	<polygon points="97.535,30.587 92.706,30.587 92.706,26.289 90.612,26.289 90.612,37.185 92.706,37.185 92.706,32.597 
		97.535,32.597 97.535,37.185 99.668,37.185 99.668,26.289 97.535,26.289 	"/>
	<path d="M114.113,32.022c0.068-1.2-0.017-2.197-0.253-2.963c-0.241-0.779-0.592-1.403-1.044-1.853
		c-0.452-0.451-0.982-0.763-1.575-0.928c-1.359-0.374-2.807-0.29-3.938,0.143c-0.663,0.254-1.236,0.627-1.703,1.109
		c-0.469,0.483-0.831,1.088-1.078,1.799c-0.244,0.702-0.367,1.512-0.367,2.409c0,0.854,0.113,1.635,0.335,2.321
		c0.225,0.695,0.561,1.302,0.999,1.804c0.441,0.505,0.995,0.899,1.647,1.168c0.646,0.267,1.395,0.403,2.229,0.403
		c0.441,0,0.885-0.04,1.322-0.118c0.435-0.078,0.858-0.19,1.256-0.331c0.402-0.143,0.779-0.317,1.12-0.518
		c0.344-0.203,0.647-0.423,0.899-0.655l0.162-0.149l-0.89-1.689l-0.259,0.24c-0.12,0.111-0.297,0.24-0.527,0.38
		c-0.23,0.142-0.502,0.273-0.807,0.391c-0.31,0.12-0.64,0.224-0.98,0.31c-0.33,0.084-0.668,0.126-1.005,0.126
		c-1.004,0-1.814-0.284-2.406-0.845c-0.537-0.508-0.831-1.277-0.876-2.289h7.723L114.113,32.022z M106.469,30.277
		c0.061-0.364,0.16-0.677,0.297-0.936c0.173-0.326,0.395-0.594,0.661-0.796c0.269-0.204,0.586-0.352,0.941-0.439
		c0.372-0.09,0.771-0.137,1.187-0.137c0.746,0,1.327,0.22,1.778,0.674c0.393,0.395,0.64,0.944,0.737,1.634H106.469z"/>
	<path d="M124.012,26.041c-0.847,0-1.577,0.176-2.171,0.522c-0.434,0.253-0.815,0.556-1.139,0.903l-0.164-1.177h-3.18v1.907h1.384
		c0.012,0.088,0.022,0.182,0.032,0.283c0.02,0.203,0.036,0.41,0.049,0.62c0.013,0.211,0.023,0.416,0.03,0.612
		c0.006,0.196,0.01,0.354,0.01,0.476v11.13h2.093v-4.215c0.071,0.025,0.14,0.048,0.207,0.069c0.184,0.058,0.371,0.106,0.563,0.143
		c0.188,0.035,0.397,0.064,0.627,0.086c0.228,0.021,0.487,0.032,0.777,0.032c0.806,0,1.555-0.139,2.228-0.412
		c0.675-0.275,1.261-0.673,1.741-1.182c0.479-0.508,0.854-1.136,1.114-1.866c0.257-0.724,0.388-1.546,0.388-2.443
		c0-1.91-0.389-3.316-1.156-4.178C126.672,26.482,125.517,26.041,124.012,26.041z M123.752,28.134c0.958,0,1.618,0.275,2.015,0.841
		c0.411,0.587,0.62,1.443,0.62,2.545c0,1.309-0.3,2.309-0.891,2.973c-0.593,0.666-1.367,0.99-2.366,0.99
		c-0.573,0-1.035-0.055-1.374-0.162c-0.291-0.093-0.56-0.216-0.8-0.368l-0.002-4.508c0.035-0.263,0.131-0.533,0.285-0.801
		c0.158-0.275,0.366-0.529,0.617-0.756c0.249-0.225,0.541-0.41,0.867-0.549C123.042,28.203,123.388,28.134,123.752,28.134z"/>
	<polygon points="133.028,28.259 134.312,28.259 134.312,35.236 133.028,35.236 133.028,37.185 139.495,37.185 139.495,35.236 
		136.445,35.236 136.445,28.259 139.769,28.259 139.769,30.717 141.682,30.717 141.682,26.289 133.028,26.289 	"/>
	<path d="M156.248,32.022c0.068-1.2-0.017-2.197-0.253-2.963c-0.241-0.779-0.592-1.403-1.044-1.853
		c-0.452-0.451-0.982-0.763-1.575-0.928c-1.359-0.374-2.807-0.29-3.938,0.143c-0.663,0.254-1.236,0.627-1.703,1.109
		c-0.469,0.483-0.831,1.088-1.077,1.799c-0.244,0.702-0.367,1.512-0.367,2.409c0,0.854,0.113,1.635,0.335,2.321
		c0.225,0.695,0.561,1.302,0.999,1.804c0.441,0.505,0.995,0.899,1.647,1.168c0.646,0.267,1.395,0.403,2.229,0.403
		c0.441,0,0.885-0.04,1.322-0.118c0.435-0.078,0.858-0.19,1.256-0.331c0.402-0.143,0.779-0.317,1.12-0.518
		c0.344-0.203,0.647-0.423,0.899-0.655l0.162-0.149l-0.89-1.689l-0.259,0.24c-0.12,0.111-0.297,0.24-0.527,0.38
		c-0.23,0.142-0.502,0.273-0.807,0.391c-0.31,0.12-0.64,0.224-0.98,0.31c-0.33,0.084-0.668,0.126-1.005,0.126
		c-1.004,0-1.814-0.284-2.406-0.845c-0.537-0.508-0.831-1.277-0.876-2.289h7.723L156.248,32.022z M148.603,30.277
		c0.061-0.364,0.16-0.677,0.297-0.936c0.173-0.326,0.395-0.594,0.661-0.796c0.269-0.204,0.586-0.352,0.941-0.439
		c0.372-0.09,0.771-0.137,1.187-0.137c0.746,0,1.327,0.22,1.778,0.674c0.393,0.395,0.64,0.944,0.737,1.634H148.603z"/>
	<polygon points="160.114,30.717 162.027,30.717 162.027,28.259 164.308,28.259 164.308,35.236 161.8,35.236 161.8,37.185 
		168.869,37.185 168.869,35.236 166.441,35.236 166.441,28.259 168.722,28.259 168.722,30.717 170.634,30.717 170.634,26.289 
		160.114,26.289 	"/>
	<polygon points="176.932,33.73 176.954,26.289 174.821,26.289 174.821,37.185 176.679,37.185 181.887,29.88 181.863,37.185 
		183.997,37.185 183.997,26.289 182.117,26.289 	"/>
	<polygon points="197.446,35.236 194.049,31.469 198.739,26.289 196.102,26.289 192.15,30.71 191.44,30.71 191.44,26.289 
		189.348,26.289 189.348,37.185 191.44,37.185 191.44,32.515 192.152,32.515 196.446,37.185 198.905,37.185 198.905,35.236 	"/>
</g>
</svg>
